%TF.GenerationSoftware,KiCad,Pcbnew,9.0.5*%
%TF.CreationDate,2025-12-08T19:50:26+01:00*%
%TF.ProjectId,inz,696e7a2e-6b69-4636-9164-5f7063625858,rev?*%
%TF.SameCoordinates,Original*%
%TF.FileFunction,Soldermask,Top*%
%TF.FilePolarity,Negative*%
%FSLAX46Y46*%
G04 Gerber Fmt 4.6, Leading zero omitted, Abs format (unit mm)*
G04 Created by KiCad (PCBNEW 9.0.5) date 2025-12-08 19:50:26*
%MOMM*%
%LPD*%
G01*
G04 APERTURE LIST*
G04 Aperture macros list*
%AMRoundRect*
0 Rectangle with rounded corners*
0 $1 Rounding radius*
0 $2 $3 $4 $5 $6 $7 $8 $9 X,Y pos of 4 corners*
0 Add a 4 corners polygon primitive as box body*
4,1,4,$2,$3,$4,$5,$6,$7,$8,$9,$2,$3,0*
0 Add four circle primitives for the rounded corners*
1,1,$1+$1,$2,$3*
1,1,$1+$1,$4,$5*
1,1,$1+$1,$6,$7*
1,1,$1+$1,$8,$9*
0 Add four rect primitives between the rounded corners*
20,1,$1+$1,$2,$3,$4,$5,0*
20,1,$1+$1,$4,$5,$6,$7,0*
20,1,$1+$1,$6,$7,$8,$9,0*
20,1,$1+$1,$8,$9,$2,$3,0*%
%AMFreePoly0*
4,1,9,3.862500,-0.866500,0.737500,-0.866500,0.737500,-0.450000,-0.737500,-0.450000,-0.737500,0.450000,0.737500,0.450000,0.737500,0.866500,3.862500,0.866500,3.862500,-0.866500,3.862500,-0.866500,$1*%
%AMFreePoly1*
4,1,6,1.000000,0.000000,0.500000,-0.750000,-0.500000,-0.750000,-0.500000,0.750000,0.500000,0.750000,1.000000,0.000000,1.000000,0.000000,$1*%
%AMFreePoly2*
4,1,6,0.500000,-0.750000,-0.650000,-0.750000,-0.150000,0.000000,-0.650000,0.750000,0.500000,0.750000,0.500000,-0.750000,0.500000,-0.750000,$1*%
G04 Aperture macros list end*
%ADD10R,1.700000X1.700000*%
%ADD11C,1.700000*%
%ADD12RoundRect,0.250000X0.450000X-0.262500X0.450000X0.262500X-0.450000X0.262500X-0.450000X-0.262500X0*%
%ADD13RoundRect,0.250000X0.262500X0.450000X-0.262500X0.450000X-0.262500X-0.450000X0.262500X-0.450000X0*%
%ADD14RoundRect,0.250000X0.250000X0.475000X-0.250000X0.475000X-0.250000X-0.475000X0.250000X-0.475000X0*%
%ADD15C,6.400000*%
%ADD16RoundRect,0.250000X1.050000X1.050000X-1.050000X1.050000X-1.050000X-1.050000X1.050000X-1.050000X0*%
%ADD17C,2.600000*%
%ADD18C,1.500000*%
%ADD19RoundRect,0.225000X-0.525000X-0.525000X0.525000X-0.525000X0.525000X0.525000X-0.525000X0.525000X0*%
%ADD20RoundRect,0.300000X-0.700000X-0.700000X0.700000X-0.700000X0.700000X0.700000X-0.700000X0.700000X0*%
%ADD21C,2.000000*%
%ADD22RoundRect,0.250000X-0.550000X-0.550000X0.550000X-0.550000X0.550000X0.550000X-0.550000X0.550000X0*%
%ADD23C,1.600000*%
%ADD24RoundRect,0.250000X-0.450000X0.262500X-0.450000X-0.262500X0.450000X-0.262500X0.450000X0.262500X0*%
%ADD25C,3.000000*%
%ADD26RoundRect,0.150000X0.512500X0.150000X-0.512500X0.150000X-0.512500X-0.150000X0.512500X-0.150000X0*%
%ADD27R,2.500000X2.500000*%
%ADD28O,2.500000X2.500000*%
%ADD29RoundRect,0.250000X0.600000X0.725000X-0.600000X0.725000X-0.600000X-0.725000X0.600000X-0.725000X0*%
%ADD30O,1.700000X1.950000*%
%ADD31RoundRect,0.243750X-0.456250X0.243750X-0.456250X-0.243750X0.456250X-0.243750X0.456250X0.243750X0*%
%ADD32R,1.905000X2.000000*%
%ADD33O,1.905000X2.000000*%
%ADD34RoundRect,0.250000X-0.325000X-0.650000X0.325000X-0.650000X0.325000X0.650000X-0.325000X0.650000X0*%
%ADD35RoundRect,0.250000X-0.475000X0.250000X-0.475000X-0.250000X0.475000X-0.250000X0.475000X0.250000X0*%
%ADD36RoundRect,0.225000X-0.375000X0.225000X-0.375000X-0.225000X0.375000X-0.225000X0.375000X0.225000X0*%
%ADD37RoundRect,0.250000X0.650000X-1.000000X0.650000X1.000000X-0.650000X1.000000X-0.650000X-1.000000X0*%
%ADD38RoundRect,0.250000X-1.050000X1.050000X-1.050000X-1.050000X1.050000X-1.050000X1.050000X1.050000X0*%
%ADD39RoundRect,0.250000X-0.250000X-0.475000X0.250000X-0.475000X0.250000X0.475000X-0.250000X0.475000X0*%
%ADD40RoundRect,0.250000X0.600000X-0.600000X0.600000X0.600000X-0.600000X0.600000X-0.600000X-0.600000X0*%
%ADD41RoundRect,0.150000X0.587500X0.150000X-0.587500X0.150000X-0.587500X-0.150000X0.587500X-0.150000X0*%
%ADD42RoundRect,0.250000X-0.300000X2.050000X-0.300000X-2.050000X0.300000X-2.050000X0.300000X2.050000X0*%
%ADD43RoundRect,0.250002X-5.149998X4.449998X-5.149998X-4.449998X5.149998X-4.449998X5.149998X4.449998X0*%
%ADD44RoundRect,0.250001X2.049999X0.799999X-2.049999X0.799999X-2.049999X-0.799999X2.049999X-0.799999X0*%
%ADD45RoundRect,0.250000X-1.425000X0.362500X-1.425000X-0.362500X1.425000X-0.362500X1.425000X0.362500X0*%
%ADD46RoundRect,0.250000X-0.262500X-0.450000X0.262500X-0.450000X0.262500X0.450000X-0.262500X0.450000X0*%
%ADD47RoundRect,0.150000X-0.825000X-0.150000X0.825000X-0.150000X0.825000X0.150000X-0.825000X0.150000X0*%
%ADD48RoundRect,0.500000X0.500000X0.900000X-0.500000X0.900000X-0.500000X-0.900000X0.500000X-0.900000X0*%
%ADD49C,0.650000*%
%ADD50RoundRect,0.150000X0.425000X-0.150000X0.425000X0.150000X-0.425000X0.150000X-0.425000X-0.150000X0*%
%ADD51RoundRect,0.075000X0.500000X-0.075000X0.500000X0.075000X-0.500000X0.075000X-0.500000X-0.075000X0*%
%ADD52O,2.100000X1.000000*%
%ADD53O,1.800000X1.000000*%
%ADD54RoundRect,0.125000X-0.687500X-0.125000X0.687500X-0.125000X0.687500X0.125000X-0.687500X0.125000X0*%
%ADD55RoundRect,0.150000X-0.512500X-0.150000X0.512500X-0.150000X0.512500X0.150000X-0.512500X0.150000X0*%
%ADD56RoundRect,0.150000X-0.150000X0.662500X-0.150000X-0.662500X0.150000X-0.662500X0.150000X0.662500X0*%
%ADD57RoundRect,0.250000X-0.650000X0.325000X-0.650000X-0.325000X0.650000X-0.325000X0.650000X0.325000X0*%
%ADD58RoundRect,0.225000X0.425000X0.225000X-0.425000X0.225000X-0.425000X-0.225000X0.425000X-0.225000X0*%
%ADD59FreePoly0,180.000000*%
%ADD60RoundRect,0.150000X-0.587500X-0.150000X0.587500X-0.150000X0.587500X0.150000X-0.587500X0.150000X0*%
%ADD61RoundRect,0.250000X0.475000X-0.250000X0.475000X0.250000X-0.475000X0.250000X-0.475000X-0.250000X0*%
%ADD62RoundRect,0.250000X0.325000X0.650000X-0.325000X0.650000X-0.325000X-0.650000X0.325000X-0.650000X0*%
%ADD63RoundRect,0.049000X0.551000X-0.301000X0.551000X0.301000X-0.551000X0.301000X-0.551000X-0.301000X0*%
%ADD64RoundRect,0.300000X1.600000X-0.300000X1.600000X0.300000X-1.600000X0.300000X-1.600000X-0.300000X0*%
%ADD65RoundRect,0.350000X0.350000X-0.375000X0.350000X0.375000X-0.350000X0.375000X-0.350000X-0.375000X0*%
%ADD66R,1.100000X0.250000*%
%ADD67RoundRect,0.255000X-1.545000X0.595000X-1.545000X-0.595000X1.545000X-0.595000X1.545000X0.595000X0*%
%ADD68RoundRect,0.243750X0.243750X0.456250X-0.243750X0.456250X-0.243750X-0.456250X0.243750X-0.456250X0*%
%ADD69R,2.000000X4.600000*%
%ADD70O,2.000000X4.200000*%
%ADD71O,4.200000X2.000000*%
%ADD72RoundRect,0.250001X-0.799999X2.049999X-0.799999X-2.049999X0.799999X-2.049999X0.799999X2.049999X0*%
%ADD73RoundRect,0.250001X-1.149999X-1.149999X1.149999X-1.149999X1.149999X1.149999X-1.149999X1.149999X0*%
%ADD74C,2.800000*%
%ADD75RoundRect,0.255000X-0.995000X-0.595000X0.995000X-0.595000X0.995000X0.595000X-0.995000X0.595000X0*%
%ADD76C,1.440000*%
%ADD77FreePoly1,270.000000*%
%ADD78FreePoly1,90.000000*%
%ADD79RoundRect,0.150000X-0.150000X0.825000X-0.150000X-0.825000X0.150000X-0.825000X0.150000X0.825000X0*%
%ADD80RoundRect,0.250000X-1.500000X-0.500000X1.500000X-0.500000X1.500000X0.500000X-1.500000X0.500000X0*%
%ADD81FreePoly1,0.000000*%
%ADD82FreePoly2,0.000000*%
%TA.AperFunction,Profile*%
%ADD83C,0.050000*%
%TD*%
G04 APERTURE END LIST*
%TO.C,JP201*%
G36*
X79250000Y-97400000D02*
G01*
X77750000Y-97400000D01*
X77750000Y-102400000D01*
X79250000Y-102400000D01*
X79250000Y-97400000D01*
G37*
%TO.C,JP101*%
G36*
X72825000Y-86000000D02*
G01*
X75275000Y-86000000D01*
X75275000Y-87500000D01*
X72825000Y-87500000D01*
X72825000Y-86000000D01*
G37*
%TD*%
D10*
%TO.C,J203*%
X176268080Y-88500000D03*
D11*
X173728080Y-88500000D03*
X171188080Y-88500000D03*
X168648080Y-88500000D03*
X166108080Y-88500000D03*
X163568080Y-88500000D03*
%TD*%
D12*
%TO.C,R212*%
X112297762Y-94151717D03*
X112297762Y-92326717D03*
%TD*%
D13*
%TO.C,R607*%
X61000000Y-70000000D03*
X59175000Y-70000000D03*
%TD*%
D14*
%TO.C,C402*%
X162806319Y-34865093D03*
X160906319Y-34865093D03*
%TD*%
D10*
%TO.C,J501*%
X133380000Y-39250000D03*
D11*
X135920000Y-39250000D03*
X138460000Y-39250000D03*
X141000000Y-39250000D03*
%TD*%
D12*
%TO.C,R407*%
X132378662Y-98654732D03*
X132378662Y-96829732D03*
%TD*%
%TO.C,R207*%
X108297762Y-85901717D03*
X108297762Y-84076717D03*
%TD*%
D15*
%TO.C,H402*%
X188000000Y-28000000D03*
%TD*%
D16*
%TO.C,J302*%
X130112918Y-31039581D03*
D17*
X125112918Y-31039581D03*
%TD*%
D18*
%TO.C,TP203*%
X122500000Y-85400000D03*
%TD*%
D19*
%TO.C,U204*%
X65175000Y-91460000D03*
X65175000Y-94000000D03*
X65175000Y-96540000D03*
D20*
X55075000Y-90350000D03*
X55075000Y-97650000D03*
%TD*%
D14*
%TO.C,C602*%
X71350000Y-26900000D03*
X69450000Y-26900000D03*
%TD*%
D21*
%TO.C,FID404*%
X64000000Y-103000000D03*
%TD*%
D22*
%TO.C,J102*%
X141160000Y-45885000D03*
D23*
X141160000Y-48425000D03*
X141160000Y-50965000D03*
X141160000Y-53505000D03*
X141160000Y-56045000D03*
X141160000Y-58585000D03*
X141160000Y-61125000D03*
X141160000Y-63665000D03*
X141160000Y-66205000D03*
X141160000Y-68745000D03*
X141160000Y-71285000D03*
X141160000Y-73825000D03*
X141160000Y-76365000D03*
X141160000Y-78905000D03*
X141160000Y-81445000D03*
X141160000Y-83985000D03*
X141160000Y-86525000D03*
X141160000Y-89065000D03*
X141160000Y-91605000D03*
X141160000Y-94145000D03*
X156400000Y-94145000D03*
X156400000Y-91605000D03*
X156400000Y-89065000D03*
X156400000Y-86525000D03*
X156400000Y-83985000D03*
X156400000Y-81445000D03*
X156400000Y-78905000D03*
X156400000Y-76365000D03*
X156400000Y-73825000D03*
X156400000Y-71285000D03*
X156400000Y-68745000D03*
X156400000Y-66205000D03*
X156400000Y-63665000D03*
X156400000Y-61125000D03*
X156400000Y-58585000D03*
X156400000Y-56045000D03*
X156400000Y-53505000D03*
X156400000Y-50965000D03*
X156400000Y-48425000D03*
X156400000Y-45885000D03*
%TD*%
D24*
%TO.C,R208*%
X110297762Y-80326717D03*
X110297762Y-82151717D03*
%TD*%
D25*
%TO.C,L601*%
X56190000Y-53000000D03*
X63810000Y-53000000D03*
%TD*%
D13*
%TO.C,R501*%
X133325000Y-60000000D03*
X131500000Y-60000000D03*
%TD*%
D18*
%TO.C,TP602*%
X90400000Y-47600000D03*
%TD*%
D24*
%TO.C,R217*%
X110297762Y-92326717D03*
X110297762Y-94151717D03*
%TD*%
D26*
%TO.C,U401*%
X182494307Y-51580275D03*
X182494307Y-50630275D03*
X182494307Y-49680275D03*
X180219307Y-49680275D03*
X180219307Y-50630275D03*
X180219307Y-51580275D03*
%TD*%
D27*
%TO.C,RL102*%
X121750000Y-43750000D03*
D28*
X106750000Y-43750000D03*
X101750000Y-43750000D03*
X96750000Y-43750000D03*
X96750000Y-51250000D03*
X101750000Y-51250000D03*
X106750000Y-51250000D03*
X121750000Y-51250000D03*
%TD*%
D29*
%TO.C,J407*%
X134346541Y-103638758D03*
D30*
X131846541Y-103638758D03*
X129346541Y-103638758D03*
X126846541Y-103638758D03*
X124346541Y-103638758D03*
%TD*%
D18*
%TO.C,TP112*%
X153293930Y-83561076D03*
%TD*%
D31*
%TO.C,D602*%
X86700000Y-37562500D03*
X86700000Y-39437500D03*
%TD*%
D18*
%TO.C,TP103*%
X106250000Y-55500000D03*
%TD*%
D12*
%TO.C,R603*%
X67255000Y-64912500D03*
X67255000Y-63087500D03*
%TD*%
D15*
%TO.C,H401*%
X58000000Y-28000000D03*
%TD*%
D32*
%TO.C,Q301*%
X108972918Y-28212081D03*
D33*
X111512918Y-28212081D03*
X114052918Y-28212081D03*
%TD*%
D18*
%TO.C,TP505*%
X131082282Y-55034255D03*
%TD*%
D13*
%TO.C,R401*%
X183744307Y-54880275D03*
X181919307Y-54880275D03*
%TD*%
D34*
%TO.C,C410*%
X171053813Y-48773171D03*
X174003813Y-48773171D03*
%TD*%
D35*
%TO.C,C607*%
X65000000Y-68800000D03*
X65000000Y-70700000D03*
%TD*%
%TO.C,C203*%
X104297762Y-80289217D03*
X104297762Y-82189217D03*
%TD*%
D36*
%TO.C,D502*%
X127000000Y-42200000D03*
X127000000Y-45500000D03*
%TD*%
D24*
%TO.C,R410*%
X175724832Y-58493946D03*
X175724832Y-60318946D03*
%TD*%
D18*
%TO.C,TP206*%
X114000000Y-98000000D03*
%TD*%
D24*
%TO.C,R215*%
X108297762Y-92326717D03*
X108297762Y-94151717D03*
%TD*%
D37*
%TO.C,D601*%
X69630000Y-45425000D03*
X69630000Y-41425000D03*
%TD*%
D12*
%TO.C,R210*%
X114297762Y-94151717D03*
X114297762Y-92326717D03*
%TD*%
D24*
%TO.C,R404*%
X156000000Y-37200000D03*
X156000000Y-39025000D03*
%TD*%
D38*
%TO.C,J101*%
X58640925Y-79979129D03*
D17*
X58640925Y-84979129D03*
%TD*%
D12*
%TO.C,R601*%
X86700000Y-33200000D03*
X86700000Y-31375000D03*
%TD*%
D13*
%TO.C,R504*%
X128825000Y-53000000D03*
X127000000Y-53000000D03*
%TD*%
D39*
%TO.C,C604*%
X71705000Y-49500000D03*
X73605000Y-49500000D03*
%TD*%
D24*
%TO.C,R604*%
X77005000Y-63087500D03*
X77005000Y-64912500D03*
%TD*%
D13*
%TO.C,R602*%
X57000000Y-70000000D03*
X55175000Y-70000000D03*
%TD*%
D40*
%TO.C,J201*%
X91350000Y-93070000D03*
X93890000Y-93070000D03*
X96430000Y-93070000D03*
X98970000Y-93070000D03*
X91350000Y-75290000D03*
X93890000Y-75290000D03*
X96430000Y-75290000D03*
X98970000Y-75290000D03*
%TD*%
D41*
%TO.C,U203*%
X104985262Y-85939217D03*
X104985262Y-84039217D03*
X103110262Y-84989217D03*
%TD*%
D42*
%TO.C,U601*%
X80900000Y-33100000D03*
X79200000Y-33100000D03*
X77500000Y-33100000D03*
D43*
X77500000Y-42250000D03*
D42*
X75800000Y-33100000D03*
X74100000Y-33100000D03*
%TD*%
D14*
%TO.C,C603*%
X78650000Y-29100000D03*
X76750000Y-29100000D03*
%TD*%
D29*
%TO.C,J401*%
X118379605Y-103638758D03*
D30*
X115879605Y-103638758D03*
X113379605Y-103638758D03*
X110879605Y-103638758D03*
%TD*%
D18*
%TO.C,TP111*%
X153293930Y-80811076D03*
%TD*%
%TO.C,TP601*%
X88300000Y-29062747D03*
%TD*%
D24*
%TO.C,R408*%
X182724832Y-58493946D03*
X182724832Y-60318946D03*
%TD*%
D18*
%TO.C,TP113*%
X153293930Y-86311076D03*
%TD*%
%TO.C,TP204*%
X72750000Y-102250000D03*
%TD*%
%TO.C,TP302*%
X93903874Y-29062747D03*
%TD*%
D44*
%TO.C,C601*%
X65455591Y-38027795D03*
X56655591Y-38027795D03*
%TD*%
D35*
%TO.C,C606*%
X82750000Y-67800000D03*
X82750000Y-69700000D03*
%TD*%
D18*
%TO.C,TP502*%
X131082282Y-72034255D03*
%TD*%
D26*
%TO.C,U402*%
X162993819Y-39065093D03*
X162993819Y-38115093D03*
X162993819Y-37165093D03*
X160718819Y-37165093D03*
X160718819Y-38115093D03*
X160718819Y-39065093D03*
%TD*%
D45*
%TO.C,R608*%
X86300000Y-63637500D03*
X86300000Y-69562500D03*
%TD*%
D24*
%TO.C,R201*%
X114297762Y-80326717D03*
X114297762Y-82151717D03*
%TD*%
D46*
%TO.C,R606*%
X71337500Y-74750000D03*
X73162500Y-74750000D03*
%TD*%
D21*
%TO.C,FID401*%
X64000000Y-27000000D03*
%TD*%
D35*
%TO.C,C409*%
X182724832Y-62368946D03*
X182724832Y-64268946D03*
%TD*%
D47*
%TO.C,U603*%
X67775000Y-69095000D03*
X67775000Y-70365000D03*
X67775000Y-71635000D03*
X67775000Y-72905000D03*
X72725000Y-72905000D03*
X72725000Y-71635000D03*
X72725000Y-70365000D03*
X72725000Y-69095000D03*
%TD*%
D13*
%TO.C,R503*%
X133325000Y-43000000D03*
X131500000Y-43000000D03*
%TD*%
D35*
%TO.C,C408*%
X179224832Y-62368946D03*
X179224832Y-64268946D03*
%TD*%
D48*
%TO.C,F401*%
X178740000Y-27000000D03*
X173870000Y-26987500D03*
X163500000Y-27000000D03*
X158420000Y-27000000D03*
%TD*%
D18*
%TO.C,TP114*%
X153293930Y-89061076D03*
%TD*%
D12*
%TO.C,R412*%
X182750000Y-72662500D03*
X182750000Y-70837500D03*
%TD*%
%TO.C,R406*%
X128378662Y-98654732D03*
X128378662Y-96829732D03*
%TD*%
D49*
%TO.C,J402*%
X187910000Y-53515000D03*
X187910000Y-47735000D03*
D50*
X186775000Y-53825000D03*
X186775000Y-53025000D03*
D51*
X186775000Y-51875000D03*
X186775000Y-50875000D03*
X186775000Y-50375000D03*
X186775000Y-49375000D03*
D50*
X186775000Y-48225000D03*
X186775000Y-47425000D03*
X186775000Y-47425000D03*
X186775000Y-48225000D03*
D51*
X186775000Y-48875000D03*
X186775000Y-49875000D03*
X186775000Y-51375000D03*
X186775000Y-52375000D03*
D50*
X186775000Y-53025000D03*
X186775000Y-53825000D03*
D52*
X187350000Y-54945000D03*
D53*
X191530000Y-54945000D03*
D52*
X187350000Y-46305000D03*
D53*
X191530000Y-46305000D03*
%TD*%
D18*
%TO.C,TP401*%
X178200000Y-45500000D03*
%TD*%
%TO.C,TP403*%
X164800000Y-45900000D03*
%TD*%
D29*
%TO.C,J404*%
X176250000Y-72000000D03*
D30*
X173750000Y-72000000D03*
X171250000Y-72000000D03*
X168750000Y-72000000D03*
X166250000Y-72000000D03*
X163750000Y-72000000D03*
%TD*%
D15*
%TO.C,H403*%
X188000000Y-103000000D03*
%TD*%
D24*
%TO.C,R214*%
X108297762Y-96326717D03*
X108297762Y-98151717D03*
%TD*%
D54*
%TO.C,U201*%
X91500000Y-85350000D03*
X91500000Y-86000000D03*
X91500000Y-86650000D03*
X91500000Y-87300000D03*
X95725000Y-87300000D03*
X95725000Y-86650000D03*
X95725000Y-86000000D03*
X95725000Y-85350000D03*
%TD*%
D55*
%TO.C,U605*%
X72617500Y-63050000D03*
X72617500Y-64950000D03*
X74892500Y-64000000D03*
%TD*%
D56*
%TO.C,U502*%
X133135000Y-45812500D03*
X131865000Y-45812500D03*
X131865000Y-52187500D03*
X133135000Y-52187500D03*
%TD*%
D18*
%TO.C,TP115*%
X153293930Y-91811076D03*
%TD*%
D29*
%TO.C,J409*%
X176857088Y-103638758D03*
D30*
X174357088Y-103638758D03*
X171857088Y-103638758D03*
X169357088Y-103638758D03*
X166857088Y-103638758D03*
%TD*%
D57*
%TO.C,C608*%
X55205000Y-62525000D03*
X55205000Y-65475000D03*
%TD*%
D18*
%TO.C,TP504*%
X133832282Y-55034255D03*
%TD*%
D58*
%TO.C,U604*%
X61155000Y-65500000D03*
D59*
X61067500Y-64000000D03*
D58*
X61155000Y-62500000D03*
%TD*%
D18*
%TO.C,TP110*%
X138073930Y-81451076D03*
%TD*%
%TO.C,TP205*%
X72750000Y-98200000D03*
%TD*%
%TO.C,TP202*%
X101500000Y-81250000D03*
%TD*%
%TO.C,TP301*%
X91101937Y-29062747D03*
%TD*%
%TO.C,TP101*%
X108815000Y-55500000D03*
%TD*%
%TO.C,TP603*%
X86700000Y-35400000D03*
%TD*%
D24*
%TO.C,R411*%
X182724832Y-66618946D03*
X182724832Y-68443946D03*
%TD*%
D35*
%TO.C,C201*%
X98135000Y-85405000D03*
X98135000Y-87305000D03*
%TD*%
D12*
%TO.C,R213*%
X117797762Y-94151717D03*
X117797762Y-92326717D03*
%TD*%
D29*
%TO.C,J408*%
X160857088Y-103638758D03*
D30*
X158357088Y-103638758D03*
X155857088Y-103638758D03*
X153357088Y-103638758D03*
X150857088Y-103638758D03*
X148357088Y-103638758D03*
X145857088Y-103638758D03*
X143357088Y-103638758D03*
X140857088Y-103638758D03*
%TD*%
D10*
%TO.C,J202*%
X88300000Y-104100000D03*
D11*
X85760000Y-104100000D03*
X83220000Y-104100000D03*
%TD*%
D35*
%TO.C,C210*%
X69700000Y-93050000D03*
X69700000Y-94950000D03*
%TD*%
D18*
%TO.C,TP108*%
X159473930Y-58641076D03*
%TD*%
D46*
%TO.C,R301*%
X91345247Y-33062747D03*
X93170247Y-33062747D03*
%TD*%
D60*
%TO.C,Q501*%
X127000000Y-65500000D03*
X127000000Y-67400000D03*
X128875000Y-66450000D03*
%TD*%
D35*
%TO.C,C405*%
X134378662Y-96792232D03*
X134378662Y-98692232D03*
%TD*%
D60*
%TO.C,Q502*%
X127000000Y-48500000D03*
X127000000Y-50400000D03*
X128875000Y-49450000D03*
%TD*%
D47*
%TO.C,U301*%
X99050000Y-31690000D03*
X99050000Y-32960000D03*
X99050000Y-34230000D03*
X99050000Y-35500000D03*
X104000000Y-35500000D03*
X104000000Y-34230000D03*
X104000000Y-32960000D03*
X104000000Y-31690000D03*
%TD*%
D21*
%TO.C,FID403*%
X182000000Y-103000000D03*
%TD*%
D35*
%TO.C,C407*%
X126378662Y-96792232D03*
X126378662Y-98692232D03*
%TD*%
D18*
%TO.C,TP201*%
X91275000Y-90575000D03*
%TD*%
%TO.C,TP109*%
X159473930Y-61141076D03*
%TD*%
%TO.C,TP606*%
X80700000Y-62300000D03*
%TD*%
D61*
%TO.C,C207*%
X78400000Y-94950000D03*
X78400000Y-93050000D03*
%TD*%
D56*
%TO.C,U501*%
X133135000Y-62812500D03*
X131865000Y-62812500D03*
X131865000Y-69187500D03*
X133135000Y-69187500D03*
%TD*%
D61*
%TO.C,C609*%
X63430000Y-64950000D03*
X63430000Y-63050000D03*
%TD*%
D62*
%TO.C,C301*%
X93732747Y-35312747D03*
X90782747Y-35312747D03*
%TD*%
D18*
%TO.C,TP303*%
X99507747Y-29062747D03*
%TD*%
%TO.C,TP207*%
X122500000Y-89100000D03*
%TD*%
D35*
%TO.C,C406*%
X130378662Y-96792232D03*
X130378662Y-98692232D03*
%TD*%
D18*
%TO.C,TP117*%
X153293930Y-94561076D03*
%TD*%
D13*
%TO.C,R502*%
X128825000Y-70000000D03*
X127000000Y-70000000D03*
%TD*%
D63*
%TO.C,J412*%
X186974832Y-59768946D03*
X186974832Y-60868946D03*
X186974832Y-61968946D03*
X186974832Y-63068946D03*
X186974832Y-64168946D03*
X186974832Y-65268946D03*
X186974832Y-66368946D03*
X186974832Y-67468946D03*
D64*
X189474832Y-68618946D03*
D65*
X188724832Y-58143946D03*
%TD*%
D66*
%TO.C,U602*%
X80400000Y-69750000D03*
X80400000Y-69250000D03*
X80400000Y-68750000D03*
X80400000Y-68250000D03*
X80400000Y-67750000D03*
X76100000Y-67750000D03*
X76100000Y-68250000D03*
X76100000Y-68750000D03*
X76100000Y-69250000D03*
X76100000Y-69750000D03*
%TD*%
D18*
%TO.C,TP503*%
X121750000Y-72750000D03*
%TD*%
D67*
%TO.C,L401*%
X169743819Y-33865093D03*
X169743819Y-42865093D03*
%TD*%
D12*
%TO.C,R216*%
X110297762Y-98151717D03*
X110297762Y-96326717D03*
%TD*%
D61*
%TO.C,C202*%
X119797762Y-82189217D03*
X119797762Y-80289217D03*
%TD*%
D29*
%TO.C,J406*%
X176250000Y-80250000D03*
D30*
X173750000Y-80250000D03*
X171250000Y-80250000D03*
X168750000Y-80250000D03*
X166250000Y-80250000D03*
X163750000Y-80250000D03*
%TD*%
D18*
%TO.C,TP604*%
X67255000Y-60250000D03*
%TD*%
%TO.C,TP104*%
X119750000Y-39000000D03*
%TD*%
D24*
%TO.C,R409*%
X179224832Y-58493946D03*
X179224832Y-60318946D03*
%TD*%
D18*
%TO.C,TP605*%
X80700000Y-65100000D03*
%TD*%
D68*
%TO.C,D604*%
X61050000Y-72500000D03*
X59175000Y-72500000D03*
%TD*%
D12*
%TO.C,R206*%
X108297762Y-82151717D03*
X108297762Y-80326717D03*
%TD*%
D69*
%TO.C,J403*%
X183025735Y-38854186D03*
D70*
X189325735Y-38854186D03*
D71*
X185925735Y-34054186D03*
%TD*%
D24*
%TO.C,R211*%
X106297762Y-92326717D03*
X106297762Y-94151717D03*
%TD*%
D18*
%TO.C,TP607*%
X64000000Y-29800000D03*
%TD*%
%TO.C,TP501*%
X133832282Y-72034255D03*
%TD*%
D24*
%TO.C,R203*%
X112297762Y-80326717D03*
X112297762Y-82151717D03*
%TD*%
D35*
%TO.C,C610*%
X69505000Y-63050000D03*
X69505000Y-64950000D03*
%TD*%
%TO.C,C204*%
X87500000Y-87500000D03*
X87500000Y-89400000D03*
%TD*%
%TO.C,C205*%
X87500000Y-83800000D03*
X87500000Y-85700000D03*
%TD*%
D72*
%TO.C,C605*%
X86000000Y-50100000D03*
X86000000Y-58900000D03*
%TD*%
D18*
%TO.C,TP506*%
X121750000Y-55500000D03*
%TD*%
D73*
%TO.C,J301*%
X109507747Y-34657747D03*
D74*
X114507747Y-34657747D03*
%TD*%
D12*
%TO.C,R403*%
X158000000Y-39025000D03*
X158000000Y-37200000D03*
%TD*%
D18*
%TO.C,TP116*%
X138100000Y-91600000D03*
%TD*%
%TO.C,TP304*%
X96705810Y-29062747D03*
%TD*%
%TO.C,TP402*%
X134400000Y-27500000D03*
%TD*%
D35*
%TO.C,C208*%
X119797762Y-92289217D03*
X119797762Y-94189217D03*
%TD*%
D14*
%TO.C,C403*%
X162806319Y-32865093D03*
X160906319Y-32865093D03*
%TD*%
D75*
%TO.C,J405*%
X158253819Y-33865093D03*
X173493819Y-33865093D03*
X158253819Y-42485093D03*
X173493819Y-42485093D03*
%TD*%
D10*
%TO.C,JP102*%
X75025000Y-82250000D03*
D11*
X72485000Y-82250000D03*
%TD*%
D46*
%TO.C,R605*%
X67500000Y-74750000D03*
X69325000Y-74750000D03*
%TD*%
D24*
%TO.C,R205*%
X117797762Y-80326717D03*
X117797762Y-82151717D03*
%TD*%
D36*
%TO.C,D501*%
X127000000Y-59200000D03*
X127000000Y-62500000D03*
%TD*%
D24*
%TO.C,R202*%
X106297762Y-80326717D03*
X106297762Y-82151717D03*
%TD*%
D35*
%TO.C,C206*%
X67750000Y-98800000D03*
X67750000Y-100700000D03*
%TD*%
D15*
%TO.C,H404*%
X58000000Y-103000000D03*
%TD*%
D18*
%TO.C,TP105*%
X138073930Y-53551076D03*
%TD*%
D27*
%TO.C,RL101*%
X121750000Y-61000000D03*
D28*
X106750000Y-61000000D03*
X101750000Y-61000000D03*
X96750000Y-61000000D03*
X96750000Y-68500000D03*
X101750000Y-68500000D03*
X106750000Y-68500000D03*
X121750000Y-68500000D03*
%TD*%
D18*
%TO.C,TP106*%
X159473930Y-55891076D03*
%TD*%
D76*
%TO.C,RV601*%
X71365000Y-56390000D03*
X73905000Y-56390000D03*
X76445000Y-56390000D03*
%TD*%
D10*
%TO.C,J411*%
X183750000Y-77860000D03*
D11*
X183750000Y-80400000D03*
X183750000Y-82940000D03*
X183750000Y-85480000D03*
X183750000Y-88020000D03*
X183750000Y-90560000D03*
X183750000Y-93100000D03*
X183750000Y-95640000D03*
%TD*%
D39*
%TO.C,C404*%
X171028813Y-46523171D03*
X172928813Y-46523171D03*
%TD*%
D24*
%TO.C,R209*%
X110297762Y-84076717D03*
X110297762Y-85901717D03*
%TD*%
D77*
%TO.C,JP201*%
X78500000Y-97900000D03*
D78*
X78500000Y-101900000D03*
%TD*%
D18*
%TO.C,TP107*%
X138073930Y-56251076D03*
%TD*%
D79*
%TO.C,U202*%
X117202762Y-84764217D03*
X115932762Y-84764217D03*
X114662762Y-84764217D03*
X113392762Y-84764217D03*
X113392762Y-89714217D03*
X114662762Y-89714217D03*
X115932762Y-89714217D03*
X117202762Y-89714217D03*
%TD*%
D12*
%TO.C,R405*%
X124378662Y-98654732D03*
X124378662Y-96829732D03*
%TD*%
D80*
%TO.C,J410*%
X188750000Y-77880000D03*
X188750000Y-80420000D03*
X188750000Y-82960000D03*
X188750000Y-85500000D03*
X188750000Y-88040000D03*
X188750000Y-90580000D03*
X188750000Y-93120000D03*
X188750000Y-95660000D03*
%TD*%
D79*
%TO.C,U206*%
X75890000Y-89525000D03*
X74620000Y-89525000D03*
X73350000Y-89525000D03*
X72080000Y-89525000D03*
X72080000Y-94475000D03*
X73350000Y-94475000D03*
X74620000Y-94475000D03*
X75890000Y-94475000D03*
%TD*%
D18*
%TO.C,TP102*%
X104750000Y-72750000D03*
%TD*%
D81*
%TO.C,JP101*%
X73325000Y-86750000D03*
D82*
X74775000Y-86750000D03*
%TD*%
D68*
%TO.C,D603*%
X57005000Y-72500000D03*
X55130000Y-72500000D03*
%TD*%
D21*
%TO.C,FID402*%
X182000000Y-28000000D03*
%TD*%
D13*
%TO.C,R402*%
X183744307Y-46130275D03*
X181919307Y-46130275D03*
%TD*%
D46*
%TO.C,R204*%
X92700000Y-82825000D03*
X94525000Y-82825000D03*
%TD*%
D61*
%TO.C,C401*%
X160800000Y-43950000D03*
X160800000Y-42050000D03*
%TD*%
D18*
%TO.C,TP608*%
X63900000Y-73600000D03*
%TD*%
D41*
%TO.C,U205*%
X105235262Y-98189217D03*
X105235262Y-96289217D03*
X103360262Y-97239217D03*
%TD*%
D61*
%TO.C,C209*%
X104297762Y-94189217D03*
X104297762Y-92289217D03*
%TD*%
D83*
X53000000Y-103000000D02*
X53000000Y-28000000D01*
X53000000Y-28000000D02*
G75*
G02*
X58000000Y-23000000I5000000J0D01*
G01*
X58000000Y-108000000D02*
G75*
G02*
X53000000Y-103000000I0J5000000D01*
G01*
X188000000Y-108000000D02*
X58000000Y-108000000D01*
X193000000Y-28000000D02*
X193000000Y-103000000D01*
X58000000Y-23000000D02*
X188000000Y-23000000D01*
X188000000Y-23000000D02*
G75*
G02*
X193000000Y-28000000I0J-5000000D01*
G01*
X193000000Y-103000000D02*
G75*
G02*
X188000000Y-108000000I-5000000J0D01*
G01*
M02*
