%TF.GenerationSoftware,KiCad,Pcbnew,9.0.5*%
%TF.CreationDate,2025-12-08T19:50:26+01:00*%
%TF.ProjectId,inz,696e7a2e-6b69-4636-9164-5f7063625858,rev?*%
%TF.SameCoordinates,Original*%
%TF.FileFunction,Soldermask,Bot*%
%TF.FilePolarity,Negative*%
%FSLAX46Y46*%
G04 Gerber Fmt 4.6, Leading zero omitted, Abs format (unit mm)*
G04 Created by KiCad (PCBNEW 9.0.5) date 2025-12-08 19:50:26*
%MOMM*%
%LPD*%
G01*
G04 APERTURE LIST*
G04 Aperture macros list*
%AMRoundRect*
0 Rectangle with rounded corners*
0 $1 Rounding radius*
0 $2 $3 $4 $5 $6 $7 $8 $9 X,Y pos of 4 corners*
0 Add a 4 corners polygon primitive as box body*
4,1,4,$2,$3,$4,$5,$6,$7,$8,$9,$2,$3,0*
0 Add four circle primitives for the rounded corners*
1,1,$1+$1,$2,$3*
1,1,$1+$1,$4,$5*
1,1,$1+$1,$6,$7*
1,1,$1+$1,$8,$9*
0 Add four rect primitives between the rounded corners*
20,1,$1+$1,$2,$3,$4,$5,0*
20,1,$1+$1,$4,$5,$6,$7,0*
20,1,$1+$1,$6,$7,$8,$9,0*
20,1,$1+$1,$8,$9,$2,$3,0*%
G04 Aperture macros list end*
%ADD10R,1.700000X1.700000*%
%ADD11C,1.700000*%
%ADD12C,6.400000*%
%ADD13RoundRect,0.250000X1.050000X1.050000X-1.050000X1.050000X-1.050000X-1.050000X1.050000X-1.050000X0*%
%ADD14C,2.600000*%
%ADD15C,1.500000*%
%ADD16RoundRect,0.225000X-0.525000X-0.525000X0.525000X-0.525000X0.525000X0.525000X-0.525000X0.525000X0*%
%ADD17RoundRect,0.300000X-0.700000X-0.700000X0.700000X-0.700000X0.700000X0.700000X-0.700000X0.700000X0*%
%ADD18RoundRect,0.250000X-0.550000X-0.550000X0.550000X-0.550000X0.550000X0.550000X-0.550000X0.550000X0*%
%ADD19C,1.600000*%
%ADD20C,3.000000*%
%ADD21R,2.500000X2.500000*%
%ADD22O,2.500000X2.500000*%
%ADD23RoundRect,0.250000X0.600000X0.725000X-0.600000X0.725000X-0.600000X-0.725000X0.600000X-0.725000X0*%
%ADD24O,1.700000X1.950000*%
%ADD25R,1.905000X2.000000*%
%ADD26O,1.905000X2.000000*%
%ADD27RoundRect,0.250000X-1.050000X1.050000X-1.050000X-1.050000X1.050000X-1.050000X1.050000X1.050000X0*%
%ADD28RoundRect,0.250000X0.600000X-0.600000X0.600000X0.600000X-0.600000X0.600000X-0.600000X-0.600000X0*%
%ADD29RoundRect,0.500000X0.500000X0.900000X-0.500000X0.900000X-0.500000X-0.900000X0.500000X-0.900000X0*%
%ADD30C,0.650000*%
%ADD31O,2.100000X1.000000*%
%ADD32O,1.800000X1.000000*%
%ADD33R,2.000000X4.600000*%
%ADD34O,2.000000X4.200000*%
%ADD35O,4.200000X2.000000*%
%ADD36RoundRect,0.250001X-1.149999X-1.149999X1.149999X-1.149999X1.149999X1.149999X-1.149999X1.149999X0*%
%ADD37C,2.800000*%
%ADD38RoundRect,0.255000X-0.995000X-0.595000X0.995000X-0.595000X0.995000X0.595000X-0.995000X0.595000X0*%
%ADD39C,1.440000*%
%TA.AperFunction,Profile*%
%ADD40C,0.050000*%
%TD*%
G04 APERTURE END LIST*
D10*
%TO.C,J203*%
X176268080Y-88500000D03*
D11*
X173728080Y-88500000D03*
X171188080Y-88500000D03*
X168648080Y-88500000D03*
X166108080Y-88500000D03*
X163568080Y-88500000D03*
%TD*%
D10*
%TO.C,J501*%
X133380000Y-39250000D03*
D11*
X135920000Y-39250000D03*
X138460000Y-39250000D03*
X141000000Y-39250000D03*
%TD*%
D12*
%TO.C,H402*%
X188000000Y-28000000D03*
%TD*%
D13*
%TO.C,J302*%
X130112918Y-31039581D03*
D14*
X125112918Y-31039581D03*
%TD*%
D15*
%TO.C,TP203*%
X122500000Y-85400000D03*
%TD*%
D16*
%TO.C,U204*%
X65175000Y-91460000D03*
X65175000Y-94000000D03*
X65175000Y-96540000D03*
D17*
X55075000Y-90350000D03*
X55075000Y-97650000D03*
%TD*%
D18*
%TO.C,J102*%
X141160000Y-45885000D03*
D19*
X141160000Y-48425000D03*
X141160000Y-50965000D03*
X141160000Y-53505000D03*
X141160000Y-56045000D03*
X141160000Y-58585000D03*
X141160000Y-61125000D03*
X141160000Y-63665000D03*
X141160000Y-66205000D03*
X141160000Y-68745000D03*
X141160000Y-71285000D03*
X141160000Y-73825000D03*
X141160000Y-76365000D03*
X141160000Y-78905000D03*
X141160000Y-81445000D03*
X141160000Y-83985000D03*
X141160000Y-86525000D03*
X141160000Y-89065000D03*
X141160000Y-91605000D03*
X141160000Y-94145000D03*
X156400000Y-94145000D03*
X156400000Y-91605000D03*
X156400000Y-89065000D03*
X156400000Y-86525000D03*
X156400000Y-83985000D03*
X156400000Y-81445000D03*
X156400000Y-78905000D03*
X156400000Y-76365000D03*
X156400000Y-73825000D03*
X156400000Y-71285000D03*
X156400000Y-68745000D03*
X156400000Y-66205000D03*
X156400000Y-63665000D03*
X156400000Y-61125000D03*
X156400000Y-58585000D03*
X156400000Y-56045000D03*
X156400000Y-53505000D03*
X156400000Y-50965000D03*
X156400000Y-48425000D03*
X156400000Y-45885000D03*
%TD*%
D20*
%TO.C,L601*%
X56190000Y-53000000D03*
X63810000Y-53000000D03*
%TD*%
D15*
%TO.C,TP602*%
X90400000Y-47600000D03*
%TD*%
D21*
%TO.C,RL102*%
X121750000Y-43750000D03*
D22*
X106750000Y-43750000D03*
X101750000Y-43750000D03*
X96750000Y-43750000D03*
X96750000Y-51250000D03*
X101750000Y-51250000D03*
X106750000Y-51250000D03*
X121750000Y-51250000D03*
%TD*%
D23*
%TO.C,J407*%
X134346541Y-103638758D03*
D24*
X131846541Y-103638758D03*
X129346541Y-103638758D03*
X126846541Y-103638758D03*
X124346541Y-103638758D03*
%TD*%
D15*
%TO.C,TP112*%
X153293930Y-83561076D03*
%TD*%
%TO.C,TP103*%
X106250000Y-55500000D03*
%TD*%
D12*
%TO.C,H401*%
X58000000Y-28000000D03*
%TD*%
D25*
%TO.C,Q301*%
X108972918Y-28212081D03*
D26*
X111512918Y-28212081D03*
X114052918Y-28212081D03*
%TD*%
D15*
%TO.C,TP505*%
X131082282Y-55034255D03*
%TD*%
%TO.C,TP206*%
X114000000Y-98000000D03*
%TD*%
D27*
%TO.C,J101*%
X58640925Y-79979129D03*
D14*
X58640925Y-84979129D03*
%TD*%
D28*
%TO.C,J201*%
X91350000Y-93070000D03*
X93890000Y-93070000D03*
X96430000Y-93070000D03*
X98970000Y-93070000D03*
X91350000Y-75290000D03*
X93890000Y-75290000D03*
X96430000Y-75290000D03*
X98970000Y-75290000D03*
%TD*%
D23*
%TO.C,J401*%
X118379605Y-103638758D03*
D24*
X115879605Y-103638758D03*
X113379605Y-103638758D03*
X110879605Y-103638758D03*
%TD*%
D15*
%TO.C,TP111*%
X153293930Y-80811076D03*
%TD*%
%TO.C,TP601*%
X88300000Y-29062747D03*
%TD*%
%TO.C,TP113*%
X153293930Y-86311076D03*
%TD*%
%TO.C,TP204*%
X72750000Y-102250000D03*
%TD*%
%TO.C,TP302*%
X93903874Y-29062747D03*
%TD*%
%TO.C,TP502*%
X131082282Y-72034255D03*
%TD*%
D29*
%TO.C,F401*%
X178740000Y-27000000D03*
X173870000Y-26987500D03*
X163500000Y-27000000D03*
X158420000Y-27000000D03*
%TD*%
D15*
%TO.C,TP114*%
X153293930Y-89061076D03*
%TD*%
D30*
%TO.C,J402*%
X187910000Y-53515000D03*
X187910000Y-47735000D03*
D31*
X187350000Y-54945000D03*
D32*
X191530000Y-54945000D03*
D31*
X187350000Y-46305000D03*
D32*
X191530000Y-46305000D03*
%TD*%
D15*
%TO.C,TP401*%
X178200000Y-45500000D03*
%TD*%
%TO.C,TP403*%
X164800000Y-45900000D03*
%TD*%
D23*
%TO.C,J404*%
X176250000Y-72000000D03*
D24*
X173750000Y-72000000D03*
X171250000Y-72000000D03*
X168750000Y-72000000D03*
X166250000Y-72000000D03*
X163750000Y-72000000D03*
%TD*%
D12*
%TO.C,H403*%
X188000000Y-103000000D03*
%TD*%
D15*
%TO.C,TP115*%
X153293930Y-91811076D03*
%TD*%
D23*
%TO.C,J409*%
X176857088Y-103638758D03*
D24*
X174357088Y-103638758D03*
X171857088Y-103638758D03*
X169357088Y-103638758D03*
X166857088Y-103638758D03*
%TD*%
D15*
%TO.C,TP504*%
X133832282Y-55034255D03*
%TD*%
%TO.C,TP110*%
X138073930Y-81451076D03*
%TD*%
%TO.C,TP205*%
X72750000Y-98200000D03*
%TD*%
%TO.C,TP202*%
X101500000Y-81250000D03*
%TD*%
%TO.C,TP301*%
X91101937Y-29062747D03*
%TD*%
%TO.C,TP101*%
X108815000Y-55500000D03*
%TD*%
%TO.C,TP603*%
X86700000Y-35400000D03*
%TD*%
D23*
%TO.C,J408*%
X160857088Y-103638758D03*
D24*
X158357088Y-103638758D03*
X155857088Y-103638758D03*
X153357088Y-103638758D03*
X150857088Y-103638758D03*
X148357088Y-103638758D03*
X145857088Y-103638758D03*
X143357088Y-103638758D03*
X140857088Y-103638758D03*
%TD*%
D10*
%TO.C,J202*%
X88300000Y-104100000D03*
D11*
X85760000Y-104100000D03*
X83220000Y-104100000D03*
%TD*%
D15*
%TO.C,TP108*%
X159473930Y-58641076D03*
%TD*%
%TO.C,TP201*%
X91275000Y-90575000D03*
%TD*%
%TO.C,TP109*%
X159473930Y-61141076D03*
%TD*%
%TO.C,TP606*%
X80700000Y-62300000D03*
%TD*%
%TO.C,TP303*%
X99507747Y-29062747D03*
%TD*%
%TO.C,TP207*%
X122500000Y-89100000D03*
%TD*%
%TO.C,TP117*%
X153293930Y-94561076D03*
%TD*%
%TO.C,TP503*%
X121750000Y-72750000D03*
%TD*%
D23*
%TO.C,J406*%
X176250000Y-80250000D03*
D24*
X173750000Y-80250000D03*
X171250000Y-80250000D03*
X168750000Y-80250000D03*
X166250000Y-80250000D03*
X163750000Y-80250000D03*
%TD*%
D15*
%TO.C,TP604*%
X67255000Y-60250000D03*
%TD*%
%TO.C,TP104*%
X119750000Y-39000000D03*
%TD*%
%TO.C,TP605*%
X80700000Y-65100000D03*
%TD*%
D33*
%TO.C,J403*%
X183025735Y-38854186D03*
D34*
X189325735Y-38854186D03*
D35*
X185925735Y-34054186D03*
%TD*%
D15*
%TO.C,TP607*%
X64000000Y-29800000D03*
%TD*%
%TO.C,TP501*%
X133832282Y-72034255D03*
%TD*%
%TO.C,TP506*%
X121750000Y-55500000D03*
%TD*%
D36*
%TO.C,J301*%
X109507747Y-34657747D03*
D37*
X114507747Y-34657747D03*
%TD*%
D15*
%TO.C,TP116*%
X138100000Y-91600000D03*
%TD*%
%TO.C,TP304*%
X96705810Y-29062747D03*
%TD*%
%TO.C,TP402*%
X134400000Y-27500000D03*
%TD*%
D38*
%TO.C,J405*%
X158253819Y-33865093D03*
X173493819Y-33865093D03*
X158253819Y-42485093D03*
X173493819Y-42485093D03*
%TD*%
D10*
%TO.C,JP102*%
X75025000Y-82250000D03*
D11*
X72485000Y-82250000D03*
%TD*%
D12*
%TO.C,H404*%
X58000000Y-103000000D03*
%TD*%
D15*
%TO.C,TP105*%
X138073930Y-53551076D03*
%TD*%
D21*
%TO.C,RL101*%
X121750000Y-61000000D03*
D22*
X106750000Y-61000000D03*
X101750000Y-61000000D03*
X96750000Y-61000000D03*
X96750000Y-68500000D03*
X101750000Y-68500000D03*
X106750000Y-68500000D03*
X121750000Y-68500000D03*
%TD*%
D15*
%TO.C,TP106*%
X159473930Y-55891076D03*
%TD*%
D39*
%TO.C,RV601*%
X71365000Y-56390000D03*
X73905000Y-56390000D03*
X76445000Y-56390000D03*
%TD*%
D10*
%TO.C,J411*%
X183750000Y-77860000D03*
D11*
X183750000Y-80400000D03*
X183750000Y-82940000D03*
X183750000Y-85480000D03*
X183750000Y-88020000D03*
X183750000Y-90560000D03*
X183750000Y-93100000D03*
X183750000Y-95640000D03*
%TD*%
D15*
%TO.C,TP107*%
X138073930Y-56251076D03*
%TD*%
%TO.C,TP102*%
X104750000Y-72750000D03*
%TD*%
%TO.C,TP608*%
X63900000Y-73600000D03*
%TD*%
D40*
X53000000Y-103000000D02*
X53000000Y-28000000D01*
X53000000Y-28000000D02*
G75*
G02*
X58000000Y-23000000I5000000J0D01*
G01*
X58000000Y-108000000D02*
G75*
G02*
X53000000Y-103000000I0J5000000D01*
G01*
X188000000Y-108000000D02*
X58000000Y-108000000D01*
X193000000Y-28000000D02*
X193000000Y-103000000D01*
X58000000Y-23000000D02*
X188000000Y-23000000D01*
X188000000Y-23000000D02*
G75*
G02*
X193000000Y-28000000I0J-5000000D01*
G01*
X193000000Y-103000000D02*
G75*
G02*
X188000000Y-108000000I-5000000J0D01*
G01*
M02*
