M48
; DRILL file {KiCad 9.0.5} date 2025-12-08T19:50:28+0100
; FORMAT={-:-/ absolute / metric / decimal}
; #@! TF.CreationDate,2025-12-08T19:50:28+01:00
; #@! TF.GenerationSoftware,Kicad,Pcbnew,9.0.5
; #@! TF.FileFunction,Plated,1,2,PTH
FMAT,2
METRIC
; #@! TA.AperFunction,Plated,PTH,ViaDrill
T1C0.300
; #@! TA.AperFunction,Plated,PTH,ViaDrill
T2C0.400
; #@! TA.AperFunction,Plated,PTH,ComponentDrill
T3C0.600
; #@! TA.AperFunction,Plated,PTH,ComponentDrill
T4C0.700
; #@! TA.AperFunction,Plated,PTH,ComponentDrill
T5C0.800
; #@! TA.AperFunction,Plated,PTH,ComponentDrill
T6C0.950
; #@! TA.AperFunction,Plated,PTH,ComponentDrill
T7C1.000
; #@! TA.AperFunction,Plated,PTH,ComponentDrill
T8C1.100
; #@! TA.AperFunction,Plated,PTH,ComponentDrill
T9C1.200
; #@! TA.AperFunction,Plated,PTH,ComponentDrill
T10C1.300
; #@! TA.AperFunction,Plated,PTH,ComponentDrill
T11C1.500
; #@! TA.AperFunction,Plated,PTH,ComponentDrill
T12C3.200
%
G90
G05
T1
X59.6Y-74.4
X64.6Y-67.5
X69.3Y-67.7
X69.5Y-66.1
X70.3Y-70.5
X74.7Y-70.842
X74.96Y-69.06
X77.5Y-49.75
X78.75Y-49.75
X80.9Y-71.3
X81.5Y-66.6
X82.7Y-71.3
X87.5Y-82.6
X88.3Y-97.9
X88.9Y-65.5
X88.9Y-66.1
X88.9Y-66.7
X89.7Y-65.5
X89.7Y-66.1
X89.7Y-66.7
X90.35Y-82.15
X95.112Y-50.612
X95.612Y-50.112
X96.112Y-49.612
X99.1Y-83.7
X102.0Y-97.2
X104.3Y-91.2
X106.85Y-30.7
X108.75Y-33.25
X108.75Y-36.25
X109.5Y-33.25
X109.508Y-36.25
X110.25Y-33.25
X110.25Y-36.25
X111.3Y-93.2
X111.6Y-98.1
X136.3Y-75.2
X139.3Y-65.1
X139.3Y-70.5
X143.0Y-75.1
X143.5Y-91.3
X143.819Y-62.881
X144.6Y-69.4
X145.9Y-69.4
X147.0Y-69.4
X147.7Y-88.4
X148.3Y-69.4
X151.9Y-73.3
X160.8Y-45.3
X164.5Y-67.1
X164.7Y-38.6
X168.859Y-68.741
X175.7Y-27.0
X176.0Y-63.3
X177.1Y-27.0
X177.4Y-60.8
X179.4Y-72.2
T2
X54.3Y-77.5
X55.0Y-45.0
X55.0Y-47.5
X55.0Y-50.0
X55.0Y-57.5
X55.0Y-60.0
X55.0Y-95.0
X55.2Y-66.9
X55.25Y-35.0
X55.25Y-36.0
X55.25Y-40.0
X55.25Y-41.0
X56.25Y-35.0
X56.25Y-36.0
X56.25Y-40.0
X56.25Y-41.0
X57.25Y-35.0
X57.25Y-36.0
X57.25Y-40.0
X57.25Y-41.0
X57.471Y-44.969
X57.5Y-47.5
X57.5Y-57.5
X57.5Y-60.0
X58.25Y-35.0
X58.25Y-36.0
X58.25Y-40.0
X58.25Y-41.0
X58.358Y-91.858
X59.2Y-76.9
X60.0Y-35.0
X60.0Y-40.0
X60.0Y-45.0
X60.0Y-53.0
X60.0Y-55.0
X60.0Y-57.5
X60.0Y-60.0
X60.0Y-82.5
X61.059Y-92.068
X62.474Y-59.979
X62.5Y-50.2
X62.5Y-57.5
X63.4Y-61.7
X65.0Y-25.0
X65.0Y-34.5
X65.0Y-36.0
X65.0Y-47.5
X65.0Y-60.0
X66.25Y-72.9
X66.272Y-105.084
X67.5Y-32.625
X67.5Y-34.312
X67.5Y-36.0
X67.502Y-84.381
X67.546Y-78.587
X67.7Y-97.5
X68.25Y-27.416
X68.253Y-26.439
X69.0Y-39.4
X69.5Y-29.25
X69.5Y-30.938
X69.5Y-32.625
X69.5Y-34.312
X69.5Y-36.0
X69.581Y-102.372
X70.0Y-25.0
X70.0Y-39.4
X70.0Y-60.25
X70.7Y-96.6
X71.1Y-39.4
X71.311Y-84.428
X71.5Y-30.938
X71.5Y-32.625
X71.5Y-34.312
X71.5Y-36.0
X71.503Y-29.25
X72.2Y-76.3
X73.503Y-29.25
X74.9Y-65.3
X75.0Y-80.0
X75.1Y-48.5
X75.1Y-49.5
X75.1Y-50.5
X76.185Y-103.978
X76.3Y-73.8
X77.572Y-84.428
X78.2Y-71.0
X78.4Y-91.7
X80.0Y-57.5
X80.0Y-60.0
X80.0Y-75.0
X80.167Y-83.286
X81.0Y-89.0
X81.0Y-91.0
X82.4Y-25.2
X82.4Y-26.2
X82.476Y-80.905
X82.5Y-57.5
X82.5Y-60.0
X82.75Y-31.25
X82.75Y-32.25
X82.75Y-33.25
X83.4Y-25.2
X83.4Y-26.2
X83.75Y-31.25
X83.75Y-32.25
X83.75Y-33.25
X83.778Y-63.391
X84.0Y-91.0
X84.0Y-94.0
X84.2Y-60.1
X84.2Y-61.2
X84.2Y-62.2
X84.4Y-25.2
X84.4Y-26.2
X84.8Y-31.2
X84.8Y-32.3
X84.833Y-78.596
X85.0Y-30.0
X85.3Y-62.2
X85.643Y-41.125
X85.674Y-43.637
X86.3Y-62.2
X87.3Y-62.2
X87.5Y-90.8
X87.523Y-94.016
X88.3Y-60.1
X88.3Y-61.2
X88.3Y-62.2
X88.571Y-75.977
X88.65Y-51.45
X88.783Y-63.508
X89.25Y-50.75
X89.35Y-52.25
X89.4Y-35.3
X89.9Y-88.5
X89.95Y-51.55
X90.0Y-57.5
X90.0Y-96.0
X90.0Y-101.0
X90.15Y-53.05
X90.75Y-52.25
X93.0Y-96.0
X93.0Y-101.0
X93.0Y-104.0
X96.0Y-98.0
X96.0Y-101.0
X96.0Y-104.0
X97.0Y-35.5
X97.0Y-83.0
X97.0Y-88.7
X99.0Y-81.0
X99.0Y-95.0
X99.0Y-101.0
X99.0Y-104.0
X100.0Y-64.3
X100.0Y-91.0
X101.3Y-84.1
X102.0Y-89.0
X102.0Y-101.0
X102.0Y-104.0
X104.3Y-79.0
X105.0Y-47.5
X106.3Y-78.8
X106.3Y-90.8
X110.0Y-40.0
X110.0Y-45.0
X110.0Y-50.0
X110.3Y-79.1
X110.3Y-87.1
X110.9Y-100.7
X113.4Y-86.7
X113.4Y-100.6
X115.0Y-40.0
X115.0Y-45.0
X115.0Y-50.0
X115.0Y-55.0
X115.0Y-60.0
X115.0Y-65.0
X115.0Y-70.0
X115.0Y-75.0
X118.0Y-96.0
X119.5Y-87.9
X119.8Y-78.9
X119.8Y-95.6
X120.0Y-30.0
X120.0Y-35.0
X123.0Y-76.5
X123.0Y-79.0
X124.3Y-106.7
X124.5Y-56.5
X125.0Y-35.0
X125.0Y-45.0
X126.4Y-100.1
X127.0Y-92.0
X127.5Y-72.5
X127.5Y-76.5
X127.5Y-79.0
X128.0Y-56.5
X130.0Y-35.0
X130.0Y-84.0
X130.4Y-49.5
X130.4Y-100.1
X130.5Y-66.5
X131.0Y-88.0
X131.8Y-64.4
X131.841Y-47.413
X132.0Y-82.0
X132.5Y-56.5
X132.5Y-90.0
X134.0Y-80.0
X134.4Y-100.0
X135.0Y-45.0
X135.0Y-52.5
X135.0Y-85.0
X135.0Y-87.5
X135.0Y-90.0
X135.912Y-41.385
X136.0Y-78.0
X136.5Y-61.0
X137.0Y-36.3
X137.0Y-83.0
X137.0Y-85.0
X137.5Y-67.5
X137.5Y-95.0
X139.0Y-75.0
X139.0Y-83.0
X139.0Y-85.0
X140.0Y-42.5
X140.851Y-101.172
X142.723Y-42.5
X142.797Y-52.231
X143.17Y-68.89
X145.9Y-29.0
X146.0Y-38.0
X146.0Y-42.0
X146.0Y-47.0
X146.0Y-51.0
X146.0Y-54.5
X149.0Y-29.0
X149.0Y-38.0
X149.0Y-42.0
X149.0Y-47.0
X149.746Y-66.0
X150.0Y-99.0
X150.5Y-59.262
X152.5Y-51.0
X153.0Y-97.0
X153.0Y-99.0
X153.535Y-65.788
X153.597Y-78.308
X153.618Y-76.193
X154.0Y-56.0
X154.0Y-62.0
X154.254Y-42.913
X154.316Y-40.527
X154.487Y-29.29
X155.39Y-27.485
X155.49Y-26.485
X155.981Y-43.039
X156.0Y-40.4
X156.064Y-35.682
X156.49Y-26.485
X156.49Y-27.485
X156.539Y-29.304
X156.567Y-30.839
X157.378Y-35.67
X158.004Y-31.286
X158.018Y-29.946
X158.2Y-44.8
X158.3Y-98.6
X158.564Y-35.642
X158.8Y-46.8
X159.2Y-49.9
X159.372Y-31.049
X159.6Y-32.2
X159.7Y-35.7
X160.19Y-26.485
X160.19Y-27.485
X160.2Y-48.2
X161.0Y-92.0
X161.0Y-96.0
X161.0Y-100.0
X161.661Y-51.591
X161.79Y-26.485
X161.79Y-27.485
X161.8Y-49.8
X162.0Y-56.0
X162.0Y-59.0
X162.3Y-40.1
X164.0Y-42.2
X164.0Y-43.8
X164.0Y-63.0
X164.968Y-51.591
X165.0Y-50.2
X165.0Y-56.0
X165.0Y-59.0
X165.0Y-92.0
X165.0Y-96.0
X165.0Y-100.0
X165.4Y-40.8
X165.4Y-42.2
X165.4Y-43.8
X166.5Y-31.0
X166.524Y-77.833
X166.595Y-83.88
X166.8Y-40.8
X166.8Y-43.8
X167.0Y-45.4
X167.6Y-47.2
X168.0Y-56.0
X168.0Y-59.0
X168.4Y-50.2
X168.415Y-51.535
X169.0Y-92.0
X169.0Y-96.0
X169.0Y-100.0
X170.5Y-51.3
X171.2Y-65.1
X171.4Y-67.6
X171.7Y-58.5
X171.769Y-62.369
X172.5Y-40.0
X173.0Y-31.0
X173.0Y-60.0
X173.0Y-92.0
X173.0Y-96.0
X173.0Y-100.0
X173.705Y-65.295
X174.0Y-56.0
X174.4Y-45.2
X174.4Y-46.523
X175.0Y-37.5
X175.0Y-40.0
X175.6Y-47.6
X175.6Y-48.8
X177.0Y-56.0
X177.0Y-92.0
X177.0Y-96.0
X177.0Y-100.0
X177.5Y-37.5
X177.5Y-40.0
X177.5Y-42.0
X177.6Y-64.3
X178.058Y-48.481
X179.0Y-53.0
X179.213Y-66.605
X180.499Y-68.855
X180.6Y-46.1
X180.6Y-54.9
X181.0Y-96.0
X181.0Y-100.0
X181.4Y-48.4
X182.825Y-44.425
X185.0Y-72.5
X185.0Y-75.0
X187.225Y-44.475
X190.0Y-72.5
X190.0Y-75.0
T4
X63.9Y-73.6
X64.0Y-29.8
X67.255Y-60.25
X72.75Y-98.2
X72.75Y-102.25
X80.7Y-62.3
X80.7Y-65.1
X86.7Y-35.4
X88.3Y-29.063
X90.4Y-47.6
X91.102Y-29.063
X91.275Y-90.575
X93.904Y-29.063
X96.706Y-29.063
X99.508Y-29.063
X101.5Y-81.25
X104.75Y-72.75
X106.25Y-55.5
X108.815Y-55.5
X114.0Y-98.0
X119.75Y-39.0
X121.75Y-55.5
X121.75Y-72.75
X122.5Y-85.4
X122.5Y-89.1
X131.082Y-55.034
X131.082Y-72.034
X133.832Y-55.034
X133.832Y-72.034
X134.4Y-27.5
X138.074Y-53.551
X138.074Y-56.251
X138.074Y-81.451
X138.1Y-91.6
X153.294Y-80.811
X153.294Y-83.561
X153.294Y-86.311
X153.294Y-89.061
X153.294Y-91.811
X153.294Y-94.561
X159.474Y-55.891
X159.474Y-58.641
X159.474Y-61.141
X164.8Y-45.9
X178.2Y-45.5
T5
X65.175Y-91.46
X65.175Y-94.0
X65.175Y-96.54
X71.365Y-56.39
X73.905Y-56.39
X76.445Y-56.39
T6
X110.88Y-103.639
X113.38Y-103.639
X115.88Y-103.639
X118.38Y-103.639
X124.347Y-103.639
X126.847Y-103.639
X129.347Y-103.639
X131.847Y-103.639
X134.347Y-103.639
X140.857Y-103.639
X143.357Y-103.639
X145.857Y-103.639
X148.357Y-103.639
X150.857Y-103.639
X153.357Y-103.639
X155.857Y-103.639
X158.357Y-103.639
X160.857Y-103.639
X163.75Y-72.0
X163.75Y-80.25
X166.25Y-72.0
X166.25Y-80.25
X166.857Y-103.639
X168.75Y-72.0
X168.75Y-80.25
X169.357Y-103.639
X171.25Y-72.0
X171.25Y-80.25
X171.857Y-103.639
X173.75Y-72.0
X173.75Y-80.25
X174.357Y-103.639
X176.25Y-72.0
X176.25Y-80.25
X176.857Y-103.639
T7
X72.485Y-82.25
X75.025Y-82.25
X83.22Y-104.1
X85.76Y-104.1
X88.3Y-104.1
X91.35Y-75.29
X91.35Y-93.07
X93.89Y-75.29
X93.89Y-93.07
X96.43Y-75.29
X96.43Y-93.07
X98.97Y-75.29
X98.97Y-93.07
X133.38Y-39.25
X135.92Y-39.25
X138.46Y-39.25
X141.0Y-39.25
X141.16Y-45.885
X141.16Y-48.425
X141.16Y-50.965
X141.16Y-53.505
X141.16Y-56.045
X141.16Y-58.585
X141.16Y-61.125
X141.16Y-63.665
X141.16Y-66.205
X141.16Y-68.745
X141.16Y-71.285
X141.16Y-73.825
X141.16Y-76.365
X141.16Y-78.905
X141.16Y-81.445
X141.16Y-83.985
X141.16Y-86.525
X141.16Y-89.065
X141.16Y-91.605
X141.16Y-94.145
X156.4Y-45.885
X156.4Y-48.425
X156.4Y-50.965
X156.4Y-53.505
X156.4Y-56.045
X156.4Y-58.585
X156.4Y-61.125
X156.4Y-63.665
X156.4Y-66.205
X156.4Y-68.745
X156.4Y-71.285
X156.4Y-73.825
X156.4Y-76.365
X156.4Y-78.905
X156.4Y-81.445
X156.4Y-83.985
X156.4Y-86.525
X156.4Y-89.065
X156.4Y-91.605
X156.4Y-94.145
X158.254Y-33.865
X158.254Y-42.485
X163.568Y-88.5
X166.108Y-88.5
X168.648Y-88.5
X171.188Y-88.5
X173.494Y-33.865
X173.494Y-42.485
X173.728Y-88.5
X176.268Y-88.5
X183.75Y-77.86
X183.75Y-80.4
X183.75Y-82.94
X183.75Y-85.48
X183.75Y-88.02
X183.75Y-90.56
X183.75Y-93.1
X183.75Y-95.64
T8
X108.973Y-28.212
X111.513Y-28.212
X114.053Y-28.212
T9
X55.075Y-90.35
X55.075Y-97.65
T10
X58.641Y-79.979
X58.641Y-84.979
X109.508Y-34.658
X114.508Y-34.658
X125.113Y-31.04
X130.113Y-31.04
T11
X56.19Y-53.0
X63.81Y-53.0
X96.75Y-43.75
X96.75Y-51.25
X96.75Y-61.0
X96.75Y-68.5
X101.75Y-43.75
X101.75Y-51.25
X101.75Y-61.0
X101.75Y-68.5
X106.75Y-43.75
X106.75Y-51.25
X106.75Y-61.0
X106.75Y-68.5
X121.75Y-43.75
X121.75Y-51.25
X121.75Y-61.0
X121.75Y-68.5
T12
X58.0Y-28.0
X58.0Y-103.0
X188.0Y-28.0
X188.0Y-103.0
T3
G00X186.8Y-46.305
M15
G01X187.9Y-46.305
M16
G05
G00X186.8Y-54.945
M15
G01X187.9Y-54.945
M16
G05
G00X191.13Y-46.305
M15
G01X191.93Y-46.305
M16
G05
G00X191.13Y-54.945
M15
G01X191.93Y-54.945
M16
G05
T7
G00X158.42Y-27.4
M15
G01X158.42Y-26.6
M16
G05
G00X163.5Y-27.4
M15
G01X163.5Y-26.6
M16
G05
G00X173.87Y-27.387
M15
G01X173.87Y-26.587
M16
G05
G00X178.74Y-27.4
M15
G01X178.74Y-26.6
M16
G05
G00X183.026Y-40.154
M15
G01X183.026Y-37.554
M16
G05
G00X184.826Y-34.054
M15
G01X187.026Y-34.054
M16
G05
G00X189.326Y-39.954
M15
G01X189.326Y-37.754
M16
G05
M30
