%TF.GenerationSoftware,KiCad,Pcbnew,9.0.5*%
%TF.CreationDate,2025-12-08T19:50:26+01:00*%
%TF.ProjectId,inz,696e7a2e-6b69-4636-9164-5f7063625858,rev?*%
%TF.SameCoordinates,Original*%
%TF.FileFunction,AssemblyDrawing,Bot*%
%FSLAX46Y46*%
G04 Gerber Fmt 4.6, Leading zero omitted, Abs format (unit mm)*
G04 Created by KiCad (PCBNEW 9.0.5) date 2025-12-08 19:50:26*
%MOMM*%
%LPD*%
G01*
G04 APERTURE LIST*
%ADD10C,0.047222*%
%ADD11C,0.100000*%
%ADD12C,0.177778*%
%ADD13C,0.072222*%
%ADD14C,0.100000*%
%TD*%
%ADD15C,0.041667*%
%ADD16C,0.055556*%
%ADD17C,0.044444*%
%ADD18C,0.083333*%
%ADD19C,0.069444*%
%ADD20C,0.054167*%
%ADD21C,0.052917*%
%ADD22C,0.077778*%
%ADD23C,0.058333*%
%ADD24C,0.050000*%
%ADD25C,0.127778*%
%ADD26C,0.116667*%
%ADD27C,0.040000*%
%TA.AperFunction,Profile*%
%ADD28C,0.050000*%
%TD*%
G04 APERTURE END LIST*
D10*
X176429984Y-88759695D02*
X176106175Y-88759695D01*
X176268079Y-88759695D02*
X176268079Y-88193029D01*
X176268079Y-88193029D02*
X176214111Y-88273981D01*
X176214111Y-88273981D02*
X176160143Y-88327949D01*
X176160143Y-88327949D02*
X176106175Y-88354933D01*
D11*
%TO.C,J203*%
X175418080Y-87650000D02*
X175418080Y-89350000D01*
X177118080Y-89350000D01*
X177118080Y-87650000D01*
X175418080Y-87650000D01*
D10*
X173566175Y-88246997D02*
X173593159Y-88220013D01*
X173593159Y-88220013D02*
X173647127Y-88193029D01*
X173647127Y-88193029D02*
X173782048Y-88193029D01*
X173782048Y-88193029D02*
X173836016Y-88220013D01*
X173836016Y-88220013D02*
X173863000Y-88246997D01*
X173863000Y-88246997D02*
X173889984Y-88300965D01*
X173889984Y-88300965D02*
X173889984Y-88354933D01*
X173889984Y-88354933D02*
X173863000Y-88435885D01*
X173863000Y-88435885D02*
X173539191Y-88759695D01*
X173539191Y-88759695D02*
X173889984Y-88759695D01*
D11*
X174578080Y-88500000D02*
G75*
G02*
X172878080Y-88500000I-850000J0D01*
G01*
X172878080Y-88500000D02*
G75*
G02*
X174578080Y-88500000I850000J0D01*
G01*
D10*
X170999191Y-88193029D02*
X171349984Y-88193029D01*
X171349984Y-88193029D02*
X171161095Y-88408901D01*
X171161095Y-88408901D02*
X171242048Y-88408901D01*
X171242048Y-88408901D02*
X171296016Y-88435885D01*
X171296016Y-88435885D02*
X171323000Y-88462870D01*
X171323000Y-88462870D02*
X171349984Y-88516838D01*
X171349984Y-88516838D02*
X171349984Y-88651758D01*
X171349984Y-88651758D02*
X171323000Y-88705726D01*
X171323000Y-88705726D02*
X171296016Y-88732711D01*
X171296016Y-88732711D02*
X171242048Y-88759695D01*
X171242048Y-88759695D02*
X171080143Y-88759695D01*
X171080143Y-88759695D02*
X171026175Y-88732711D01*
X171026175Y-88732711D02*
X170999191Y-88705726D01*
D11*
X172038080Y-88500000D02*
G75*
G02*
X170338080Y-88500000I-850000J0D01*
G01*
X170338080Y-88500000D02*
G75*
G02*
X172038080Y-88500000I850000J0D01*
G01*
D10*
X168756016Y-88381917D02*
X168756016Y-88759695D01*
X168621095Y-88166045D02*
X168486175Y-88570806D01*
X168486175Y-88570806D02*
X168836968Y-88570806D01*
D11*
X169498080Y-88500000D02*
G75*
G02*
X167798080Y-88500000I-850000J0D01*
G01*
X167798080Y-88500000D02*
G75*
G02*
X169498080Y-88500000I850000J0D01*
G01*
D10*
X166243000Y-88193029D02*
X165973159Y-88193029D01*
X165973159Y-88193029D02*
X165946175Y-88462870D01*
X165946175Y-88462870D02*
X165973159Y-88435885D01*
X165973159Y-88435885D02*
X166027127Y-88408901D01*
X166027127Y-88408901D02*
X166162048Y-88408901D01*
X166162048Y-88408901D02*
X166216016Y-88435885D01*
X166216016Y-88435885D02*
X166243000Y-88462870D01*
X166243000Y-88462870D02*
X166269984Y-88516838D01*
X166269984Y-88516838D02*
X166269984Y-88651758D01*
X166269984Y-88651758D02*
X166243000Y-88705726D01*
X166243000Y-88705726D02*
X166216016Y-88732711D01*
X166216016Y-88732711D02*
X166162048Y-88759695D01*
X166162048Y-88759695D02*
X166027127Y-88759695D01*
X166027127Y-88759695D02*
X165973159Y-88732711D01*
X165973159Y-88732711D02*
X165946175Y-88705726D01*
D11*
X166958080Y-88500000D02*
G75*
G02*
X165258080Y-88500000I-850000J0D01*
G01*
X165258080Y-88500000D02*
G75*
G02*
X166958080Y-88500000I850000J0D01*
G01*
D10*
X163676016Y-88193029D02*
X163568079Y-88193029D01*
X163568079Y-88193029D02*
X163514111Y-88220013D01*
X163514111Y-88220013D02*
X163487127Y-88246997D01*
X163487127Y-88246997D02*
X163433159Y-88327949D01*
X163433159Y-88327949D02*
X163406175Y-88435885D01*
X163406175Y-88435885D02*
X163406175Y-88651758D01*
X163406175Y-88651758D02*
X163433159Y-88705726D01*
X163433159Y-88705726D02*
X163460143Y-88732711D01*
X163460143Y-88732711D02*
X163514111Y-88759695D01*
X163514111Y-88759695D02*
X163622048Y-88759695D01*
X163622048Y-88759695D02*
X163676016Y-88732711D01*
X163676016Y-88732711D02*
X163703000Y-88705726D01*
X163703000Y-88705726D02*
X163729984Y-88651758D01*
X163729984Y-88651758D02*
X163729984Y-88516838D01*
X163729984Y-88516838D02*
X163703000Y-88462870D01*
X163703000Y-88462870D02*
X163676016Y-88435885D01*
X163676016Y-88435885D02*
X163622048Y-88408901D01*
X163622048Y-88408901D02*
X163514111Y-88408901D01*
X163514111Y-88408901D02*
X163460143Y-88435885D01*
X163460143Y-88435885D02*
X163433159Y-88462870D01*
X163433159Y-88462870D02*
X163406175Y-88516838D01*
D11*
X164418080Y-88500000D02*
G75*
G02*
X162718080Y-88500000I-850000J0D01*
G01*
X162718080Y-88500000D02*
G75*
G02*
X164418080Y-88500000I850000J0D01*
G01*
%TD*%
D10*
X133541904Y-39509695D02*
X133218095Y-39509695D01*
X133379999Y-39509695D02*
X133379999Y-38943029D01*
X133379999Y-38943029D02*
X133326031Y-39023981D01*
X133326031Y-39023981D02*
X133272063Y-39077949D01*
X133272063Y-39077949D02*
X133218095Y-39104933D01*
D11*
%TO.C,J501*%
X132530000Y-38400000D02*
X132530000Y-40100000D01*
X134230000Y-40100000D01*
X134230000Y-38400000D01*
X132530000Y-38400000D01*
D10*
X135758095Y-38996997D02*
X135785079Y-38970013D01*
X135785079Y-38970013D02*
X135839047Y-38943029D01*
X135839047Y-38943029D02*
X135973968Y-38943029D01*
X135973968Y-38943029D02*
X136027936Y-38970013D01*
X136027936Y-38970013D02*
X136054920Y-38996997D01*
X136054920Y-38996997D02*
X136081904Y-39050965D01*
X136081904Y-39050965D02*
X136081904Y-39104933D01*
X136081904Y-39104933D02*
X136054920Y-39185885D01*
X136054920Y-39185885D02*
X135731111Y-39509695D01*
X135731111Y-39509695D02*
X136081904Y-39509695D01*
D11*
X136770000Y-39250000D02*
G75*
G02*
X135070000Y-39250000I-850000J0D01*
G01*
X135070000Y-39250000D02*
G75*
G02*
X136770000Y-39250000I850000J0D01*
G01*
D10*
X138271111Y-38943029D02*
X138621904Y-38943029D01*
X138621904Y-38943029D02*
X138433015Y-39158901D01*
X138433015Y-39158901D02*
X138513968Y-39158901D01*
X138513968Y-39158901D02*
X138567936Y-39185885D01*
X138567936Y-39185885D02*
X138594920Y-39212870D01*
X138594920Y-39212870D02*
X138621904Y-39266838D01*
X138621904Y-39266838D02*
X138621904Y-39401758D01*
X138621904Y-39401758D02*
X138594920Y-39455726D01*
X138594920Y-39455726D02*
X138567936Y-39482711D01*
X138567936Y-39482711D02*
X138513968Y-39509695D01*
X138513968Y-39509695D02*
X138352063Y-39509695D01*
X138352063Y-39509695D02*
X138298095Y-39482711D01*
X138298095Y-39482711D02*
X138271111Y-39455726D01*
D11*
X139310000Y-39250000D02*
G75*
G02*
X137610000Y-39250000I-850000J0D01*
G01*
X137610000Y-39250000D02*
G75*
G02*
X139310000Y-39250000I850000J0D01*
G01*
D10*
X141107936Y-39131917D02*
X141107936Y-39509695D01*
X140973015Y-38916045D02*
X140838095Y-39320806D01*
X140838095Y-39320806D02*
X141188888Y-39320806D01*
D11*
X141850000Y-39250000D02*
G75*
G02*
X140150000Y-39250000I-850000J0D01*
G01*
X140150000Y-39250000D02*
G75*
G02*
X141850000Y-39250000I850000J0D01*
G01*
%TD*%
D12*
X188609523Y-28977676D02*
X187390476Y-28977676D01*
X187999999Y-28977676D02*
X187999999Y-26844343D01*
X187999999Y-26844343D02*
X187796825Y-27149105D01*
X187796825Y-27149105D02*
X187593650Y-27352279D01*
X187593650Y-27352279D02*
X187390476Y-27453867D01*
D11*
%TO.C,H402*%
X191200000Y-28000000D02*
G75*
G02*
X184800000Y-28000000I-3200000J0D01*
G01*
X184800000Y-28000000D02*
G75*
G02*
X191200000Y-28000000I3200000J0D01*
G01*
%TD*%
D13*
X130360536Y-31436761D02*
X129865299Y-31436761D01*
X130112918Y-31436761D02*
X130112918Y-30570095D01*
X130112918Y-30570095D02*
X130030378Y-30693905D01*
X130030378Y-30693905D02*
X129947838Y-30776444D01*
X129947838Y-30776444D02*
X129865299Y-30817714D01*
D11*
D14*
%TO.C,J302*%
D11*
X131412918Y-32089581D02*
X131393888Y-32185252D01*
X131339695Y-32266358D01*
X131258589Y-32320551D01*
X131162918Y-32339581D01*
X129062918Y-32339581D01*
X128967247Y-32320551D01*
X128886141Y-32266358D01*
X128831948Y-32185252D01*
X128812918Y-32089581D01*
X128812918Y-29989581D01*
X128831948Y-29893910D01*
X128886141Y-29812804D01*
X128967247Y-29758611D01*
X129062918Y-29739581D01*
X131162918Y-29739581D01*
X131258589Y-29758611D01*
X131339695Y-29812804D01*
X131393888Y-29893910D01*
X131412918Y-29989581D01*
X131412918Y-32089581D01*
D13*
X124865299Y-30652635D02*
X124906569Y-30611365D01*
X124906569Y-30611365D02*
X124989108Y-30570095D01*
X124989108Y-30570095D02*
X125195457Y-30570095D01*
X125195457Y-30570095D02*
X125277997Y-30611365D01*
X125277997Y-30611365D02*
X125319267Y-30652635D01*
X125319267Y-30652635D02*
X125360536Y-30735175D01*
X125360536Y-30735175D02*
X125360536Y-30817714D01*
X125360536Y-30817714D02*
X125319267Y-30941524D01*
X125319267Y-30941524D02*
X124824029Y-31436761D01*
X124824029Y-31436761D02*
X125360536Y-31436761D01*
D11*
X126412918Y-31039581D02*
G75*
G02*
X123812918Y-31039581I-1300000J0D01*
G01*
X123812918Y-31039581D02*
G75*
G02*
X126412918Y-31039581I1300000J0D01*
G01*
%TD*%
D15*
X122642857Y-85629142D02*
X122357143Y-85629142D01*
X122500000Y-85629142D02*
X122500000Y-85129142D01*
X122500000Y-85129142D02*
X122452381Y-85200571D01*
X122452381Y-85200571D02*
X122404762Y-85248190D01*
X122404762Y-85248190D02*
X122357143Y-85271999D01*
D11*
%TO.C,TP203*%
X123250000Y-85400000D02*
G75*
G02*
X121750000Y-85400000I-750000J0D01*
G01*
X121750000Y-85400000D02*
G75*
G02*
X123250000Y-85400000I750000J0D01*
G01*
%TD*%
D15*
X65317857Y-91689142D02*
X65032143Y-91689142D01*
X65175000Y-91689142D02*
X65175000Y-91189142D01*
X65175000Y-91189142D02*
X65127381Y-91260571D01*
X65127381Y-91260571D02*
X65079762Y-91308190D01*
X65079762Y-91308190D02*
X65032143Y-91331999D01*
D11*
D14*
%TO.C,U204*%
D11*
X64425000Y-90935000D02*
X64442127Y-90848896D01*
X64490901Y-90775901D01*
X64563896Y-90727127D01*
X64650000Y-90710000D01*
X65700000Y-90710000D01*
X65786104Y-90727127D01*
X65859099Y-90775901D01*
X65907873Y-90848896D01*
X65925000Y-90935000D01*
X65925000Y-91985000D01*
X65907873Y-92071104D01*
X65859099Y-92144099D01*
X65786104Y-92192873D01*
X65700000Y-92210000D01*
X64650000Y-92210000D01*
X64563896Y-92192873D01*
X64490901Y-92144099D01*
X64442127Y-92071104D01*
X64425000Y-91985000D01*
X64425000Y-90935000D01*
D15*
X65032143Y-93776761D02*
X65055952Y-93752952D01*
X65055952Y-93752952D02*
X65103571Y-93729142D01*
X65103571Y-93729142D02*
X65222619Y-93729142D01*
X65222619Y-93729142D02*
X65270238Y-93752952D01*
X65270238Y-93752952D02*
X65294047Y-93776761D01*
X65294047Y-93776761D02*
X65317857Y-93824380D01*
X65317857Y-93824380D02*
X65317857Y-93871999D01*
X65317857Y-93871999D02*
X65294047Y-93943428D01*
X65294047Y-93943428D02*
X65008333Y-94229142D01*
X65008333Y-94229142D02*
X65317857Y-94229142D01*
D11*
D14*
D11*
X64425000Y-93475000D02*
X64442127Y-93388896D01*
X64490901Y-93315901D01*
X64563896Y-93267127D01*
X64650000Y-93250000D01*
X65700000Y-93250000D01*
X65786104Y-93267127D01*
X65859099Y-93315901D01*
X65907873Y-93388896D01*
X65925000Y-93475000D01*
X65925000Y-94525000D01*
X65907873Y-94611104D01*
X65859099Y-94684099D01*
X65786104Y-94732873D01*
X65700000Y-94750000D01*
X64650000Y-94750000D01*
X64563896Y-94732873D01*
X64490901Y-94684099D01*
X64442127Y-94611104D01*
X64425000Y-94525000D01*
X64425000Y-93475000D01*
D15*
X65008333Y-96269142D02*
X65317857Y-96269142D01*
X65317857Y-96269142D02*
X65151190Y-96459618D01*
X65151190Y-96459618D02*
X65222619Y-96459618D01*
X65222619Y-96459618D02*
X65270238Y-96483428D01*
X65270238Y-96483428D02*
X65294047Y-96507237D01*
X65294047Y-96507237D02*
X65317857Y-96554856D01*
X65317857Y-96554856D02*
X65317857Y-96673904D01*
X65317857Y-96673904D02*
X65294047Y-96721523D01*
X65294047Y-96721523D02*
X65270238Y-96745333D01*
X65270238Y-96745333D02*
X65222619Y-96769142D01*
X65222619Y-96769142D02*
X65079762Y-96769142D01*
X65079762Y-96769142D02*
X65032143Y-96745333D01*
X65032143Y-96745333D02*
X65008333Y-96721523D01*
D11*
D14*
D11*
X64425000Y-96015000D02*
X64442127Y-95928896D01*
X64490901Y-95855901D01*
X64563896Y-95807127D01*
X64650000Y-95790000D01*
X65700000Y-95790000D01*
X65786104Y-95807127D01*
X65859099Y-95855901D01*
X65907873Y-95928896D01*
X65925000Y-96015000D01*
X65925000Y-97065000D01*
X65907873Y-97151104D01*
X65859099Y-97224099D01*
X65786104Y-97272873D01*
X65700000Y-97290000D01*
X64650000Y-97290000D01*
X64563896Y-97272873D01*
X64490901Y-97224099D01*
X64442127Y-97151104D01*
X64425000Y-97065000D01*
X64425000Y-96015000D01*
D16*
X55201984Y-90211080D02*
X55201984Y-90655524D01*
X55043254Y-89957112D02*
X54884524Y-90433302D01*
X54884524Y-90433302D02*
X55297222Y-90433302D01*
D11*
D14*
D11*
X54075000Y-89650000D02*
X54082969Y-89581315D01*
X54127501Y-89480459D01*
X54205459Y-89402501D01*
X54306315Y-89357969D01*
X54375000Y-89350000D01*
X55775000Y-89350000D01*
X55843685Y-89357969D01*
X55944541Y-89402501D01*
X56022499Y-89480459D01*
X56067031Y-89581315D01*
X56075000Y-89650000D01*
X56075000Y-91050000D01*
X56067031Y-91118685D01*
X56022499Y-91219541D01*
X55944541Y-91297499D01*
X55843685Y-91342031D01*
X55775000Y-91350000D01*
X54375000Y-91350000D01*
X54306315Y-91342031D01*
X54205459Y-91297499D01*
X54127501Y-91219541D01*
X54082969Y-91118685D01*
X54075000Y-91050000D01*
X54075000Y-89650000D01*
D16*
X55201984Y-97511080D02*
X55201984Y-97955524D01*
X55043254Y-97257112D02*
X54884524Y-97733302D01*
X54884524Y-97733302D02*
X55297222Y-97733302D01*
D11*
D14*
D11*
X54075000Y-96950000D02*
X54082969Y-96881315D01*
X54127501Y-96780459D01*
X54205459Y-96702501D01*
X54306315Y-96657969D01*
X54375000Y-96650000D01*
X55775000Y-96650000D01*
X55843685Y-96657969D01*
X55944541Y-96702501D01*
X56022499Y-96780459D01*
X56067031Y-96881315D01*
X56075000Y-96950000D01*
X56075000Y-98350000D01*
X56067031Y-98418685D01*
X56022499Y-98519541D01*
X55944541Y-98597499D01*
X55843685Y-98642031D01*
X55775000Y-98650000D01*
X54375000Y-98650000D01*
X54306315Y-98642031D01*
X54205459Y-98597499D01*
X54127501Y-98519541D01*
X54082969Y-98418685D01*
X54075000Y-98350000D01*
X54075000Y-96950000D01*
%TD*%
D17*
X141312380Y-46129418D02*
X141007619Y-46129418D01*
X141160000Y-46129418D02*
X141160000Y-45596085D01*
X141160000Y-45596085D02*
X141109206Y-45672276D01*
X141109206Y-45672276D02*
X141058412Y-45723069D01*
X141058412Y-45723069D02*
X141007619Y-45748466D01*
D11*
D14*
%TO.C,J102*%
D11*
X140360000Y-45335000D02*
X140379030Y-45239329D01*
X140433223Y-45158223D01*
X140514329Y-45104030D01*
X140610000Y-45085000D01*
X141710000Y-45085000D01*
X141805671Y-45104030D01*
X141886777Y-45158223D01*
X141940970Y-45239329D01*
X141960000Y-45335000D01*
X141960000Y-46435000D01*
X141940970Y-46530671D01*
X141886777Y-46611777D01*
X141805671Y-46665970D01*
X141710000Y-46685000D01*
X140610000Y-46685000D01*
X140514329Y-46665970D01*
X140433223Y-46611777D01*
X140379030Y-46530671D01*
X140360000Y-46435000D01*
X140360000Y-45335000D01*
D17*
X141007619Y-48186879D02*
X141033016Y-48161482D01*
X141033016Y-48161482D02*
X141083809Y-48136085D01*
X141083809Y-48136085D02*
X141210793Y-48136085D01*
X141210793Y-48136085D02*
X141261587Y-48161482D01*
X141261587Y-48161482D02*
X141286984Y-48186879D01*
X141286984Y-48186879D02*
X141312380Y-48237673D01*
X141312380Y-48237673D02*
X141312380Y-48288466D01*
X141312380Y-48288466D02*
X141286984Y-48364657D01*
X141286984Y-48364657D02*
X140982222Y-48669418D01*
X140982222Y-48669418D02*
X141312380Y-48669418D01*
D11*
X141960000Y-48425000D02*
G75*
G02*
X140360000Y-48425000I-800000J0D01*
G01*
X140360000Y-48425000D02*
G75*
G02*
X141960000Y-48425000I800000J0D01*
G01*
D17*
X140982222Y-50676085D02*
X141312380Y-50676085D01*
X141312380Y-50676085D02*
X141134603Y-50879260D01*
X141134603Y-50879260D02*
X141210793Y-50879260D01*
X141210793Y-50879260D02*
X141261587Y-50904657D01*
X141261587Y-50904657D02*
X141286984Y-50930053D01*
X141286984Y-50930053D02*
X141312380Y-50980847D01*
X141312380Y-50980847D02*
X141312380Y-51107831D01*
X141312380Y-51107831D02*
X141286984Y-51158625D01*
X141286984Y-51158625D02*
X141261587Y-51184022D01*
X141261587Y-51184022D02*
X141210793Y-51209418D01*
X141210793Y-51209418D02*
X141058412Y-51209418D01*
X141058412Y-51209418D02*
X141007619Y-51184022D01*
X141007619Y-51184022D02*
X140982222Y-51158625D01*
D11*
X141960000Y-50965000D02*
G75*
G02*
X140360000Y-50965000I-800000J0D01*
G01*
X140360000Y-50965000D02*
G75*
G02*
X141960000Y-50965000I800000J0D01*
G01*
D17*
X141261587Y-53393863D02*
X141261587Y-53749418D01*
X141134603Y-53190689D02*
X141007619Y-53571641D01*
X141007619Y-53571641D02*
X141337777Y-53571641D01*
D11*
X141960000Y-53505000D02*
G75*
G02*
X140360000Y-53505000I-800000J0D01*
G01*
X140360000Y-53505000D02*
G75*
G02*
X141960000Y-53505000I800000J0D01*
G01*
D17*
X141286984Y-55756085D02*
X141033016Y-55756085D01*
X141033016Y-55756085D02*
X141007619Y-56010053D01*
X141007619Y-56010053D02*
X141033016Y-55984657D01*
X141033016Y-55984657D02*
X141083809Y-55959260D01*
X141083809Y-55959260D02*
X141210793Y-55959260D01*
X141210793Y-55959260D02*
X141261587Y-55984657D01*
X141261587Y-55984657D02*
X141286984Y-56010053D01*
X141286984Y-56010053D02*
X141312380Y-56060847D01*
X141312380Y-56060847D02*
X141312380Y-56187831D01*
X141312380Y-56187831D02*
X141286984Y-56238625D01*
X141286984Y-56238625D02*
X141261587Y-56264022D01*
X141261587Y-56264022D02*
X141210793Y-56289418D01*
X141210793Y-56289418D02*
X141083809Y-56289418D01*
X141083809Y-56289418D02*
X141033016Y-56264022D01*
X141033016Y-56264022D02*
X141007619Y-56238625D01*
D11*
X141960000Y-56045000D02*
G75*
G02*
X140360000Y-56045000I-800000J0D01*
G01*
X140360000Y-56045000D02*
G75*
G02*
X141960000Y-56045000I800000J0D01*
G01*
D17*
X141261587Y-58296085D02*
X141160000Y-58296085D01*
X141160000Y-58296085D02*
X141109206Y-58321482D01*
X141109206Y-58321482D02*
X141083809Y-58346879D01*
X141083809Y-58346879D02*
X141033016Y-58423069D01*
X141033016Y-58423069D02*
X141007619Y-58524657D01*
X141007619Y-58524657D02*
X141007619Y-58727831D01*
X141007619Y-58727831D02*
X141033016Y-58778625D01*
X141033016Y-58778625D02*
X141058412Y-58804022D01*
X141058412Y-58804022D02*
X141109206Y-58829418D01*
X141109206Y-58829418D02*
X141210793Y-58829418D01*
X141210793Y-58829418D02*
X141261587Y-58804022D01*
X141261587Y-58804022D02*
X141286984Y-58778625D01*
X141286984Y-58778625D02*
X141312380Y-58727831D01*
X141312380Y-58727831D02*
X141312380Y-58600847D01*
X141312380Y-58600847D02*
X141286984Y-58550053D01*
X141286984Y-58550053D02*
X141261587Y-58524657D01*
X141261587Y-58524657D02*
X141210793Y-58499260D01*
X141210793Y-58499260D02*
X141109206Y-58499260D01*
X141109206Y-58499260D02*
X141058412Y-58524657D01*
X141058412Y-58524657D02*
X141033016Y-58550053D01*
X141033016Y-58550053D02*
X141007619Y-58600847D01*
D11*
X141960000Y-58585000D02*
G75*
G02*
X140360000Y-58585000I-800000J0D01*
G01*
X140360000Y-58585000D02*
G75*
G02*
X141960000Y-58585000I800000J0D01*
G01*
D17*
X140982222Y-60836085D02*
X141337777Y-60836085D01*
X141337777Y-60836085D02*
X141109206Y-61369418D01*
D11*
X141960000Y-61125000D02*
G75*
G02*
X140360000Y-61125000I-800000J0D01*
G01*
X140360000Y-61125000D02*
G75*
G02*
X141960000Y-61125000I800000J0D01*
G01*
D17*
X141109206Y-63604657D02*
X141058412Y-63579260D01*
X141058412Y-63579260D02*
X141033016Y-63553863D01*
X141033016Y-63553863D02*
X141007619Y-63503069D01*
X141007619Y-63503069D02*
X141007619Y-63477673D01*
X141007619Y-63477673D02*
X141033016Y-63426879D01*
X141033016Y-63426879D02*
X141058412Y-63401482D01*
X141058412Y-63401482D02*
X141109206Y-63376085D01*
X141109206Y-63376085D02*
X141210793Y-63376085D01*
X141210793Y-63376085D02*
X141261587Y-63401482D01*
X141261587Y-63401482D02*
X141286984Y-63426879D01*
X141286984Y-63426879D02*
X141312380Y-63477673D01*
X141312380Y-63477673D02*
X141312380Y-63503069D01*
X141312380Y-63503069D02*
X141286984Y-63553863D01*
X141286984Y-63553863D02*
X141261587Y-63579260D01*
X141261587Y-63579260D02*
X141210793Y-63604657D01*
X141210793Y-63604657D02*
X141109206Y-63604657D01*
X141109206Y-63604657D02*
X141058412Y-63630053D01*
X141058412Y-63630053D02*
X141033016Y-63655450D01*
X141033016Y-63655450D02*
X141007619Y-63706244D01*
X141007619Y-63706244D02*
X141007619Y-63807831D01*
X141007619Y-63807831D02*
X141033016Y-63858625D01*
X141033016Y-63858625D02*
X141058412Y-63884022D01*
X141058412Y-63884022D02*
X141109206Y-63909418D01*
X141109206Y-63909418D02*
X141210793Y-63909418D01*
X141210793Y-63909418D02*
X141261587Y-63884022D01*
X141261587Y-63884022D02*
X141286984Y-63858625D01*
X141286984Y-63858625D02*
X141312380Y-63807831D01*
X141312380Y-63807831D02*
X141312380Y-63706244D01*
X141312380Y-63706244D02*
X141286984Y-63655450D01*
X141286984Y-63655450D02*
X141261587Y-63630053D01*
X141261587Y-63630053D02*
X141210793Y-63604657D01*
D11*
X141960000Y-63665000D02*
G75*
G02*
X140360000Y-63665000I-800000J0D01*
G01*
X140360000Y-63665000D02*
G75*
G02*
X141960000Y-63665000I800000J0D01*
G01*
D17*
X141058412Y-66449418D02*
X141160000Y-66449418D01*
X141160000Y-66449418D02*
X141210793Y-66424022D01*
X141210793Y-66424022D02*
X141236190Y-66398625D01*
X141236190Y-66398625D02*
X141286984Y-66322434D01*
X141286984Y-66322434D02*
X141312380Y-66220847D01*
X141312380Y-66220847D02*
X141312380Y-66017673D01*
X141312380Y-66017673D02*
X141286984Y-65966879D01*
X141286984Y-65966879D02*
X141261587Y-65941482D01*
X141261587Y-65941482D02*
X141210793Y-65916085D01*
X141210793Y-65916085D02*
X141109206Y-65916085D01*
X141109206Y-65916085D02*
X141058412Y-65941482D01*
X141058412Y-65941482D02*
X141033016Y-65966879D01*
X141033016Y-65966879D02*
X141007619Y-66017673D01*
X141007619Y-66017673D02*
X141007619Y-66144657D01*
X141007619Y-66144657D02*
X141033016Y-66195450D01*
X141033016Y-66195450D02*
X141058412Y-66220847D01*
X141058412Y-66220847D02*
X141109206Y-66246244D01*
X141109206Y-66246244D02*
X141210793Y-66246244D01*
X141210793Y-66246244D02*
X141261587Y-66220847D01*
X141261587Y-66220847D02*
X141286984Y-66195450D01*
X141286984Y-66195450D02*
X141312380Y-66144657D01*
D11*
X141960000Y-66205000D02*
G75*
G02*
X140360000Y-66205000I-800000J0D01*
G01*
X140360000Y-66205000D02*
G75*
G02*
X141960000Y-66205000I800000J0D01*
G01*
D17*
X141058412Y-68989418D02*
X140753651Y-68989418D01*
X140906032Y-68989418D02*
X140906032Y-68456085D01*
X140906032Y-68456085D02*
X140855238Y-68532276D01*
X140855238Y-68532276D02*
X140804444Y-68583069D01*
X140804444Y-68583069D02*
X140753651Y-68608466D01*
X141388571Y-68456085D02*
X141439364Y-68456085D01*
X141439364Y-68456085D02*
X141490158Y-68481482D01*
X141490158Y-68481482D02*
X141515555Y-68506879D01*
X141515555Y-68506879D02*
X141540952Y-68557673D01*
X141540952Y-68557673D02*
X141566348Y-68659260D01*
X141566348Y-68659260D02*
X141566348Y-68786244D01*
X141566348Y-68786244D02*
X141540952Y-68887831D01*
X141540952Y-68887831D02*
X141515555Y-68938625D01*
X141515555Y-68938625D02*
X141490158Y-68964022D01*
X141490158Y-68964022D02*
X141439364Y-68989418D01*
X141439364Y-68989418D02*
X141388571Y-68989418D01*
X141388571Y-68989418D02*
X141337777Y-68964022D01*
X141337777Y-68964022D02*
X141312380Y-68938625D01*
X141312380Y-68938625D02*
X141286984Y-68887831D01*
X141286984Y-68887831D02*
X141261587Y-68786244D01*
X141261587Y-68786244D02*
X141261587Y-68659260D01*
X141261587Y-68659260D02*
X141286984Y-68557673D01*
X141286984Y-68557673D02*
X141312380Y-68506879D01*
X141312380Y-68506879D02*
X141337777Y-68481482D01*
X141337777Y-68481482D02*
X141388571Y-68456085D01*
D11*
X141960000Y-68745000D02*
G75*
G02*
X140360000Y-68745000I-800000J0D01*
G01*
X140360000Y-68745000D02*
G75*
G02*
X141960000Y-68745000I800000J0D01*
G01*
D17*
X141058412Y-71529418D02*
X140753651Y-71529418D01*
X140906032Y-71529418D02*
X140906032Y-70996085D01*
X140906032Y-70996085D02*
X140855238Y-71072276D01*
X140855238Y-71072276D02*
X140804444Y-71123069D01*
X140804444Y-71123069D02*
X140753651Y-71148466D01*
X141566348Y-71529418D02*
X141261587Y-71529418D01*
X141413968Y-71529418D02*
X141413968Y-70996085D01*
X141413968Y-70996085D02*
X141363174Y-71072276D01*
X141363174Y-71072276D02*
X141312380Y-71123069D01*
X141312380Y-71123069D02*
X141261587Y-71148466D01*
D11*
X141960000Y-71285000D02*
G75*
G02*
X140360000Y-71285000I-800000J0D01*
G01*
X140360000Y-71285000D02*
G75*
G02*
X141960000Y-71285000I800000J0D01*
G01*
D17*
X141058412Y-74069418D02*
X140753651Y-74069418D01*
X140906032Y-74069418D02*
X140906032Y-73536085D01*
X140906032Y-73536085D02*
X140855238Y-73612276D01*
X140855238Y-73612276D02*
X140804444Y-73663069D01*
X140804444Y-73663069D02*
X140753651Y-73688466D01*
X141261587Y-73586879D02*
X141286984Y-73561482D01*
X141286984Y-73561482D02*
X141337777Y-73536085D01*
X141337777Y-73536085D02*
X141464761Y-73536085D01*
X141464761Y-73536085D02*
X141515555Y-73561482D01*
X141515555Y-73561482D02*
X141540952Y-73586879D01*
X141540952Y-73586879D02*
X141566348Y-73637673D01*
X141566348Y-73637673D02*
X141566348Y-73688466D01*
X141566348Y-73688466D02*
X141540952Y-73764657D01*
X141540952Y-73764657D02*
X141236190Y-74069418D01*
X141236190Y-74069418D02*
X141566348Y-74069418D01*
D11*
X141960000Y-73825000D02*
G75*
G02*
X140360000Y-73825000I-800000J0D01*
G01*
X140360000Y-73825000D02*
G75*
G02*
X141960000Y-73825000I800000J0D01*
G01*
D17*
X141058412Y-76609418D02*
X140753651Y-76609418D01*
X140906032Y-76609418D02*
X140906032Y-76076085D01*
X140906032Y-76076085D02*
X140855238Y-76152276D01*
X140855238Y-76152276D02*
X140804444Y-76203069D01*
X140804444Y-76203069D02*
X140753651Y-76228466D01*
X141236190Y-76076085D02*
X141566348Y-76076085D01*
X141566348Y-76076085D02*
X141388571Y-76279260D01*
X141388571Y-76279260D02*
X141464761Y-76279260D01*
X141464761Y-76279260D02*
X141515555Y-76304657D01*
X141515555Y-76304657D02*
X141540952Y-76330053D01*
X141540952Y-76330053D02*
X141566348Y-76380847D01*
X141566348Y-76380847D02*
X141566348Y-76507831D01*
X141566348Y-76507831D02*
X141540952Y-76558625D01*
X141540952Y-76558625D02*
X141515555Y-76584022D01*
X141515555Y-76584022D02*
X141464761Y-76609418D01*
X141464761Y-76609418D02*
X141312380Y-76609418D01*
X141312380Y-76609418D02*
X141261587Y-76584022D01*
X141261587Y-76584022D02*
X141236190Y-76558625D01*
D11*
X141960000Y-76365000D02*
G75*
G02*
X140360000Y-76365000I-800000J0D01*
G01*
X140360000Y-76365000D02*
G75*
G02*
X141960000Y-76365000I800000J0D01*
G01*
D17*
X141058412Y-79149418D02*
X140753651Y-79149418D01*
X140906032Y-79149418D02*
X140906032Y-78616085D01*
X140906032Y-78616085D02*
X140855238Y-78692276D01*
X140855238Y-78692276D02*
X140804444Y-78743069D01*
X140804444Y-78743069D02*
X140753651Y-78768466D01*
X141515555Y-78793863D02*
X141515555Y-79149418D01*
X141388571Y-78590689D02*
X141261587Y-78971641D01*
X141261587Y-78971641D02*
X141591745Y-78971641D01*
D11*
X141960000Y-78905000D02*
G75*
G02*
X140360000Y-78905000I-800000J0D01*
G01*
X140360000Y-78905000D02*
G75*
G02*
X141960000Y-78905000I800000J0D01*
G01*
D17*
X141058412Y-81689418D02*
X140753651Y-81689418D01*
X140906032Y-81689418D02*
X140906032Y-81156085D01*
X140906032Y-81156085D02*
X140855238Y-81232276D01*
X140855238Y-81232276D02*
X140804444Y-81283069D01*
X140804444Y-81283069D02*
X140753651Y-81308466D01*
X141540952Y-81156085D02*
X141286984Y-81156085D01*
X141286984Y-81156085D02*
X141261587Y-81410053D01*
X141261587Y-81410053D02*
X141286984Y-81384657D01*
X141286984Y-81384657D02*
X141337777Y-81359260D01*
X141337777Y-81359260D02*
X141464761Y-81359260D01*
X141464761Y-81359260D02*
X141515555Y-81384657D01*
X141515555Y-81384657D02*
X141540952Y-81410053D01*
X141540952Y-81410053D02*
X141566348Y-81460847D01*
X141566348Y-81460847D02*
X141566348Y-81587831D01*
X141566348Y-81587831D02*
X141540952Y-81638625D01*
X141540952Y-81638625D02*
X141515555Y-81664022D01*
X141515555Y-81664022D02*
X141464761Y-81689418D01*
X141464761Y-81689418D02*
X141337777Y-81689418D01*
X141337777Y-81689418D02*
X141286984Y-81664022D01*
X141286984Y-81664022D02*
X141261587Y-81638625D01*
D11*
X141960000Y-81445000D02*
G75*
G02*
X140360000Y-81445000I-800000J0D01*
G01*
X140360000Y-81445000D02*
G75*
G02*
X141960000Y-81445000I800000J0D01*
G01*
D17*
X141058412Y-84229418D02*
X140753651Y-84229418D01*
X140906032Y-84229418D02*
X140906032Y-83696085D01*
X140906032Y-83696085D02*
X140855238Y-83772276D01*
X140855238Y-83772276D02*
X140804444Y-83823069D01*
X140804444Y-83823069D02*
X140753651Y-83848466D01*
X141515555Y-83696085D02*
X141413968Y-83696085D01*
X141413968Y-83696085D02*
X141363174Y-83721482D01*
X141363174Y-83721482D02*
X141337777Y-83746879D01*
X141337777Y-83746879D02*
X141286984Y-83823069D01*
X141286984Y-83823069D02*
X141261587Y-83924657D01*
X141261587Y-83924657D02*
X141261587Y-84127831D01*
X141261587Y-84127831D02*
X141286984Y-84178625D01*
X141286984Y-84178625D02*
X141312380Y-84204022D01*
X141312380Y-84204022D02*
X141363174Y-84229418D01*
X141363174Y-84229418D02*
X141464761Y-84229418D01*
X141464761Y-84229418D02*
X141515555Y-84204022D01*
X141515555Y-84204022D02*
X141540952Y-84178625D01*
X141540952Y-84178625D02*
X141566348Y-84127831D01*
X141566348Y-84127831D02*
X141566348Y-84000847D01*
X141566348Y-84000847D02*
X141540952Y-83950053D01*
X141540952Y-83950053D02*
X141515555Y-83924657D01*
X141515555Y-83924657D02*
X141464761Y-83899260D01*
X141464761Y-83899260D02*
X141363174Y-83899260D01*
X141363174Y-83899260D02*
X141312380Y-83924657D01*
X141312380Y-83924657D02*
X141286984Y-83950053D01*
X141286984Y-83950053D02*
X141261587Y-84000847D01*
D11*
X141960000Y-83985000D02*
G75*
G02*
X140360000Y-83985000I-800000J0D01*
G01*
X140360000Y-83985000D02*
G75*
G02*
X141960000Y-83985000I800000J0D01*
G01*
D17*
X141058412Y-86769418D02*
X140753651Y-86769418D01*
X140906032Y-86769418D02*
X140906032Y-86236085D01*
X140906032Y-86236085D02*
X140855238Y-86312276D01*
X140855238Y-86312276D02*
X140804444Y-86363069D01*
X140804444Y-86363069D02*
X140753651Y-86388466D01*
X141236190Y-86236085D02*
X141591745Y-86236085D01*
X141591745Y-86236085D02*
X141363174Y-86769418D01*
D11*
X141960000Y-86525000D02*
G75*
G02*
X140360000Y-86525000I-800000J0D01*
G01*
X140360000Y-86525000D02*
G75*
G02*
X141960000Y-86525000I800000J0D01*
G01*
D17*
X141058412Y-89309418D02*
X140753651Y-89309418D01*
X140906032Y-89309418D02*
X140906032Y-88776085D01*
X140906032Y-88776085D02*
X140855238Y-88852276D01*
X140855238Y-88852276D02*
X140804444Y-88903069D01*
X140804444Y-88903069D02*
X140753651Y-88928466D01*
X141363174Y-89004657D02*
X141312380Y-88979260D01*
X141312380Y-88979260D02*
X141286984Y-88953863D01*
X141286984Y-88953863D02*
X141261587Y-88903069D01*
X141261587Y-88903069D02*
X141261587Y-88877673D01*
X141261587Y-88877673D02*
X141286984Y-88826879D01*
X141286984Y-88826879D02*
X141312380Y-88801482D01*
X141312380Y-88801482D02*
X141363174Y-88776085D01*
X141363174Y-88776085D02*
X141464761Y-88776085D01*
X141464761Y-88776085D02*
X141515555Y-88801482D01*
X141515555Y-88801482D02*
X141540952Y-88826879D01*
X141540952Y-88826879D02*
X141566348Y-88877673D01*
X141566348Y-88877673D02*
X141566348Y-88903069D01*
X141566348Y-88903069D02*
X141540952Y-88953863D01*
X141540952Y-88953863D02*
X141515555Y-88979260D01*
X141515555Y-88979260D02*
X141464761Y-89004657D01*
X141464761Y-89004657D02*
X141363174Y-89004657D01*
X141363174Y-89004657D02*
X141312380Y-89030053D01*
X141312380Y-89030053D02*
X141286984Y-89055450D01*
X141286984Y-89055450D02*
X141261587Y-89106244D01*
X141261587Y-89106244D02*
X141261587Y-89207831D01*
X141261587Y-89207831D02*
X141286984Y-89258625D01*
X141286984Y-89258625D02*
X141312380Y-89284022D01*
X141312380Y-89284022D02*
X141363174Y-89309418D01*
X141363174Y-89309418D02*
X141464761Y-89309418D01*
X141464761Y-89309418D02*
X141515555Y-89284022D01*
X141515555Y-89284022D02*
X141540952Y-89258625D01*
X141540952Y-89258625D02*
X141566348Y-89207831D01*
X141566348Y-89207831D02*
X141566348Y-89106244D01*
X141566348Y-89106244D02*
X141540952Y-89055450D01*
X141540952Y-89055450D02*
X141515555Y-89030053D01*
X141515555Y-89030053D02*
X141464761Y-89004657D01*
D11*
X141960000Y-89065000D02*
G75*
G02*
X140360000Y-89065000I-800000J0D01*
G01*
X140360000Y-89065000D02*
G75*
G02*
X141960000Y-89065000I800000J0D01*
G01*
D17*
X141058412Y-91849418D02*
X140753651Y-91849418D01*
X140906032Y-91849418D02*
X140906032Y-91316085D01*
X140906032Y-91316085D02*
X140855238Y-91392276D01*
X140855238Y-91392276D02*
X140804444Y-91443069D01*
X140804444Y-91443069D02*
X140753651Y-91468466D01*
X141312380Y-91849418D02*
X141413968Y-91849418D01*
X141413968Y-91849418D02*
X141464761Y-91824022D01*
X141464761Y-91824022D02*
X141490158Y-91798625D01*
X141490158Y-91798625D02*
X141540952Y-91722434D01*
X141540952Y-91722434D02*
X141566348Y-91620847D01*
X141566348Y-91620847D02*
X141566348Y-91417673D01*
X141566348Y-91417673D02*
X141540952Y-91366879D01*
X141540952Y-91366879D02*
X141515555Y-91341482D01*
X141515555Y-91341482D02*
X141464761Y-91316085D01*
X141464761Y-91316085D02*
X141363174Y-91316085D01*
X141363174Y-91316085D02*
X141312380Y-91341482D01*
X141312380Y-91341482D02*
X141286984Y-91366879D01*
X141286984Y-91366879D02*
X141261587Y-91417673D01*
X141261587Y-91417673D02*
X141261587Y-91544657D01*
X141261587Y-91544657D02*
X141286984Y-91595450D01*
X141286984Y-91595450D02*
X141312380Y-91620847D01*
X141312380Y-91620847D02*
X141363174Y-91646244D01*
X141363174Y-91646244D02*
X141464761Y-91646244D01*
X141464761Y-91646244D02*
X141515555Y-91620847D01*
X141515555Y-91620847D02*
X141540952Y-91595450D01*
X141540952Y-91595450D02*
X141566348Y-91544657D01*
D11*
X141960000Y-91605000D02*
G75*
G02*
X140360000Y-91605000I-800000J0D01*
G01*
X140360000Y-91605000D02*
G75*
G02*
X141960000Y-91605000I800000J0D01*
G01*
D17*
X140753651Y-93906879D02*
X140779048Y-93881482D01*
X140779048Y-93881482D02*
X140829841Y-93856085D01*
X140829841Y-93856085D02*
X140956825Y-93856085D01*
X140956825Y-93856085D02*
X141007619Y-93881482D01*
X141007619Y-93881482D02*
X141033016Y-93906879D01*
X141033016Y-93906879D02*
X141058412Y-93957673D01*
X141058412Y-93957673D02*
X141058412Y-94008466D01*
X141058412Y-94008466D02*
X141033016Y-94084657D01*
X141033016Y-94084657D02*
X140728254Y-94389418D01*
X140728254Y-94389418D02*
X141058412Y-94389418D01*
X141388571Y-93856085D02*
X141439364Y-93856085D01*
X141439364Y-93856085D02*
X141490158Y-93881482D01*
X141490158Y-93881482D02*
X141515555Y-93906879D01*
X141515555Y-93906879D02*
X141540952Y-93957673D01*
X141540952Y-93957673D02*
X141566348Y-94059260D01*
X141566348Y-94059260D02*
X141566348Y-94186244D01*
X141566348Y-94186244D02*
X141540952Y-94287831D01*
X141540952Y-94287831D02*
X141515555Y-94338625D01*
X141515555Y-94338625D02*
X141490158Y-94364022D01*
X141490158Y-94364022D02*
X141439364Y-94389418D01*
X141439364Y-94389418D02*
X141388571Y-94389418D01*
X141388571Y-94389418D02*
X141337777Y-94364022D01*
X141337777Y-94364022D02*
X141312380Y-94338625D01*
X141312380Y-94338625D02*
X141286984Y-94287831D01*
X141286984Y-94287831D02*
X141261587Y-94186244D01*
X141261587Y-94186244D02*
X141261587Y-94059260D01*
X141261587Y-94059260D02*
X141286984Y-93957673D01*
X141286984Y-93957673D02*
X141312380Y-93906879D01*
X141312380Y-93906879D02*
X141337777Y-93881482D01*
X141337777Y-93881482D02*
X141388571Y-93856085D01*
D11*
X141960000Y-94145000D02*
G75*
G02*
X140360000Y-94145000I-800000J0D01*
G01*
X140360000Y-94145000D02*
G75*
G02*
X141960000Y-94145000I800000J0D01*
G01*
D17*
X155993651Y-93906879D02*
X156019048Y-93881482D01*
X156019048Y-93881482D02*
X156069841Y-93856085D01*
X156069841Y-93856085D02*
X156196825Y-93856085D01*
X156196825Y-93856085D02*
X156247619Y-93881482D01*
X156247619Y-93881482D02*
X156273016Y-93906879D01*
X156273016Y-93906879D02*
X156298412Y-93957673D01*
X156298412Y-93957673D02*
X156298412Y-94008466D01*
X156298412Y-94008466D02*
X156273016Y-94084657D01*
X156273016Y-94084657D02*
X155968254Y-94389418D01*
X155968254Y-94389418D02*
X156298412Y-94389418D01*
X156806348Y-94389418D02*
X156501587Y-94389418D01*
X156653968Y-94389418D02*
X156653968Y-93856085D01*
X156653968Y-93856085D02*
X156603174Y-93932276D01*
X156603174Y-93932276D02*
X156552380Y-93983069D01*
X156552380Y-93983069D02*
X156501587Y-94008466D01*
D11*
X157200000Y-94145000D02*
G75*
G02*
X155600000Y-94145000I-800000J0D01*
G01*
X155600000Y-94145000D02*
G75*
G02*
X157200000Y-94145000I800000J0D01*
G01*
D17*
X155993651Y-91366879D02*
X156019048Y-91341482D01*
X156019048Y-91341482D02*
X156069841Y-91316085D01*
X156069841Y-91316085D02*
X156196825Y-91316085D01*
X156196825Y-91316085D02*
X156247619Y-91341482D01*
X156247619Y-91341482D02*
X156273016Y-91366879D01*
X156273016Y-91366879D02*
X156298412Y-91417673D01*
X156298412Y-91417673D02*
X156298412Y-91468466D01*
X156298412Y-91468466D02*
X156273016Y-91544657D01*
X156273016Y-91544657D02*
X155968254Y-91849418D01*
X155968254Y-91849418D02*
X156298412Y-91849418D01*
X156501587Y-91366879D02*
X156526984Y-91341482D01*
X156526984Y-91341482D02*
X156577777Y-91316085D01*
X156577777Y-91316085D02*
X156704761Y-91316085D01*
X156704761Y-91316085D02*
X156755555Y-91341482D01*
X156755555Y-91341482D02*
X156780952Y-91366879D01*
X156780952Y-91366879D02*
X156806348Y-91417673D01*
X156806348Y-91417673D02*
X156806348Y-91468466D01*
X156806348Y-91468466D02*
X156780952Y-91544657D01*
X156780952Y-91544657D02*
X156476190Y-91849418D01*
X156476190Y-91849418D02*
X156806348Y-91849418D01*
D11*
X157200000Y-91605000D02*
G75*
G02*
X155600000Y-91605000I-800000J0D01*
G01*
X155600000Y-91605000D02*
G75*
G02*
X157200000Y-91605000I800000J0D01*
G01*
D17*
X155993651Y-88826879D02*
X156019048Y-88801482D01*
X156019048Y-88801482D02*
X156069841Y-88776085D01*
X156069841Y-88776085D02*
X156196825Y-88776085D01*
X156196825Y-88776085D02*
X156247619Y-88801482D01*
X156247619Y-88801482D02*
X156273016Y-88826879D01*
X156273016Y-88826879D02*
X156298412Y-88877673D01*
X156298412Y-88877673D02*
X156298412Y-88928466D01*
X156298412Y-88928466D02*
X156273016Y-89004657D01*
X156273016Y-89004657D02*
X155968254Y-89309418D01*
X155968254Y-89309418D02*
X156298412Y-89309418D01*
X156476190Y-88776085D02*
X156806348Y-88776085D01*
X156806348Y-88776085D02*
X156628571Y-88979260D01*
X156628571Y-88979260D02*
X156704761Y-88979260D01*
X156704761Y-88979260D02*
X156755555Y-89004657D01*
X156755555Y-89004657D02*
X156780952Y-89030053D01*
X156780952Y-89030053D02*
X156806348Y-89080847D01*
X156806348Y-89080847D02*
X156806348Y-89207831D01*
X156806348Y-89207831D02*
X156780952Y-89258625D01*
X156780952Y-89258625D02*
X156755555Y-89284022D01*
X156755555Y-89284022D02*
X156704761Y-89309418D01*
X156704761Y-89309418D02*
X156552380Y-89309418D01*
X156552380Y-89309418D02*
X156501587Y-89284022D01*
X156501587Y-89284022D02*
X156476190Y-89258625D01*
D11*
X157200000Y-89065000D02*
G75*
G02*
X155600000Y-89065000I-800000J0D01*
G01*
X155600000Y-89065000D02*
G75*
G02*
X157200000Y-89065000I800000J0D01*
G01*
D17*
X155993651Y-86286879D02*
X156019048Y-86261482D01*
X156019048Y-86261482D02*
X156069841Y-86236085D01*
X156069841Y-86236085D02*
X156196825Y-86236085D01*
X156196825Y-86236085D02*
X156247619Y-86261482D01*
X156247619Y-86261482D02*
X156273016Y-86286879D01*
X156273016Y-86286879D02*
X156298412Y-86337673D01*
X156298412Y-86337673D02*
X156298412Y-86388466D01*
X156298412Y-86388466D02*
X156273016Y-86464657D01*
X156273016Y-86464657D02*
X155968254Y-86769418D01*
X155968254Y-86769418D02*
X156298412Y-86769418D01*
X156755555Y-86413863D02*
X156755555Y-86769418D01*
X156628571Y-86210689D02*
X156501587Y-86591641D01*
X156501587Y-86591641D02*
X156831745Y-86591641D01*
D11*
X157200000Y-86525000D02*
G75*
G02*
X155600000Y-86525000I-800000J0D01*
G01*
X155600000Y-86525000D02*
G75*
G02*
X157200000Y-86525000I800000J0D01*
G01*
D17*
X155993651Y-83746879D02*
X156019048Y-83721482D01*
X156019048Y-83721482D02*
X156069841Y-83696085D01*
X156069841Y-83696085D02*
X156196825Y-83696085D01*
X156196825Y-83696085D02*
X156247619Y-83721482D01*
X156247619Y-83721482D02*
X156273016Y-83746879D01*
X156273016Y-83746879D02*
X156298412Y-83797673D01*
X156298412Y-83797673D02*
X156298412Y-83848466D01*
X156298412Y-83848466D02*
X156273016Y-83924657D01*
X156273016Y-83924657D02*
X155968254Y-84229418D01*
X155968254Y-84229418D02*
X156298412Y-84229418D01*
X156780952Y-83696085D02*
X156526984Y-83696085D01*
X156526984Y-83696085D02*
X156501587Y-83950053D01*
X156501587Y-83950053D02*
X156526984Y-83924657D01*
X156526984Y-83924657D02*
X156577777Y-83899260D01*
X156577777Y-83899260D02*
X156704761Y-83899260D01*
X156704761Y-83899260D02*
X156755555Y-83924657D01*
X156755555Y-83924657D02*
X156780952Y-83950053D01*
X156780952Y-83950053D02*
X156806348Y-84000847D01*
X156806348Y-84000847D02*
X156806348Y-84127831D01*
X156806348Y-84127831D02*
X156780952Y-84178625D01*
X156780952Y-84178625D02*
X156755555Y-84204022D01*
X156755555Y-84204022D02*
X156704761Y-84229418D01*
X156704761Y-84229418D02*
X156577777Y-84229418D01*
X156577777Y-84229418D02*
X156526984Y-84204022D01*
X156526984Y-84204022D02*
X156501587Y-84178625D01*
D11*
X157200000Y-83985000D02*
G75*
G02*
X155600000Y-83985000I-800000J0D01*
G01*
X155600000Y-83985000D02*
G75*
G02*
X157200000Y-83985000I800000J0D01*
G01*
D17*
X155993651Y-81206879D02*
X156019048Y-81181482D01*
X156019048Y-81181482D02*
X156069841Y-81156085D01*
X156069841Y-81156085D02*
X156196825Y-81156085D01*
X156196825Y-81156085D02*
X156247619Y-81181482D01*
X156247619Y-81181482D02*
X156273016Y-81206879D01*
X156273016Y-81206879D02*
X156298412Y-81257673D01*
X156298412Y-81257673D02*
X156298412Y-81308466D01*
X156298412Y-81308466D02*
X156273016Y-81384657D01*
X156273016Y-81384657D02*
X155968254Y-81689418D01*
X155968254Y-81689418D02*
X156298412Y-81689418D01*
X156755555Y-81156085D02*
X156653968Y-81156085D01*
X156653968Y-81156085D02*
X156603174Y-81181482D01*
X156603174Y-81181482D02*
X156577777Y-81206879D01*
X156577777Y-81206879D02*
X156526984Y-81283069D01*
X156526984Y-81283069D02*
X156501587Y-81384657D01*
X156501587Y-81384657D02*
X156501587Y-81587831D01*
X156501587Y-81587831D02*
X156526984Y-81638625D01*
X156526984Y-81638625D02*
X156552380Y-81664022D01*
X156552380Y-81664022D02*
X156603174Y-81689418D01*
X156603174Y-81689418D02*
X156704761Y-81689418D01*
X156704761Y-81689418D02*
X156755555Y-81664022D01*
X156755555Y-81664022D02*
X156780952Y-81638625D01*
X156780952Y-81638625D02*
X156806348Y-81587831D01*
X156806348Y-81587831D02*
X156806348Y-81460847D01*
X156806348Y-81460847D02*
X156780952Y-81410053D01*
X156780952Y-81410053D02*
X156755555Y-81384657D01*
X156755555Y-81384657D02*
X156704761Y-81359260D01*
X156704761Y-81359260D02*
X156603174Y-81359260D01*
X156603174Y-81359260D02*
X156552380Y-81384657D01*
X156552380Y-81384657D02*
X156526984Y-81410053D01*
X156526984Y-81410053D02*
X156501587Y-81460847D01*
D11*
X157200000Y-81445000D02*
G75*
G02*
X155600000Y-81445000I-800000J0D01*
G01*
X155600000Y-81445000D02*
G75*
G02*
X157200000Y-81445000I800000J0D01*
G01*
D17*
X155993651Y-78666879D02*
X156019048Y-78641482D01*
X156019048Y-78641482D02*
X156069841Y-78616085D01*
X156069841Y-78616085D02*
X156196825Y-78616085D01*
X156196825Y-78616085D02*
X156247619Y-78641482D01*
X156247619Y-78641482D02*
X156273016Y-78666879D01*
X156273016Y-78666879D02*
X156298412Y-78717673D01*
X156298412Y-78717673D02*
X156298412Y-78768466D01*
X156298412Y-78768466D02*
X156273016Y-78844657D01*
X156273016Y-78844657D02*
X155968254Y-79149418D01*
X155968254Y-79149418D02*
X156298412Y-79149418D01*
X156476190Y-78616085D02*
X156831745Y-78616085D01*
X156831745Y-78616085D02*
X156603174Y-79149418D01*
D11*
X157200000Y-78905000D02*
G75*
G02*
X155600000Y-78905000I-800000J0D01*
G01*
X155600000Y-78905000D02*
G75*
G02*
X157200000Y-78905000I800000J0D01*
G01*
D17*
X155993651Y-76126879D02*
X156019048Y-76101482D01*
X156019048Y-76101482D02*
X156069841Y-76076085D01*
X156069841Y-76076085D02*
X156196825Y-76076085D01*
X156196825Y-76076085D02*
X156247619Y-76101482D01*
X156247619Y-76101482D02*
X156273016Y-76126879D01*
X156273016Y-76126879D02*
X156298412Y-76177673D01*
X156298412Y-76177673D02*
X156298412Y-76228466D01*
X156298412Y-76228466D02*
X156273016Y-76304657D01*
X156273016Y-76304657D02*
X155968254Y-76609418D01*
X155968254Y-76609418D02*
X156298412Y-76609418D01*
X156603174Y-76304657D02*
X156552380Y-76279260D01*
X156552380Y-76279260D02*
X156526984Y-76253863D01*
X156526984Y-76253863D02*
X156501587Y-76203069D01*
X156501587Y-76203069D02*
X156501587Y-76177673D01*
X156501587Y-76177673D02*
X156526984Y-76126879D01*
X156526984Y-76126879D02*
X156552380Y-76101482D01*
X156552380Y-76101482D02*
X156603174Y-76076085D01*
X156603174Y-76076085D02*
X156704761Y-76076085D01*
X156704761Y-76076085D02*
X156755555Y-76101482D01*
X156755555Y-76101482D02*
X156780952Y-76126879D01*
X156780952Y-76126879D02*
X156806348Y-76177673D01*
X156806348Y-76177673D02*
X156806348Y-76203069D01*
X156806348Y-76203069D02*
X156780952Y-76253863D01*
X156780952Y-76253863D02*
X156755555Y-76279260D01*
X156755555Y-76279260D02*
X156704761Y-76304657D01*
X156704761Y-76304657D02*
X156603174Y-76304657D01*
X156603174Y-76304657D02*
X156552380Y-76330053D01*
X156552380Y-76330053D02*
X156526984Y-76355450D01*
X156526984Y-76355450D02*
X156501587Y-76406244D01*
X156501587Y-76406244D02*
X156501587Y-76507831D01*
X156501587Y-76507831D02*
X156526984Y-76558625D01*
X156526984Y-76558625D02*
X156552380Y-76584022D01*
X156552380Y-76584022D02*
X156603174Y-76609418D01*
X156603174Y-76609418D02*
X156704761Y-76609418D01*
X156704761Y-76609418D02*
X156755555Y-76584022D01*
X156755555Y-76584022D02*
X156780952Y-76558625D01*
X156780952Y-76558625D02*
X156806348Y-76507831D01*
X156806348Y-76507831D02*
X156806348Y-76406244D01*
X156806348Y-76406244D02*
X156780952Y-76355450D01*
X156780952Y-76355450D02*
X156755555Y-76330053D01*
X156755555Y-76330053D02*
X156704761Y-76304657D01*
D11*
X157200000Y-76365000D02*
G75*
G02*
X155600000Y-76365000I-800000J0D01*
G01*
X155600000Y-76365000D02*
G75*
G02*
X157200000Y-76365000I800000J0D01*
G01*
D17*
X155993651Y-73586879D02*
X156019048Y-73561482D01*
X156019048Y-73561482D02*
X156069841Y-73536085D01*
X156069841Y-73536085D02*
X156196825Y-73536085D01*
X156196825Y-73536085D02*
X156247619Y-73561482D01*
X156247619Y-73561482D02*
X156273016Y-73586879D01*
X156273016Y-73586879D02*
X156298412Y-73637673D01*
X156298412Y-73637673D02*
X156298412Y-73688466D01*
X156298412Y-73688466D02*
X156273016Y-73764657D01*
X156273016Y-73764657D02*
X155968254Y-74069418D01*
X155968254Y-74069418D02*
X156298412Y-74069418D01*
X156552380Y-74069418D02*
X156653968Y-74069418D01*
X156653968Y-74069418D02*
X156704761Y-74044022D01*
X156704761Y-74044022D02*
X156730158Y-74018625D01*
X156730158Y-74018625D02*
X156780952Y-73942434D01*
X156780952Y-73942434D02*
X156806348Y-73840847D01*
X156806348Y-73840847D02*
X156806348Y-73637673D01*
X156806348Y-73637673D02*
X156780952Y-73586879D01*
X156780952Y-73586879D02*
X156755555Y-73561482D01*
X156755555Y-73561482D02*
X156704761Y-73536085D01*
X156704761Y-73536085D02*
X156603174Y-73536085D01*
X156603174Y-73536085D02*
X156552380Y-73561482D01*
X156552380Y-73561482D02*
X156526984Y-73586879D01*
X156526984Y-73586879D02*
X156501587Y-73637673D01*
X156501587Y-73637673D02*
X156501587Y-73764657D01*
X156501587Y-73764657D02*
X156526984Y-73815450D01*
X156526984Y-73815450D02*
X156552380Y-73840847D01*
X156552380Y-73840847D02*
X156603174Y-73866244D01*
X156603174Y-73866244D02*
X156704761Y-73866244D01*
X156704761Y-73866244D02*
X156755555Y-73840847D01*
X156755555Y-73840847D02*
X156780952Y-73815450D01*
X156780952Y-73815450D02*
X156806348Y-73764657D01*
D11*
X157200000Y-73825000D02*
G75*
G02*
X155600000Y-73825000I-800000J0D01*
G01*
X155600000Y-73825000D02*
G75*
G02*
X157200000Y-73825000I800000J0D01*
G01*
D17*
X155968254Y-70996085D02*
X156298412Y-70996085D01*
X156298412Y-70996085D02*
X156120635Y-71199260D01*
X156120635Y-71199260D02*
X156196825Y-71199260D01*
X156196825Y-71199260D02*
X156247619Y-71224657D01*
X156247619Y-71224657D02*
X156273016Y-71250053D01*
X156273016Y-71250053D02*
X156298412Y-71300847D01*
X156298412Y-71300847D02*
X156298412Y-71427831D01*
X156298412Y-71427831D02*
X156273016Y-71478625D01*
X156273016Y-71478625D02*
X156247619Y-71504022D01*
X156247619Y-71504022D02*
X156196825Y-71529418D01*
X156196825Y-71529418D02*
X156044444Y-71529418D01*
X156044444Y-71529418D02*
X155993651Y-71504022D01*
X155993651Y-71504022D02*
X155968254Y-71478625D01*
X156628571Y-70996085D02*
X156679364Y-70996085D01*
X156679364Y-70996085D02*
X156730158Y-71021482D01*
X156730158Y-71021482D02*
X156755555Y-71046879D01*
X156755555Y-71046879D02*
X156780952Y-71097673D01*
X156780952Y-71097673D02*
X156806348Y-71199260D01*
X156806348Y-71199260D02*
X156806348Y-71326244D01*
X156806348Y-71326244D02*
X156780952Y-71427831D01*
X156780952Y-71427831D02*
X156755555Y-71478625D01*
X156755555Y-71478625D02*
X156730158Y-71504022D01*
X156730158Y-71504022D02*
X156679364Y-71529418D01*
X156679364Y-71529418D02*
X156628571Y-71529418D01*
X156628571Y-71529418D02*
X156577777Y-71504022D01*
X156577777Y-71504022D02*
X156552380Y-71478625D01*
X156552380Y-71478625D02*
X156526984Y-71427831D01*
X156526984Y-71427831D02*
X156501587Y-71326244D01*
X156501587Y-71326244D02*
X156501587Y-71199260D01*
X156501587Y-71199260D02*
X156526984Y-71097673D01*
X156526984Y-71097673D02*
X156552380Y-71046879D01*
X156552380Y-71046879D02*
X156577777Y-71021482D01*
X156577777Y-71021482D02*
X156628571Y-70996085D01*
D11*
X157200000Y-71285000D02*
G75*
G02*
X155600000Y-71285000I-800000J0D01*
G01*
X155600000Y-71285000D02*
G75*
G02*
X157200000Y-71285000I800000J0D01*
G01*
D17*
X155968254Y-68456085D02*
X156298412Y-68456085D01*
X156298412Y-68456085D02*
X156120635Y-68659260D01*
X156120635Y-68659260D02*
X156196825Y-68659260D01*
X156196825Y-68659260D02*
X156247619Y-68684657D01*
X156247619Y-68684657D02*
X156273016Y-68710053D01*
X156273016Y-68710053D02*
X156298412Y-68760847D01*
X156298412Y-68760847D02*
X156298412Y-68887831D01*
X156298412Y-68887831D02*
X156273016Y-68938625D01*
X156273016Y-68938625D02*
X156247619Y-68964022D01*
X156247619Y-68964022D02*
X156196825Y-68989418D01*
X156196825Y-68989418D02*
X156044444Y-68989418D01*
X156044444Y-68989418D02*
X155993651Y-68964022D01*
X155993651Y-68964022D02*
X155968254Y-68938625D01*
X156806348Y-68989418D02*
X156501587Y-68989418D01*
X156653968Y-68989418D02*
X156653968Y-68456085D01*
X156653968Y-68456085D02*
X156603174Y-68532276D01*
X156603174Y-68532276D02*
X156552380Y-68583069D01*
X156552380Y-68583069D02*
X156501587Y-68608466D01*
D11*
X157200000Y-68745000D02*
G75*
G02*
X155600000Y-68745000I-800000J0D01*
G01*
X155600000Y-68745000D02*
G75*
G02*
X157200000Y-68745000I800000J0D01*
G01*
D17*
X155968254Y-65916085D02*
X156298412Y-65916085D01*
X156298412Y-65916085D02*
X156120635Y-66119260D01*
X156120635Y-66119260D02*
X156196825Y-66119260D01*
X156196825Y-66119260D02*
X156247619Y-66144657D01*
X156247619Y-66144657D02*
X156273016Y-66170053D01*
X156273016Y-66170053D02*
X156298412Y-66220847D01*
X156298412Y-66220847D02*
X156298412Y-66347831D01*
X156298412Y-66347831D02*
X156273016Y-66398625D01*
X156273016Y-66398625D02*
X156247619Y-66424022D01*
X156247619Y-66424022D02*
X156196825Y-66449418D01*
X156196825Y-66449418D02*
X156044444Y-66449418D01*
X156044444Y-66449418D02*
X155993651Y-66424022D01*
X155993651Y-66424022D02*
X155968254Y-66398625D01*
X156501587Y-65966879D02*
X156526984Y-65941482D01*
X156526984Y-65941482D02*
X156577777Y-65916085D01*
X156577777Y-65916085D02*
X156704761Y-65916085D01*
X156704761Y-65916085D02*
X156755555Y-65941482D01*
X156755555Y-65941482D02*
X156780952Y-65966879D01*
X156780952Y-65966879D02*
X156806348Y-66017673D01*
X156806348Y-66017673D02*
X156806348Y-66068466D01*
X156806348Y-66068466D02*
X156780952Y-66144657D01*
X156780952Y-66144657D02*
X156476190Y-66449418D01*
X156476190Y-66449418D02*
X156806348Y-66449418D01*
D11*
X157200000Y-66205000D02*
G75*
G02*
X155600000Y-66205000I-800000J0D01*
G01*
X155600000Y-66205000D02*
G75*
G02*
X157200000Y-66205000I800000J0D01*
G01*
D17*
X155968254Y-63376085D02*
X156298412Y-63376085D01*
X156298412Y-63376085D02*
X156120635Y-63579260D01*
X156120635Y-63579260D02*
X156196825Y-63579260D01*
X156196825Y-63579260D02*
X156247619Y-63604657D01*
X156247619Y-63604657D02*
X156273016Y-63630053D01*
X156273016Y-63630053D02*
X156298412Y-63680847D01*
X156298412Y-63680847D02*
X156298412Y-63807831D01*
X156298412Y-63807831D02*
X156273016Y-63858625D01*
X156273016Y-63858625D02*
X156247619Y-63884022D01*
X156247619Y-63884022D02*
X156196825Y-63909418D01*
X156196825Y-63909418D02*
X156044444Y-63909418D01*
X156044444Y-63909418D02*
X155993651Y-63884022D01*
X155993651Y-63884022D02*
X155968254Y-63858625D01*
X156476190Y-63376085D02*
X156806348Y-63376085D01*
X156806348Y-63376085D02*
X156628571Y-63579260D01*
X156628571Y-63579260D02*
X156704761Y-63579260D01*
X156704761Y-63579260D02*
X156755555Y-63604657D01*
X156755555Y-63604657D02*
X156780952Y-63630053D01*
X156780952Y-63630053D02*
X156806348Y-63680847D01*
X156806348Y-63680847D02*
X156806348Y-63807831D01*
X156806348Y-63807831D02*
X156780952Y-63858625D01*
X156780952Y-63858625D02*
X156755555Y-63884022D01*
X156755555Y-63884022D02*
X156704761Y-63909418D01*
X156704761Y-63909418D02*
X156552380Y-63909418D01*
X156552380Y-63909418D02*
X156501587Y-63884022D01*
X156501587Y-63884022D02*
X156476190Y-63858625D01*
D11*
X157200000Y-63665000D02*
G75*
G02*
X155600000Y-63665000I-800000J0D01*
G01*
X155600000Y-63665000D02*
G75*
G02*
X157200000Y-63665000I800000J0D01*
G01*
D17*
X155968254Y-60836085D02*
X156298412Y-60836085D01*
X156298412Y-60836085D02*
X156120635Y-61039260D01*
X156120635Y-61039260D02*
X156196825Y-61039260D01*
X156196825Y-61039260D02*
X156247619Y-61064657D01*
X156247619Y-61064657D02*
X156273016Y-61090053D01*
X156273016Y-61090053D02*
X156298412Y-61140847D01*
X156298412Y-61140847D02*
X156298412Y-61267831D01*
X156298412Y-61267831D02*
X156273016Y-61318625D01*
X156273016Y-61318625D02*
X156247619Y-61344022D01*
X156247619Y-61344022D02*
X156196825Y-61369418D01*
X156196825Y-61369418D02*
X156044444Y-61369418D01*
X156044444Y-61369418D02*
X155993651Y-61344022D01*
X155993651Y-61344022D02*
X155968254Y-61318625D01*
X156755555Y-61013863D02*
X156755555Y-61369418D01*
X156628571Y-60810689D02*
X156501587Y-61191641D01*
X156501587Y-61191641D02*
X156831745Y-61191641D01*
D11*
X157200000Y-61125000D02*
G75*
G02*
X155600000Y-61125000I-800000J0D01*
G01*
X155600000Y-61125000D02*
G75*
G02*
X157200000Y-61125000I800000J0D01*
G01*
D17*
X155968254Y-58296085D02*
X156298412Y-58296085D01*
X156298412Y-58296085D02*
X156120635Y-58499260D01*
X156120635Y-58499260D02*
X156196825Y-58499260D01*
X156196825Y-58499260D02*
X156247619Y-58524657D01*
X156247619Y-58524657D02*
X156273016Y-58550053D01*
X156273016Y-58550053D02*
X156298412Y-58600847D01*
X156298412Y-58600847D02*
X156298412Y-58727831D01*
X156298412Y-58727831D02*
X156273016Y-58778625D01*
X156273016Y-58778625D02*
X156247619Y-58804022D01*
X156247619Y-58804022D02*
X156196825Y-58829418D01*
X156196825Y-58829418D02*
X156044444Y-58829418D01*
X156044444Y-58829418D02*
X155993651Y-58804022D01*
X155993651Y-58804022D02*
X155968254Y-58778625D01*
X156780952Y-58296085D02*
X156526984Y-58296085D01*
X156526984Y-58296085D02*
X156501587Y-58550053D01*
X156501587Y-58550053D02*
X156526984Y-58524657D01*
X156526984Y-58524657D02*
X156577777Y-58499260D01*
X156577777Y-58499260D02*
X156704761Y-58499260D01*
X156704761Y-58499260D02*
X156755555Y-58524657D01*
X156755555Y-58524657D02*
X156780952Y-58550053D01*
X156780952Y-58550053D02*
X156806348Y-58600847D01*
X156806348Y-58600847D02*
X156806348Y-58727831D01*
X156806348Y-58727831D02*
X156780952Y-58778625D01*
X156780952Y-58778625D02*
X156755555Y-58804022D01*
X156755555Y-58804022D02*
X156704761Y-58829418D01*
X156704761Y-58829418D02*
X156577777Y-58829418D01*
X156577777Y-58829418D02*
X156526984Y-58804022D01*
X156526984Y-58804022D02*
X156501587Y-58778625D01*
D11*
X157200000Y-58585000D02*
G75*
G02*
X155600000Y-58585000I-800000J0D01*
G01*
X155600000Y-58585000D02*
G75*
G02*
X157200000Y-58585000I800000J0D01*
G01*
D17*
X155968254Y-55756085D02*
X156298412Y-55756085D01*
X156298412Y-55756085D02*
X156120635Y-55959260D01*
X156120635Y-55959260D02*
X156196825Y-55959260D01*
X156196825Y-55959260D02*
X156247619Y-55984657D01*
X156247619Y-55984657D02*
X156273016Y-56010053D01*
X156273016Y-56010053D02*
X156298412Y-56060847D01*
X156298412Y-56060847D02*
X156298412Y-56187831D01*
X156298412Y-56187831D02*
X156273016Y-56238625D01*
X156273016Y-56238625D02*
X156247619Y-56264022D01*
X156247619Y-56264022D02*
X156196825Y-56289418D01*
X156196825Y-56289418D02*
X156044444Y-56289418D01*
X156044444Y-56289418D02*
X155993651Y-56264022D01*
X155993651Y-56264022D02*
X155968254Y-56238625D01*
X156755555Y-55756085D02*
X156653968Y-55756085D01*
X156653968Y-55756085D02*
X156603174Y-55781482D01*
X156603174Y-55781482D02*
X156577777Y-55806879D01*
X156577777Y-55806879D02*
X156526984Y-55883069D01*
X156526984Y-55883069D02*
X156501587Y-55984657D01*
X156501587Y-55984657D02*
X156501587Y-56187831D01*
X156501587Y-56187831D02*
X156526984Y-56238625D01*
X156526984Y-56238625D02*
X156552380Y-56264022D01*
X156552380Y-56264022D02*
X156603174Y-56289418D01*
X156603174Y-56289418D02*
X156704761Y-56289418D01*
X156704761Y-56289418D02*
X156755555Y-56264022D01*
X156755555Y-56264022D02*
X156780952Y-56238625D01*
X156780952Y-56238625D02*
X156806348Y-56187831D01*
X156806348Y-56187831D02*
X156806348Y-56060847D01*
X156806348Y-56060847D02*
X156780952Y-56010053D01*
X156780952Y-56010053D02*
X156755555Y-55984657D01*
X156755555Y-55984657D02*
X156704761Y-55959260D01*
X156704761Y-55959260D02*
X156603174Y-55959260D01*
X156603174Y-55959260D02*
X156552380Y-55984657D01*
X156552380Y-55984657D02*
X156526984Y-56010053D01*
X156526984Y-56010053D02*
X156501587Y-56060847D01*
D11*
X157200000Y-56045000D02*
G75*
G02*
X155600000Y-56045000I-800000J0D01*
G01*
X155600000Y-56045000D02*
G75*
G02*
X157200000Y-56045000I800000J0D01*
G01*
D17*
X155968254Y-53216085D02*
X156298412Y-53216085D01*
X156298412Y-53216085D02*
X156120635Y-53419260D01*
X156120635Y-53419260D02*
X156196825Y-53419260D01*
X156196825Y-53419260D02*
X156247619Y-53444657D01*
X156247619Y-53444657D02*
X156273016Y-53470053D01*
X156273016Y-53470053D02*
X156298412Y-53520847D01*
X156298412Y-53520847D02*
X156298412Y-53647831D01*
X156298412Y-53647831D02*
X156273016Y-53698625D01*
X156273016Y-53698625D02*
X156247619Y-53724022D01*
X156247619Y-53724022D02*
X156196825Y-53749418D01*
X156196825Y-53749418D02*
X156044444Y-53749418D01*
X156044444Y-53749418D02*
X155993651Y-53724022D01*
X155993651Y-53724022D02*
X155968254Y-53698625D01*
X156476190Y-53216085D02*
X156831745Y-53216085D01*
X156831745Y-53216085D02*
X156603174Y-53749418D01*
D11*
X157200000Y-53505000D02*
G75*
G02*
X155600000Y-53505000I-800000J0D01*
G01*
X155600000Y-53505000D02*
G75*
G02*
X157200000Y-53505000I800000J0D01*
G01*
D17*
X155968254Y-50676085D02*
X156298412Y-50676085D01*
X156298412Y-50676085D02*
X156120635Y-50879260D01*
X156120635Y-50879260D02*
X156196825Y-50879260D01*
X156196825Y-50879260D02*
X156247619Y-50904657D01*
X156247619Y-50904657D02*
X156273016Y-50930053D01*
X156273016Y-50930053D02*
X156298412Y-50980847D01*
X156298412Y-50980847D02*
X156298412Y-51107831D01*
X156298412Y-51107831D02*
X156273016Y-51158625D01*
X156273016Y-51158625D02*
X156247619Y-51184022D01*
X156247619Y-51184022D02*
X156196825Y-51209418D01*
X156196825Y-51209418D02*
X156044444Y-51209418D01*
X156044444Y-51209418D02*
X155993651Y-51184022D01*
X155993651Y-51184022D02*
X155968254Y-51158625D01*
X156603174Y-50904657D02*
X156552380Y-50879260D01*
X156552380Y-50879260D02*
X156526984Y-50853863D01*
X156526984Y-50853863D02*
X156501587Y-50803069D01*
X156501587Y-50803069D02*
X156501587Y-50777673D01*
X156501587Y-50777673D02*
X156526984Y-50726879D01*
X156526984Y-50726879D02*
X156552380Y-50701482D01*
X156552380Y-50701482D02*
X156603174Y-50676085D01*
X156603174Y-50676085D02*
X156704761Y-50676085D01*
X156704761Y-50676085D02*
X156755555Y-50701482D01*
X156755555Y-50701482D02*
X156780952Y-50726879D01*
X156780952Y-50726879D02*
X156806348Y-50777673D01*
X156806348Y-50777673D02*
X156806348Y-50803069D01*
X156806348Y-50803069D02*
X156780952Y-50853863D01*
X156780952Y-50853863D02*
X156755555Y-50879260D01*
X156755555Y-50879260D02*
X156704761Y-50904657D01*
X156704761Y-50904657D02*
X156603174Y-50904657D01*
X156603174Y-50904657D02*
X156552380Y-50930053D01*
X156552380Y-50930053D02*
X156526984Y-50955450D01*
X156526984Y-50955450D02*
X156501587Y-51006244D01*
X156501587Y-51006244D02*
X156501587Y-51107831D01*
X156501587Y-51107831D02*
X156526984Y-51158625D01*
X156526984Y-51158625D02*
X156552380Y-51184022D01*
X156552380Y-51184022D02*
X156603174Y-51209418D01*
X156603174Y-51209418D02*
X156704761Y-51209418D01*
X156704761Y-51209418D02*
X156755555Y-51184022D01*
X156755555Y-51184022D02*
X156780952Y-51158625D01*
X156780952Y-51158625D02*
X156806348Y-51107831D01*
X156806348Y-51107831D02*
X156806348Y-51006244D01*
X156806348Y-51006244D02*
X156780952Y-50955450D01*
X156780952Y-50955450D02*
X156755555Y-50930053D01*
X156755555Y-50930053D02*
X156704761Y-50904657D01*
D11*
X157200000Y-50965000D02*
G75*
G02*
X155600000Y-50965000I-800000J0D01*
G01*
X155600000Y-50965000D02*
G75*
G02*
X157200000Y-50965000I800000J0D01*
G01*
D17*
X155968254Y-48136085D02*
X156298412Y-48136085D01*
X156298412Y-48136085D02*
X156120635Y-48339260D01*
X156120635Y-48339260D02*
X156196825Y-48339260D01*
X156196825Y-48339260D02*
X156247619Y-48364657D01*
X156247619Y-48364657D02*
X156273016Y-48390053D01*
X156273016Y-48390053D02*
X156298412Y-48440847D01*
X156298412Y-48440847D02*
X156298412Y-48567831D01*
X156298412Y-48567831D02*
X156273016Y-48618625D01*
X156273016Y-48618625D02*
X156247619Y-48644022D01*
X156247619Y-48644022D02*
X156196825Y-48669418D01*
X156196825Y-48669418D02*
X156044444Y-48669418D01*
X156044444Y-48669418D02*
X155993651Y-48644022D01*
X155993651Y-48644022D02*
X155968254Y-48618625D01*
X156552380Y-48669418D02*
X156653968Y-48669418D01*
X156653968Y-48669418D02*
X156704761Y-48644022D01*
X156704761Y-48644022D02*
X156730158Y-48618625D01*
X156730158Y-48618625D02*
X156780952Y-48542434D01*
X156780952Y-48542434D02*
X156806348Y-48440847D01*
X156806348Y-48440847D02*
X156806348Y-48237673D01*
X156806348Y-48237673D02*
X156780952Y-48186879D01*
X156780952Y-48186879D02*
X156755555Y-48161482D01*
X156755555Y-48161482D02*
X156704761Y-48136085D01*
X156704761Y-48136085D02*
X156603174Y-48136085D01*
X156603174Y-48136085D02*
X156552380Y-48161482D01*
X156552380Y-48161482D02*
X156526984Y-48186879D01*
X156526984Y-48186879D02*
X156501587Y-48237673D01*
X156501587Y-48237673D02*
X156501587Y-48364657D01*
X156501587Y-48364657D02*
X156526984Y-48415450D01*
X156526984Y-48415450D02*
X156552380Y-48440847D01*
X156552380Y-48440847D02*
X156603174Y-48466244D01*
X156603174Y-48466244D02*
X156704761Y-48466244D01*
X156704761Y-48466244D02*
X156755555Y-48440847D01*
X156755555Y-48440847D02*
X156780952Y-48415450D01*
X156780952Y-48415450D02*
X156806348Y-48364657D01*
D11*
X157200000Y-48425000D02*
G75*
G02*
X155600000Y-48425000I-800000J0D01*
G01*
X155600000Y-48425000D02*
G75*
G02*
X157200000Y-48425000I800000J0D01*
G01*
D17*
X156247619Y-45773863D02*
X156247619Y-46129418D01*
X156120635Y-45570689D02*
X155993651Y-45951641D01*
X155993651Y-45951641D02*
X156323809Y-45951641D01*
X156628571Y-45596085D02*
X156679364Y-45596085D01*
X156679364Y-45596085D02*
X156730158Y-45621482D01*
X156730158Y-45621482D02*
X156755555Y-45646879D01*
X156755555Y-45646879D02*
X156780952Y-45697673D01*
X156780952Y-45697673D02*
X156806348Y-45799260D01*
X156806348Y-45799260D02*
X156806348Y-45926244D01*
X156806348Y-45926244D02*
X156780952Y-46027831D01*
X156780952Y-46027831D02*
X156755555Y-46078625D01*
X156755555Y-46078625D02*
X156730158Y-46104022D01*
X156730158Y-46104022D02*
X156679364Y-46129418D01*
X156679364Y-46129418D02*
X156628571Y-46129418D01*
X156628571Y-46129418D02*
X156577777Y-46104022D01*
X156577777Y-46104022D02*
X156552380Y-46078625D01*
X156552380Y-46078625D02*
X156526984Y-46027831D01*
X156526984Y-46027831D02*
X156501587Y-45926244D01*
X156501587Y-45926244D02*
X156501587Y-45799260D01*
X156501587Y-45799260D02*
X156526984Y-45697673D01*
X156526984Y-45697673D02*
X156552380Y-45646879D01*
X156552380Y-45646879D02*
X156577777Y-45621482D01*
X156577777Y-45621482D02*
X156628571Y-45596085D01*
D11*
X157200000Y-45885000D02*
G75*
G02*
X155600000Y-45885000I-800000J0D01*
G01*
X155600000Y-45885000D02*
G75*
G02*
X157200000Y-45885000I800000J0D01*
G01*
%TD*%
D18*
X56475714Y-53458285D02*
X55904286Y-53458285D01*
X56190000Y-53458285D02*
X56190000Y-52458285D01*
X56190000Y-52458285D02*
X56094762Y-52601142D01*
X56094762Y-52601142D02*
X55999524Y-52696380D01*
X55999524Y-52696380D02*
X55904286Y-52743999D01*
D11*
%TO.C,L601*%
X57690000Y-53000000D02*
G75*
G02*
X54690000Y-53000000I-1500000J0D01*
G01*
X54690000Y-53000000D02*
G75*
G02*
X57690000Y-53000000I1500000J0D01*
G01*
D18*
X63524286Y-52553523D02*
X63571905Y-52505904D01*
X63571905Y-52505904D02*
X63667143Y-52458285D01*
X63667143Y-52458285D02*
X63905238Y-52458285D01*
X63905238Y-52458285D02*
X64000476Y-52505904D01*
X64000476Y-52505904D02*
X64048095Y-52553523D01*
X64048095Y-52553523D02*
X64095714Y-52648761D01*
X64095714Y-52648761D02*
X64095714Y-52743999D01*
X64095714Y-52743999D02*
X64048095Y-52886856D01*
X64048095Y-52886856D02*
X63476667Y-53458285D01*
X63476667Y-53458285D02*
X64095714Y-53458285D01*
D11*
X65310000Y-53000000D02*
G75*
G02*
X62310000Y-53000000I-1500000J0D01*
G01*
X62310000Y-53000000D02*
G75*
G02*
X65310000Y-53000000I1500000J0D01*
G01*
%TD*%
D15*
X90542857Y-47829142D02*
X90257143Y-47829142D01*
X90400000Y-47829142D02*
X90400000Y-47329142D01*
X90400000Y-47329142D02*
X90352381Y-47400571D01*
X90352381Y-47400571D02*
X90304762Y-47448190D01*
X90304762Y-47448190D02*
X90257143Y-47471999D01*
D11*
%TO.C,TP602*%
X91150000Y-47600000D02*
G75*
G02*
X89650000Y-47600000I-750000J0D01*
G01*
X89650000Y-47600000D02*
G75*
G02*
X91150000Y-47600000I750000J0D01*
G01*
%TD*%
D19*
X121988095Y-44131904D02*
X121511905Y-44131904D01*
X121750000Y-44131904D02*
X121750000Y-43298571D01*
X121750000Y-43298571D02*
X121670635Y-43417619D01*
X121670635Y-43417619D02*
X121591270Y-43496984D01*
X121591270Y-43496984D02*
X121511905Y-43536666D01*
D11*
%TO.C,RL102*%
X120500000Y-42500000D02*
X120500000Y-45000000D01*
X123000000Y-45000000D01*
X123000000Y-42500000D01*
X120500000Y-42500000D01*
D19*
X106511905Y-43377936D02*
X106551587Y-43338254D01*
X106551587Y-43338254D02*
X106630952Y-43298571D01*
X106630952Y-43298571D02*
X106829365Y-43298571D01*
X106829365Y-43298571D02*
X106908730Y-43338254D01*
X106908730Y-43338254D02*
X106948412Y-43377936D01*
X106948412Y-43377936D02*
X106988095Y-43457301D01*
X106988095Y-43457301D02*
X106988095Y-43536666D01*
X106988095Y-43536666D02*
X106948412Y-43655714D01*
X106948412Y-43655714D02*
X106472222Y-44131904D01*
X106472222Y-44131904D02*
X106988095Y-44131904D01*
D11*
X106750000Y-42500000D02*
X106750000Y-42500000D01*
X106750000Y-45000000D02*
G75*
G02*
X106750000Y-42500000I0J1250000D01*
G01*
X106750000Y-45000000D02*
X106750000Y-45000000D01*
X106750000Y-45000000D02*
G75*
G03*
X106750000Y-42500000I0J1250000D01*
G01*
D19*
X101472222Y-43298571D02*
X101988095Y-43298571D01*
X101988095Y-43298571D02*
X101710317Y-43616031D01*
X101710317Y-43616031D02*
X101829365Y-43616031D01*
X101829365Y-43616031D02*
X101908730Y-43655714D01*
X101908730Y-43655714D02*
X101948412Y-43695396D01*
X101948412Y-43695396D02*
X101988095Y-43774761D01*
X101988095Y-43774761D02*
X101988095Y-43973174D01*
X101988095Y-43973174D02*
X101948412Y-44052539D01*
X101948412Y-44052539D02*
X101908730Y-44092222D01*
X101908730Y-44092222D02*
X101829365Y-44131904D01*
X101829365Y-44131904D02*
X101591270Y-44131904D01*
X101591270Y-44131904D02*
X101511905Y-44092222D01*
X101511905Y-44092222D02*
X101472222Y-44052539D01*
D11*
X101750000Y-42500000D02*
X101750000Y-42500000D01*
X101750000Y-45000000D02*
G75*
G02*
X101750000Y-42500000I0J1250000D01*
G01*
X101750000Y-45000000D02*
X101750000Y-45000000D01*
X101750000Y-45000000D02*
G75*
G03*
X101750000Y-42500000I0J1250000D01*
G01*
D19*
X96908730Y-43576349D02*
X96908730Y-44131904D01*
X96710317Y-43258889D02*
X96511905Y-43854126D01*
X96511905Y-43854126D02*
X97027777Y-43854126D01*
D11*
X96750000Y-42500000D02*
X96750000Y-42500000D01*
X96750000Y-45000000D02*
G75*
G02*
X96750000Y-42500000I0J1250000D01*
G01*
X96750000Y-45000000D02*
X96750000Y-45000000D01*
X96750000Y-45000000D02*
G75*
G03*
X96750000Y-42500000I0J1250000D01*
G01*
D19*
X96948412Y-50798571D02*
X96551587Y-50798571D01*
X96551587Y-50798571D02*
X96511905Y-51195396D01*
X96511905Y-51195396D02*
X96551587Y-51155714D01*
X96551587Y-51155714D02*
X96630952Y-51116031D01*
X96630952Y-51116031D02*
X96829365Y-51116031D01*
X96829365Y-51116031D02*
X96908730Y-51155714D01*
X96908730Y-51155714D02*
X96948412Y-51195396D01*
X96948412Y-51195396D02*
X96988095Y-51274761D01*
X96988095Y-51274761D02*
X96988095Y-51473174D01*
X96988095Y-51473174D02*
X96948412Y-51552539D01*
X96948412Y-51552539D02*
X96908730Y-51592222D01*
X96908730Y-51592222D02*
X96829365Y-51631904D01*
X96829365Y-51631904D02*
X96630952Y-51631904D01*
X96630952Y-51631904D02*
X96551587Y-51592222D01*
X96551587Y-51592222D02*
X96511905Y-51552539D01*
D11*
X96750000Y-50000000D02*
X96750000Y-50000000D01*
X96750000Y-52500000D02*
G75*
G02*
X96750000Y-50000000I0J1250000D01*
G01*
X96750000Y-52500000D02*
X96750000Y-52500000D01*
X96750000Y-52500000D02*
G75*
G03*
X96750000Y-50000000I0J1250000D01*
G01*
D19*
X101908730Y-50798571D02*
X101750000Y-50798571D01*
X101750000Y-50798571D02*
X101670635Y-50838254D01*
X101670635Y-50838254D02*
X101630952Y-50877936D01*
X101630952Y-50877936D02*
X101551587Y-50996984D01*
X101551587Y-50996984D02*
X101511905Y-51155714D01*
X101511905Y-51155714D02*
X101511905Y-51473174D01*
X101511905Y-51473174D02*
X101551587Y-51552539D01*
X101551587Y-51552539D02*
X101591270Y-51592222D01*
X101591270Y-51592222D02*
X101670635Y-51631904D01*
X101670635Y-51631904D02*
X101829365Y-51631904D01*
X101829365Y-51631904D02*
X101908730Y-51592222D01*
X101908730Y-51592222D02*
X101948412Y-51552539D01*
X101948412Y-51552539D02*
X101988095Y-51473174D01*
X101988095Y-51473174D02*
X101988095Y-51274761D01*
X101988095Y-51274761D02*
X101948412Y-51195396D01*
X101948412Y-51195396D02*
X101908730Y-51155714D01*
X101908730Y-51155714D02*
X101829365Y-51116031D01*
X101829365Y-51116031D02*
X101670635Y-51116031D01*
X101670635Y-51116031D02*
X101591270Y-51155714D01*
X101591270Y-51155714D02*
X101551587Y-51195396D01*
X101551587Y-51195396D02*
X101511905Y-51274761D01*
D11*
X101750000Y-50000000D02*
X101750000Y-50000000D01*
X101750000Y-52500000D02*
G75*
G02*
X101750000Y-50000000I0J1250000D01*
G01*
X101750000Y-52500000D02*
X101750000Y-52500000D01*
X101750000Y-52500000D02*
G75*
G03*
X101750000Y-50000000I0J1250000D01*
G01*
D19*
X106472222Y-50798571D02*
X107027777Y-50798571D01*
X107027777Y-50798571D02*
X106670635Y-51631904D01*
D11*
X106750000Y-50000000D02*
X106750000Y-50000000D01*
X106750000Y-52500000D02*
G75*
G02*
X106750000Y-50000000I0J1250000D01*
G01*
X106750000Y-52500000D02*
X106750000Y-52500000D01*
X106750000Y-52500000D02*
G75*
G03*
X106750000Y-50000000I0J1250000D01*
G01*
D19*
X121670635Y-51155714D02*
X121591270Y-51116031D01*
X121591270Y-51116031D02*
X121551587Y-51076349D01*
X121551587Y-51076349D02*
X121511905Y-50996984D01*
X121511905Y-50996984D02*
X121511905Y-50957301D01*
X121511905Y-50957301D02*
X121551587Y-50877936D01*
X121551587Y-50877936D02*
X121591270Y-50838254D01*
X121591270Y-50838254D02*
X121670635Y-50798571D01*
X121670635Y-50798571D02*
X121829365Y-50798571D01*
X121829365Y-50798571D02*
X121908730Y-50838254D01*
X121908730Y-50838254D02*
X121948412Y-50877936D01*
X121948412Y-50877936D02*
X121988095Y-50957301D01*
X121988095Y-50957301D02*
X121988095Y-50996984D01*
X121988095Y-50996984D02*
X121948412Y-51076349D01*
X121948412Y-51076349D02*
X121908730Y-51116031D01*
X121908730Y-51116031D02*
X121829365Y-51155714D01*
X121829365Y-51155714D02*
X121670635Y-51155714D01*
X121670635Y-51155714D02*
X121591270Y-51195396D01*
X121591270Y-51195396D02*
X121551587Y-51235079D01*
X121551587Y-51235079D02*
X121511905Y-51314444D01*
X121511905Y-51314444D02*
X121511905Y-51473174D01*
X121511905Y-51473174D02*
X121551587Y-51552539D01*
X121551587Y-51552539D02*
X121591270Y-51592222D01*
X121591270Y-51592222D02*
X121670635Y-51631904D01*
X121670635Y-51631904D02*
X121829365Y-51631904D01*
X121829365Y-51631904D02*
X121908730Y-51592222D01*
X121908730Y-51592222D02*
X121948412Y-51552539D01*
X121948412Y-51552539D02*
X121988095Y-51473174D01*
X121988095Y-51473174D02*
X121988095Y-51314444D01*
X121988095Y-51314444D02*
X121948412Y-51235079D01*
X121948412Y-51235079D02*
X121908730Y-51195396D01*
X121908730Y-51195396D02*
X121829365Y-51155714D01*
D11*
X121750000Y-50000000D02*
X121750000Y-50000000D01*
X121750000Y-52500000D02*
G75*
G02*
X121750000Y-50000000I0J1250000D01*
G01*
X121750000Y-52500000D02*
X121750000Y-52500000D01*
X121750000Y-52500000D02*
G75*
G03*
X121750000Y-50000000I0J1250000D01*
G01*
%TD*%
D20*
X134644426Y-103453043D02*
X134644426Y-103824472D01*
X134644426Y-103638758D02*
X133994426Y-103638758D01*
X133994426Y-103638758D02*
X134087283Y-103700662D01*
X134087283Y-103700662D02*
X134149188Y-103762567D01*
X134149188Y-103762567D02*
X134180140Y-103824472D01*
D11*
D14*
%TO.C,J407*%
D11*
X135196541Y-104363758D02*
X135177511Y-104459429D01*
X135123318Y-104540535D01*
X135042212Y-104594728D01*
X134946541Y-104613758D01*
X133746541Y-104613758D01*
X133650870Y-104594728D01*
X133569764Y-104540535D01*
X133515571Y-104459429D01*
X133496541Y-104363758D01*
X133496541Y-102913758D01*
X133515571Y-102818087D01*
X133569764Y-102736981D01*
X133650870Y-102682788D01*
X133746541Y-102663758D01*
X134946541Y-102663758D01*
X135042212Y-102682788D01*
X135123318Y-102736981D01*
X135177511Y-102818087D01*
X135196541Y-102913758D01*
X135196541Y-104363758D01*
D20*
X131556331Y-103824472D02*
X131525378Y-103793520D01*
X131525378Y-103793520D02*
X131494426Y-103731615D01*
X131494426Y-103731615D02*
X131494426Y-103576853D01*
X131494426Y-103576853D02*
X131525378Y-103514948D01*
X131525378Y-103514948D02*
X131556331Y-103483996D01*
X131556331Y-103483996D02*
X131618235Y-103453043D01*
X131618235Y-103453043D02*
X131680140Y-103453043D01*
X131680140Y-103453043D02*
X131772997Y-103483996D01*
X131772997Y-103483996D02*
X132144426Y-103855424D01*
X132144426Y-103855424D02*
X132144426Y-103453043D01*
D11*
X132696541Y-103763758D02*
X132696541Y-103513758D01*
X130996541Y-103513758D02*
G75*
G02*
X132696541Y-103513758I850000J0D01*
G01*
X130996541Y-103513758D02*
X130996541Y-103763758D01*
X130996541Y-103763758D02*
G75*
G03*
X132696541Y-103763758I850000J0D01*
G01*
D20*
X128994426Y-103855424D02*
X128994426Y-103453043D01*
X128994426Y-103453043D02*
X129242045Y-103669710D01*
X129242045Y-103669710D02*
X129242045Y-103576853D01*
X129242045Y-103576853D02*
X129272997Y-103514948D01*
X129272997Y-103514948D02*
X129303950Y-103483996D01*
X129303950Y-103483996D02*
X129365854Y-103453043D01*
X129365854Y-103453043D02*
X129520616Y-103453043D01*
X129520616Y-103453043D02*
X129582521Y-103483996D01*
X129582521Y-103483996D02*
X129613474Y-103514948D01*
X129613474Y-103514948D02*
X129644426Y-103576853D01*
X129644426Y-103576853D02*
X129644426Y-103762567D01*
X129644426Y-103762567D02*
X129613474Y-103824472D01*
X129613474Y-103824472D02*
X129582521Y-103855424D01*
D11*
X130196541Y-103763758D02*
X130196541Y-103513758D01*
X128496541Y-103513758D02*
G75*
G02*
X130196541Y-103513758I850000J0D01*
G01*
X128496541Y-103513758D02*
X128496541Y-103763758D01*
X128496541Y-103763758D02*
G75*
G03*
X130196541Y-103763758I850000J0D01*
G01*
D20*
X126711093Y-103514948D02*
X127144426Y-103514948D01*
X126463474Y-103669710D02*
X126927759Y-103824472D01*
X126927759Y-103824472D02*
X126927759Y-103422091D01*
D11*
X127696541Y-103763758D02*
X127696541Y-103513758D01*
X125996541Y-103513758D02*
G75*
G02*
X127696541Y-103513758I850000J0D01*
G01*
X125996541Y-103513758D02*
X125996541Y-103763758D01*
X125996541Y-103763758D02*
G75*
G03*
X127696541Y-103763758I850000J0D01*
G01*
D20*
X123994426Y-103483996D02*
X123994426Y-103793520D01*
X123994426Y-103793520D02*
X124303950Y-103824472D01*
X124303950Y-103824472D02*
X124272997Y-103793520D01*
X124272997Y-103793520D02*
X124242045Y-103731615D01*
X124242045Y-103731615D02*
X124242045Y-103576853D01*
X124242045Y-103576853D02*
X124272997Y-103514948D01*
X124272997Y-103514948D02*
X124303950Y-103483996D01*
X124303950Y-103483996D02*
X124365854Y-103453043D01*
X124365854Y-103453043D02*
X124520616Y-103453043D01*
X124520616Y-103453043D02*
X124582521Y-103483996D01*
X124582521Y-103483996D02*
X124613474Y-103514948D01*
X124613474Y-103514948D02*
X124644426Y-103576853D01*
X124644426Y-103576853D02*
X124644426Y-103731615D01*
X124644426Y-103731615D02*
X124613474Y-103793520D01*
X124613474Y-103793520D02*
X124582521Y-103824472D01*
D11*
X125196541Y-103763758D02*
X125196541Y-103513758D01*
X123496541Y-103513758D02*
G75*
G02*
X125196541Y-103513758I850000J0D01*
G01*
X123496541Y-103513758D02*
X123496541Y-103763758D01*
X123496541Y-103763758D02*
G75*
G03*
X125196541Y-103763758I850000J0D01*
G01*
%TD*%
D15*
X153436787Y-83790218D02*
X153151073Y-83790218D01*
X153293930Y-83790218D02*
X153293930Y-83290218D01*
X153293930Y-83290218D02*
X153246311Y-83361647D01*
X153246311Y-83361647D02*
X153198692Y-83409266D01*
X153198692Y-83409266D02*
X153151073Y-83433075D01*
D11*
%TO.C,TP112*%
X154043930Y-83561076D02*
G75*
G02*
X152543930Y-83561076I-750000J0D01*
G01*
X152543930Y-83561076D02*
G75*
G02*
X154043930Y-83561076I750000J0D01*
G01*
%TD*%
D15*
X106392857Y-55729142D02*
X106107143Y-55729142D01*
X106250000Y-55729142D02*
X106250000Y-55229142D01*
X106250000Y-55229142D02*
X106202381Y-55300571D01*
X106202381Y-55300571D02*
X106154762Y-55348190D01*
X106154762Y-55348190D02*
X106107143Y-55371999D01*
D11*
%TO.C,TP103*%
X107000000Y-55500000D02*
G75*
G02*
X105500000Y-55500000I-750000J0D01*
G01*
X105500000Y-55500000D02*
G75*
G02*
X107000000Y-55500000I750000J0D01*
G01*
%TD*%
D12*
X58609523Y-28977676D02*
X57390476Y-28977676D01*
X57999999Y-28977676D02*
X57999999Y-26844343D01*
X57999999Y-26844343D02*
X57796825Y-27149105D01*
X57796825Y-27149105D02*
X57593650Y-27352279D01*
X57593650Y-27352279D02*
X57390476Y-27453867D01*
D11*
%TO.C,H401*%
X61200000Y-28000000D02*
G75*
G02*
X54800000Y-28000000I-3200000J0D01*
G01*
X54800000Y-28000000D02*
G75*
G02*
X61200000Y-28000000I3200000J0D01*
G01*
%TD*%
D21*
X109154346Y-28503092D02*
X108791489Y-28503092D01*
X108972917Y-28503092D02*
X108972917Y-27868092D01*
X108972917Y-27868092D02*
X108912441Y-27958806D01*
X108912441Y-27958806D02*
X108851965Y-28019282D01*
X108851965Y-28019282D02*
X108791489Y-28049520D01*
D11*
%TO.C,Q301*%
X108020418Y-27212081D02*
X108020418Y-29212081D01*
X109925418Y-29212081D01*
X109925418Y-27212081D01*
X108020418Y-27212081D01*
D21*
X111331489Y-27928568D02*
X111361727Y-27898330D01*
X111361727Y-27898330D02*
X111422203Y-27868092D01*
X111422203Y-27868092D02*
X111573394Y-27868092D01*
X111573394Y-27868092D02*
X111633870Y-27898330D01*
X111633870Y-27898330D02*
X111664108Y-27928568D01*
X111664108Y-27928568D02*
X111694346Y-27989044D01*
X111694346Y-27989044D02*
X111694346Y-28049520D01*
X111694346Y-28049520D02*
X111664108Y-28140234D01*
X111664108Y-28140234D02*
X111301251Y-28503092D01*
X111301251Y-28503092D02*
X111694346Y-28503092D01*
D11*
X110560418Y-28164581D02*
X110560418Y-28259581D01*
X112465418Y-28259581D02*
G75*
G02*
X110560418Y-28259581I-952500J0D01*
G01*
X112465418Y-28259581D02*
X112465418Y-28164581D01*
X112465418Y-28164581D02*
G75*
G03*
X110560418Y-28164581I-952500J0D01*
G01*
D21*
X113841251Y-27868092D02*
X114234346Y-27868092D01*
X114234346Y-27868092D02*
X114022679Y-28109996D01*
X114022679Y-28109996D02*
X114113394Y-28109996D01*
X114113394Y-28109996D02*
X114173870Y-28140234D01*
X114173870Y-28140234D02*
X114204108Y-28170473D01*
X114204108Y-28170473D02*
X114234346Y-28230949D01*
X114234346Y-28230949D02*
X114234346Y-28382139D01*
X114234346Y-28382139D02*
X114204108Y-28442615D01*
X114204108Y-28442615D02*
X114173870Y-28472854D01*
X114173870Y-28472854D02*
X114113394Y-28503092D01*
X114113394Y-28503092D02*
X113931965Y-28503092D01*
X113931965Y-28503092D02*
X113871489Y-28472854D01*
X113871489Y-28472854D02*
X113841251Y-28442615D01*
D11*
X113100418Y-28164581D02*
X113100418Y-28259581D01*
X115005418Y-28259581D02*
G75*
G02*
X113100418Y-28259581I-952500J0D01*
G01*
X115005418Y-28259581D02*
X115005418Y-28164581D01*
X115005418Y-28164581D02*
G75*
G03*
X113100418Y-28164581I-952500J0D01*
G01*
%TD*%
D15*
X131225139Y-55263397D02*
X130939425Y-55263397D01*
X131082282Y-55263397D02*
X131082282Y-54763397D01*
X131082282Y-54763397D02*
X131034663Y-54834826D01*
X131034663Y-54834826D02*
X130987044Y-54882445D01*
X130987044Y-54882445D02*
X130939425Y-54906254D01*
D11*
%TO.C,TP505*%
X131832282Y-55034255D02*
G75*
G02*
X130332282Y-55034255I-750000J0D01*
G01*
X130332282Y-55034255D02*
G75*
G02*
X131832282Y-55034255I750000J0D01*
G01*
%TD*%
D15*
X114142857Y-98229142D02*
X113857143Y-98229142D01*
X114000000Y-98229142D02*
X114000000Y-97729142D01*
X114000000Y-97729142D02*
X113952381Y-97800571D01*
X113952381Y-97800571D02*
X113904762Y-97848190D01*
X113904762Y-97848190D02*
X113857143Y-97871999D01*
D11*
%TO.C,TP206*%
X114750000Y-98000000D02*
G75*
G02*
X113250000Y-98000000I-750000J0D01*
G01*
X113250000Y-98000000D02*
G75*
G02*
X114750000Y-98000000I750000J0D01*
G01*
%TD*%
D13*
X58888543Y-80376309D02*
X58393306Y-80376309D01*
X58640925Y-80376309D02*
X58640925Y-79509643D01*
X58640925Y-79509643D02*
X58558385Y-79633453D01*
X58558385Y-79633453D02*
X58475845Y-79715992D01*
X58475845Y-79715992D02*
X58393306Y-79757262D01*
D11*
D14*
%TO.C,J101*%
D11*
X59690925Y-78679129D02*
X59786596Y-78698159D01*
X59867702Y-78752352D01*
X59921895Y-78833458D01*
X59940925Y-78929129D01*
X59940925Y-81029129D01*
X59921895Y-81124800D01*
X59867702Y-81205906D01*
X59786596Y-81260099D01*
X59690925Y-81279129D01*
X57590925Y-81279129D01*
X57495254Y-81260099D01*
X57414148Y-81205906D01*
X57359955Y-81124800D01*
X57340925Y-81029129D01*
X57340925Y-78929129D01*
X57359955Y-78833458D01*
X57414148Y-78752352D01*
X57495254Y-78698159D01*
X57590925Y-78679129D01*
X59690925Y-78679129D01*
D13*
X58393306Y-84592183D02*
X58434576Y-84550913D01*
X58434576Y-84550913D02*
X58517115Y-84509643D01*
X58517115Y-84509643D02*
X58723464Y-84509643D01*
X58723464Y-84509643D02*
X58806004Y-84550913D01*
X58806004Y-84550913D02*
X58847274Y-84592183D01*
X58847274Y-84592183D02*
X58888543Y-84674723D01*
X58888543Y-84674723D02*
X58888543Y-84757262D01*
X58888543Y-84757262D02*
X58847274Y-84881072D01*
X58847274Y-84881072D02*
X58352036Y-85376309D01*
X58352036Y-85376309D02*
X58888543Y-85376309D01*
D11*
X59940925Y-84979129D02*
G75*
G02*
X57340925Y-84979129I-1300000J0D01*
G01*
X57340925Y-84979129D02*
G75*
G02*
X59940925Y-84979129I1300000J0D01*
G01*
%TD*%
D10*
X91511904Y-93329695D02*
X91188095Y-93329695D01*
X91349999Y-93329695D02*
X91349999Y-92763029D01*
X91349999Y-92763029D02*
X91296031Y-92843981D01*
X91296031Y-92843981D02*
X91242063Y-92897949D01*
X91242063Y-92897949D02*
X91188095Y-92924933D01*
D11*
D14*
%TO.C,J201*%
D11*
X90750000Y-93920000D02*
X90654329Y-93900970D01*
X90573223Y-93846777D01*
X90519030Y-93765671D01*
X90500000Y-93670000D01*
X90500000Y-92470000D01*
X90519030Y-92374329D01*
X90573223Y-92293223D01*
X90654329Y-92239030D01*
X90750000Y-92220000D01*
X91950000Y-92220000D01*
X92045671Y-92239030D01*
X92126777Y-92293223D01*
X92180970Y-92374329D01*
X92200000Y-92470000D01*
X92200000Y-93670000D01*
X92180970Y-93765671D01*
X92126777Y-93846777D01*
X92045671Y-93900970D01*
X91950000Y-93920000D01*
X90750000Y-93920000D01*
D10*
X93728095Y-92816997D02*
X93755079Y-92790013D01*
X93755079Y-92790013D02*
X93809047Y-92763029D01*
X93809047Y-92763029D02*
X93943968Y-92763029D01*
X93943968Y-92763029D02*
X93997936Y-92790013D01*
X93997936Y-92790013D02*
X94024920Y-92816997D01*
X94024920Y-92816997D02*
X94051904Y-92870965D01*
X94051904Y-92870965D02*
X94051904Y-92924933D01*
X94051904Y-92924933D02*
X94024920Y-93005885D01*
X94024920Y-93005885D02*
X93701111Y-93329695D01*
X93701111Y-93329695D02*
X94051904Y-93329695D01*
D11*
D14*
D11*
X93290000Y-93920000D02*
X93194329Y-93900970D01*
X93113223Y-93846777D01*
X93059030Y-93765671D01*
X93040000Y-93670000D01*
X93040000Y-92470000D01*
X93059030Y-92374329D01*
X93113223Y-92293223D01*
X93194329Y-92239030D01*
X93290000Y-92220000D01*
X94490000Y-92220000D01*
X94585671Y-92239030D01*
X94666777Y-92293223D01*
X94720970Y-92374329D01*
X94740000Y-92470000D01*
X94740000Y-93670000D01*
X94720970Y-93765671D01*
X94666777Y-93846777D01*
X94585671Y-93900970D01*
X94490000Y-93920000D01*
X93290000Y-93920000D01*
D10*
X96241111Y-92763029D02*
X96591904Y-92763029D01*
X96591904Y-92763029D02*
X96403015Y-92978901D01*
X96403015Y-92978901D02*
X96483968Y-92978901D01*
X96483968Y-92978901D02*
X96537936Y-93005885D01*
X96537936Y-93005885D02*
X96564920Y-93032870D01*
X96564920Y-93032870D02*
X96591904Y-93086838D01*
X96591904Y-93086838D02*
X96591904Y-93221758D01*
X96591904Y-93221758D02*
X96564920Y-93275726D01*
X96564920Y-93275726D02*
X96537936Y-93302711D01*
X96537936Y-93302711D02*
X96483968Y-93329695D01*
X96483968Y-93329695D02*
X96322063Y-93329695D01*
X96322063Y-93329695D02*
X96268095Y-93302711D01*
X96268095Y-93302711D02*
X96241111Y-93275726D01*
D11*
D14*
D11*
X95830000Y-93920000D02*
X95734329Y-93900970D01*
X95653223Y-93846777D01*
X95599030Y-93765671D01*
X95580000Y-93670000D01*
X95580000Y-92470000D01*
X95599030Y-92374329D01*
X95653223Y-92293223D01*
X95734329Y-92239030D01*
X95830000Y-92220000D01*
X97030000Y-92220000D01*
X97125671Y-92239030D01*
X97206777Y-92293223D01*
X97260970Y-92374329D01*
X97280000Y-92470000D01*
X97280000Y-93670000D01*
X97260970Y-93765671D01*
X97206777Y-93846777D01*
X97125671Y-93900970D01*
X97030000Y-93920000D01*
X95830000Y-93920000D01*
D10*
X99077936Y-92951917D02*
X99077936Y-93329695D01*
X98943015Y-92736045D02*
X98808095Y-93140806D01*
X98808095Y-93140806D02*
X99158888Y-93140806D01*
D11*
D14*
D11*
X98370000Y-93920000D02*
X98274329Y-93900970D01*
X98193223Y-93846777D01*
X98139030Y-93765671D01*
X98120000Y-93670000D01*
X98120000Y-92470000D01*
X98139030Y-92374329D01*
X98193223Y-92293223D01*
X98274329Y-92239030D01*
X98370000Y-92220000D01*
X99570000Y-92220000D01*
X99665671Y-92239030D01*
X99746777Y-92293223D01*
X99800970Y-92374329D01*
X99820000Y-92470000D01*
X99820000Y-93670000D01*
X99800970Y-93765671D01*
X99746777Y-93846777D01*
X99665671Y-93900970D01*
X99570000Y-93920000D01*
X98370000Y-93920000D01*
D10*
X91484920Y-74983029D02*
X91215079Y-74983029D01*
X91215079Y-74983029D02*
X91188095Y-75252870D01*
X91188095Y-75252870D02*
X91215079Y-75225885D01*
X91215079Y-75225885D02*
X91269047Y-75198901D01*
X91269047Y-75198901D02*
X91403968Y-75198901D01*
X91403968Y-75198901D02*
X91457936Y-75225885D01*
X91457936Y-75225885D02*
X91484920Y-75252870D01*
X91484920Y-75252870D02*
X91511904Y-75306838D01*
X91511904Y-75306838D02*
X91511904Y-75441758D01*
X91511904Y-75441758D02*
X91484920Y-75495726D01*
X91484920Y-75495726D02*
X91457936Y-75522711D01*
X91457936Y-75522711D02*
X91403968Y-75549695D01*
X91403968Y-75549695D02*
X91269047Y-75549695D01*
X91269047Y-75549695D02*
X91215079Y-75522711D01*
X91215079Y-75522711D02*
X91188095Y-75495726D01*
D11*
D14*
D11*
X90750000Y-76140000D02*
X90654329Y-76120970D01*
X90573223Y-76066777D01*
X90519030Y-75985671D01*
X90500000Y-75890000D01*
X90500000Y-74690000D01*
X90519030Y-74594329D01*
X90573223Y-74513223D01*
X90654329Y-74459030D01*
X90750000Y-74440000D01*
X91950000Y-74440000D01*
X92045671Y-74459030D01*
X92126777Y-74513223D01*
X92180970Y-74594329D01*
X92200000Y-74690000D01*
X92200000Y-75890000D01*
X92180970Y-75985671D01*
X92126777Y-76066777D01*
X92045671Y-76120970D01*
X91950000Y-76140000D01*
X90750000Y-76140000D01*
D10*
X93997936Y-74983029D02*
X93889999Y-74983029D01*
X93889999Y-74983029D02*
X93836031Y-75010013D01*
X93836031Y-75010013D02*
X93809047Y-75036997D01*
X93809047Y-75036997D02*
X93755079Y-75117949D01*
X93755079Y-75117949D02*
X93728095Y-75225885D01*
X93728095Y-75225885D02*
X93728095Y-75441758D01*
X93728095Y-75441758D02*
X93755079Y-75495726D01*
X93755079Y-75495726D02*
X93782063Y-75522711D01*
X93782063Y-75522711D02*
X93836031Y-75549695D01*
X93836031Y-75549695D02*
X93943968Y-75549695D01*
X93943968Y-75549695D02*
X93997936Y-75522711D01*
X93997936Y-75522711D02*
X94024920Y-75495726D01*
X94024920Y-75495726D02*
X94051904Y-75441758D01*
X94051904Y-75441758D02*
X94051904Y-75306838D01*
X94051904Y-75306838D02*
X94024920Y-75252870D01*
X94024920Y-75252870D02*
X93997936Y-75225885D01*
X93997936Y-75225885D02*
X93943968Y-75198901D01*
X93943968Y-75198901D02*
X93836031Y-75198901D01*
X93836031Y-75198901D02*
X93782063Y-75225885D01*
X93782063Y-75225885D02*
X93755079Y-75252870D01*
X93755079Y-75252870D02*
X93728095Y-75306838D01*
D11*
D14*
D11*
X93290000Y-76140000D02*
X93194329Y-76120970D01*
X93113223Y-76066777D01*
X93059030Y-75985671D01*
X93040000Y-75890000D01*
X93040000Y-74690000D01*
X93059030Y-74594329D01*
X93113223Y-74513223D01*
X93194329Y-74459030D01*
X93290000Y-74440000D01*
X94490000Y-74440000D01*
X94585671Y-74459030D01*
X94666777Y-74513223D01*
X94720970Y-74594329D01*
X94740000Y-74690000D01*
X94740000Y-75890000D01*
X94720970Y-75985671D01*
X94666777Y-76066777D01*
X94585671Y-76120970D01*
X94490000Y-76140000D01*
X93290000Y-76140000D01*
D10*
X96241111Y-74983029D02*
X96618888Y-74983029D01*
X96618888Y-74983029D02*
X96376031Y-75549695D01*
D11*
D14*
D11*
X95830000Y-76140000D02*
X95734329Y-76120970D01*
X95653223Y-76066777D01*
X95599030Y-75985671D01*
X95580000Y-75890000D01*
X95580000Y-74690000D01*
X95599030Y-74594329D01*
X95653223Y-74513223D01*
X95734329Y-74459030D01*
X95830000Y-74440000D01*
X97030000Y-74440000D01*
X97125671Y-74459030D01*
X97206777Y-74513223D01*
X97260970Y-74594329D01*
X97280000Y-74690000D01*
X97280000Y-75890000D01*
X97260970Y-75985671D01*
X97206777Y-76066777D01*
X97125671Y-76120970D01*
X97030000Y-76140000D01*
X95830000Y-76140000D01*
D10*
X98916031Y-75225885D02*
X98862063Y-75198901D01*
X98862063Y-75198901D02*
X98835079Y-75171917D01*
X98835079Y-75171917D02*
X98808095Y-75117949D01*
X98808095Y-75117949D02*
X98808095Y-75090965D01*
X98808095Y-75090965D02*
X98835079Y-75036997D01*
X98835079Y-75036997D02*
X98862063Y-75010013D01*
X98862063Y-75010013D02*
X98916031Y-74983029D01*
X98916031Y-74983029D02*
X99023968Y-74983029D01*
X99023968Y-74983029D02*
X99077936Y-75010013D01*
X99077936Y-75010013D02*
X99104920Y-75036997D01*
X99104920Y-75036997D02*
X99131904Y-75090965D01*
X99131904Y-75090965D02*
X99131904Y-75117949D01*
X99131904Y-75117949D02*
X99104920Y-75171917D01*
X99104920Y-75171917D02*
X99077936Y-75198901D01*
X99077936Y-75198901D02*
X99023968Y-75225885D01*
X99023968Y-75225885D02*
X98916031Y-75225885D01*
X98916031Y-75225885D02*
X98862063Y-75252870D01*
X98862063Y-75252870D02*
X98835079Y-75279854D01*
X98835079Y-75279854D02*
X98808095Y-75333822D01*
X98808095Y-75333822D02*
X98808095Y-75441758D01*
X98808095Y-75441758D02*
X98835079Y-75495726D01*
X98835079Y-75495726D02*
X98862063Y-75522711D01*
X98862063Y-75522711D02*
X98916031Y-75549695D01*
X98916031Y-75549695D02*
X99023968Y-75549695D01*
X99023968Y-75549695D02*
X99077936Y-75522711D01*
X99077936Y-75522711D02*
X99104920Y-75495726D01*
X99104920Y-75495726D02*
X99131904Y-75441758D01*
X99131904Y-75441758D02*
X99131904Y-75333822D01*
X99131904Y-75333822D02*
X99104920Y-75279854D01*
X99104920Y-75279854D02*
X99077936Y-75252870D01*
X99077936Y-75252870D02*
X99023968Y-75225885D01*
D11*
D14*
D11*
X98370000Y-76140000D02*
X98274329Y-76120970D01*
X98193223Y-76066777D01*
X98139030Y-75985671D01*
X98120000Y-75890000D01*
X98120000Y-74690000D01*
X98139030Y-74594329D01*
X98193223Y-74513223D01*
X98274329Y-74459030D01*
X98370000Y-74440000D01*
X99570000Y-74440000D01*
X99665671Y-74459030D01*
X99746777Y-74513223D01*
X99800970Y-74594329D01*
X99820000Y-74690000D01*
X99820000Y-75890000D01*
X99800970Y-75985671D01*
X99746777Y-76066777D01*
X99665671Y-76120970D01*
X99570000Y-76140000D01*
X98370000Y-76140000D01*
%TD*%
D20*
X118677490Y-103453043D02*
X118677490Y-103824472D01*
X118677490Y-103638758D02*
X118027490Y-103638758D01*
X118027490Y-103638758D02*
X118120347Y-103700662D01*
X118120347Y-103700662D02*
X118182252Y-103762567D01*
X118182252Y-103762567D02*
X118213204Y-103824472D01*
D11*
D14*
%TO.C,J401*%
D11*
X119229605Y-104363758D02*
X119210575Y-104459429D01*
X119156382Y-104540535D01*
X119075276Y-104594728D01*
X118979605Y-104613758D01*
X117779605Y-104613758D01*
X117683934Y-104594728D01*
X117602828Y-104540535D01*
X117548635Y-104459429D01*
X117529605Y-104363758D01*
X117529605Y-102913758D01*
X117548635Y-102818087D01*
X117602828Y-102736981D01*
X117683934Y-102682788D01*
X117779605Y-102663758D01*
X118979605Y-102663758D01*
X119075276Y-102682788D01*
X119156382Y-102736981D01*
X119210575Y-102818087D01*
X119229605Y-102913758D01*
X119229605Y-104363758D01*
D20*
X115589395Y-103824472D02*
X115558442Y-103793520D01*
X115558442Y-103793520D02*
X115527490Y-103731615D01*
X115527490Y-103731615D02*
X115527490Y-103576853D01*
X115527490Y-103576853D02*
X115558442Y-103514948D01*
X115558442Y-103514948D02*
X115589395Y-103483996D01*
X115589395Y-103483996D02*
X115651299Y-103453043D01*
X115651299Y-103453043D02*
X115713204Y-103453043D01*
X115713204Y-103453043D02*
X115806061Y-103483996D01*
X115806061Y-103483996D02*
X116177490Y-103855424D01*
X116177490Y-103855424D02*
X116177490Y-103453043D01*
D11*
X116729605Y-103763758D02*
X116729605Y-103513758D01*
X115029605Y-103513758D02*
G75*
G02*
X116729605Y-103513758I850000J0D01*
G01*
X115029605Y-103513758D02*
X115029605Y-103763758D01*
X115029605Y-103763758D02*
G75*
G03*
X116729605Y-103763758I850000J0D01*
G01*
D20*
X113027490Y-103855424D02*
X113027490Y-103453043D01*
X113027490Y-103453043D02*
X113275109Y-103669710D01*
X113275109Y-103669710D02*
X113275109Y-103576853D01*
X113275109Y-103576853D02*
X113306061Y-103514948D01*
X113306061Y-103514948D02*
X113337014Y-103483996D01*
X113337014Y-103483996D02*
X113398918Y-103453043D01*
X113398918Y-103453043D02*
X113553680Y-103453043D01*
X113553680Y-103453043D02*
X113615585Y-103483996D01*
X113615585Y-103483996D02*
X113646538Y-103514948D01*
X113646538Y-103514948D02*
X113677490Y-103576853D01*
X113677490Y-103576853D02*
X113677490Y-103762567D01*
X113677490Y-103762567D02*
X113646538Y-103824472D01*
X113646538Y-103824472D02*
X113615585Y-103855424D01*
D11*
X114229605Y-103763758D02*
X114229605Y-103513758D01*
X112529605Y-103513758D02*
G75*
G02*
X114229605Y-103513758I850000J0D01*
G01*
X112529605Y-103513758D02*
X112529605Y-103763758D01*
X112529605Y-103763758D02*
G75*
G03*
X114229605Y-103763758I850000J0D01*
G01*
D20*
X110744157Y-103514948D02*
X111177490Y-103514948D01*
X110496538Y-103669710D02*
X110960823Y-103824472D01*
X110960823Y-103824472D02*
X110960823Y-103422091D01*
D11*
X111729605Y-103763758D02*
X111729605Y-103513758D01*
X110029605Y-103513758D02*
G75*
G02*
X111729605Y-103513758I850000J0D01*
G01*
X110029605Y-103513758D02*
X110029605Y-103763758D01*
X110029605Y-103763758D02*
G75*
G03*
X111729605Y-103763758I850000J0D01*
G01*
%TD*%
D15*
X153436787Y-81040218D02*
X153151073Y-81040218D01*
X153293930Y-81040218D02*
X153293930Y-80540218D01*
X153293930Y-80540218D02*
X153246311Y-80611647D01*
X153246311Y-80611647D02*
X153198692Y-80659266D01*
X153198692Y-80659266D02*
X153151073Y-80683075D01*
D11*
%TO.C,TP111*%
X154043930Y-80811076D02*
G75*
G02*
X152543930Y-80811076I-750000J0D01*
G01*
X152543930Y-80811076D02*
G75*
G02*
X154043930Y-80811076I750000J0D01*
G01*
%TD*%
D15*
X88442857Y-29291889D02*
X88157143Y-29291889D01*
X88300000Y-29291889D02*
X88300000Y-28791889D01*
X88300000Y-28791889D02*
X88252381Y-28863318D01*
X88252381Y-28863318D02*
X88204762Y-28910937D01*
X88204762Y-28910937D02*
X88157143Y-28934746D01*
D11*
%TO.C,TP601*%
X89050000Y-29062747D02*
G75*
G02*
X87550000Y-29062747I-750000J0D01*
G01*
X87550000Y-29062747D02*
G75*
G02*
X89050000Y-29062747I750000J0D01*
G01*
%TD*%
D15*
X153436787Y-86540218D02*
X153151073Y-86540218D01*
X153293930Y-86540218D02*
X153293930Y-86040218D01*
X153293930Y-86040218D02*
X153246311Y-86111647D01*
X153246311Y-86111647D02*
X153198692Y-86159266D01*
X153198692Y-86159266D02*
X153151073Y-86183075D01*
D11*
%TO.C,TP113*%
X154043930Y-86311076D02*
G75*
G02*
X152543930Y-86311076I-750000J0D01*
G01*
X152543930Y-86311076D02*
G75*
G02*
X154043930Y-86311076I750000J0D01*
G01*
%TD*%
D15*
X72892857Y-102479142D02*
X72607143Y-102479142D01*
X72750000Y-102479142D02*
X72750000Y-101979142D01*
X72750000Y-101979142D02*
X72702381Y-102050571D01*
X72702381Y-102050571D02*
X72654762Y-102098190D01*
X72654762Y-102098190D02*
X72607143Y-102121999D01*
D11*
%TO.C,TP204*%
X73500000Y-102250000D02*
G75*
G02*
X72000000Y-102250000I-750000J0D01*
G01*
X72000000Y-102250000D02*
G75*
G02*
X73500000Y-102250000I750000J0D01*
G01*
%TD*%
D15*
X94046731Y-29291889D02*
X93761017Y-29291889D01*
X93903874Y-29291889D02*
X93903874Y-28791889D01*
X93903874Y-28791889D02*
X93856255Y-28863318D01*
X93856255Y-28863318D02*
X93808636Y-28910937D01*
X93808636Y-28910937D02*
X93761017Y-28934746D01*
D11*
%TO.C,TP302*%
X94653874Y-29062747D02*
G75*
G02*
X93153874Y-29062747I-750000J0D01*
G01*
X93153874Y-29062747D02*
G75*
G02*
X94653874Y-29062747I750000J0D01*
G01*
%TD*%
D15*
X131225139Y-72263397D02*
X130939425Y-72263397D01*
X131082282Y-72263397D02*
X131082282Y-71763397D01*
X131082282Y-71763397D02*
X131034663Y-71834826D01*
X131034663Y-71834826D02*
X130987044Y-71882445D01*
X130987044Y-71882445D02*
X130939425Y-71906254D01*
D11*
%TO.C,TP502*%
X131832282Y-72034255D02*
G75*
G02*
X130332282Y-72034255I-750000J0D01*
G01*
X130332282Y-72034255D02*
G75*
G02*
X131832282Y-72034255I750000J0D01*
G01*
%TD*%
D22*
X179167733Y-26733333D02*
X179167733Y-27266666D01*
X179167733Y-26999999D02*
X178234400Y-26999999D01*
X178234400Y-26999999D02*
X178367733Y-27088888D01*
X178367733Y-27088888D02*
X178456622Y-27177777D01*
X178456622Y-27177777D02*
X178501067Y-27266666D01*
D11*
D14*
%TO.C,F401*%
D11*
X179740000Y-27900000D02*
X179728573Y-28006283D01*
X179678839Y-28139624D01*
X179593553Y-28253553D01*
X179479624Y-28338839D01*
X179346283Y-28388573D01*
X179240000Y-28400000D01*
X178240000Y-28400000D01*
X178133717Y-28388573D01*
X178000376Y-28338839D01*
X177886447Y-28253553D01*
X177801161Y-28139624D01*
X177751427Y-28006283D01*
X177740000Y-27900000D01*
X177740000Y-26100000D01*
X177751427Y-25993717D01*
X177801161Y-25860376D01*
X177886447Y-25746447D01*
X178000376Y-25661161D01*
X178133717Y-25611427D01*
X178240000Y-25600000D01*
X179240000Y-25600000D01*
X179346283Y-25611427D01*
X179479624Y-25661161D01*
X179593553Y-25746447D01*
X179678839Y-25860376D01*
X179728573Y-25993717D01*
X179740000Y-26100000D01*
X179740000Y-27900000D01*
D22*
X174297733Y-26720833D02*
X174297733Y-27254166D01*
X174297733Y-26987499D02*
X173364400Y-26987499D01*
X173364400Y-26987499D02*
X173497733Y-27076388D01*
X173497733Y-27076388D02*
X173586622Y-27165277D01*
X173586622Y-27165277D02*
X173631067Y-27254166D01*
D11*
D14*
D11*
X174870000Y-27887500D02*
X174858573Y-27993783D01*
X174808839Y-28127124D01*
X174723553Y-28241053D01*
X174609624Y-28326339D01*
X174476283Y-28376073D01*
X174370000Y-28387500D01*
X173370000Y-28387500D01*
X173263717Y-28376073D01*
X173130376Y-28326339D01*
X173016447Y-28241053D01*
X172931161Y-28127124D01*
X172881427Y-27993783D01*
X172870000Y-27887500D01*
X172870000Y-26087500D01*
X172881427Y-25981217D01*
X172931161Y-25847876D01*
X173016447Y-25733947D01*
X173130376Y-25648661D01*
X173263717Y-25598927D01*
X173370000Y-25587500D01*
X174370000Y-25587500D01*
X174476283Y-25598927D01*
X174609624Y-25648661D01*
X174723553Y-25733947D01*
X174808839Y-25847876D01*
X174858573Y-25981217D01*
X174870000Y-26087500D01*
X174870000Y-27887500D01*
D22*
X163083289Y-27266666D02*
X163038844Y-27222221D01*
X163038844Y-27222221D02*
X162994400Y-27133333D01*
X162994400Y-27133333D02*
X162994400Y-26911110D01*
X162994400Y-26911110D02*
X163038844Y-26822222D01*
X163038844Y-26822222D02*
X163083289Y-26777777D01*
X163083289Y-26777777D02*
X163172178Y-26733333D01*
X163172178Y-26733333D02*
X163261067Y-26733333D01*
X163261067Y-26733333D02*
X163394400Y-26777777D01*
X163394400Y-26777777D02*
X163927733Y-27311110D01*
X163927733Y-27311110D02*
X163927733Y-26733333D01*
D11*
D14*
D11*
X164500000Y-27900000D02*
X164488573Y-28006283D01*
X164438839Y-28139624D01*
X164353553Y-28253553D01*
X164239624Y-28338839D01*
X164106283Y-28388573D01*
X164000000Y-28400000D01*
X163000000Y-28400000D01*
X162893717Y-28388573D01*
X162760376Y-28338839D01*
X162646447Y-28253553D01*
X162561161Y-28139624D01*
X162511427Y-28006283D01*
X162500000Y-27900000D01*
X162500000Y-26100000D01*
X162511427Y-25993717D01*
X162561161Y-25860376D01*
X162646447Y-25746447D01*
X162760376Y-25661161D01*
X162893717Y-25611427D01*
X163000000Y-25600000D01*
X164000000Y-25600000D01*
X164106283Y-25611427D01*
X164239624Y-25661161D01*
X164353553Y-25746447D01*
X164438839Y-25860376D01*
X164488573Y-25993717D01*
X164500000Y-26100000D01*
X164500000Y-27900000D01*
D22*
X158003289Y-27266666D02*
X157958844Y-27222221D01*
X157958844Y-27222221D02*
X157914400Y-27133333D01*
X157914400Y-27133333D02*
X157914400Y-26911110D01*
X157914400Y-26911110D02*
X157958844Y-26822222D01*
X157958844Y-26822222D02*
X158003289Y-26777777D01*
X158003289Y-26777777D02*
X158092178Y-26733333D01*
X158092178Y-26733333D02*
X158181067Y-26733333D01*
X158181067Y-26733333D02*
X158314400Y-26777777D01*
X158314400Y-26777777D02*
X158847733Y-27311110D01*
X158847733Y-27311110D02*
X158847733Y-26733333D01*
D11*
D14*
D11*
X159420000Y-27900000D02*
X159408573Y-28006283D01*
X159358839Y-28139624D01*
X159273553Y-28253553D01*
X159159624Y-28338839D01*
X159026283Y-28388573D01*
X158920000Y-28400000D01*
X157920000Y-28400000D01*
X157813717Y-28388573D01*
X157680376Y-28338839D01*
X157566447Y-28253553D01*
X157481161Y-28139624D01*
X157431427Y-28006283D01*
X157420000Y-27900000D01*
X157420000Y-26100000D01*
X157431427Y-25993717D01*
X157481161Y-25860376D01*
X157566447Y-25746447D01*
X157680376Y-25661161D01*
X157813717Y-25611427D01*
X157920000Y-25600000D01*
X158920000Y-25600000D01*
X159026283Y-25611427D01*
X159159624Y-25661161D01*
X159273553Y-25746447D01*
X159358839Y-25860376D01*
X159408573Y-25993717D01*
X159420000Y-26100000D01*
X159420000Y-27900000D01*
%TD*%
D15*
X153436787Y-89290218D02*
X153151073Y-89290218D01*
X153293930Y-89290218D02*
X153293930Y-88790218D01*
X153293930Y-88790218D02*
X153246311Y-88861647D01*
X153246311Y-88861647D02*
X153198692Y-88909266D01*
X153198692Y-88909266D02*
X153151073Y-88933075D01*
D11*
%TO.C,TP114*%
X154043930Y-89061076D02*
G75*
G02*
X152543930Y-89061076I-750000J0D01*
G01*
X152543930Y-89061076D02*
G75*
G02*
X154043930Y-89061076I750000J0D01*
G01*
%TD*%
%TO.C,J402*%
X188235000Y-53515000D02*
G75*
G02*
X187585000Y-53515000I-325000J0D01*
G01*
X187585000Y-53515000D02*
G75*
G02*
X188235000Y-53515000I325000J0D01*
G01*
X188235000Y-47735000D02*
G75*
G02*
X187585000Y-47735000I-325000J0D01*
G01*
X187585000Y-47735000D02*
G75*
G02*
X188235000Y-47735000I325000J0D01*
G01*
D23*
X186816666Y-55232466D02*
X186916666Y-55265799D01*
X186916666Y-55265799D02*
X187083333Y-55265799D01*
X187083333Y-55265799D02*
X187149999Y-55232466D01*
X187149999Y-55232466D02*
X187183333Y-55199132D01*
X187183333Y-55199132D02*
X187216666Y-55132466D01*
X187216666Y-55132466D02*
X187216666Y-55065799D01*
X187216666Y-55065799D02*
X187183333Y-54999132D01*
X187183333Y-54999132D02*
X187149999Y-54965799D01*
X187149999Y-54965799D02*
X187083333Y-54932466D01*
X187083333Y-54932466D02*
X186949999Y-54899132D01*
X186949999Y-54899132D02*
X186883333Y-54865799D01*
X186883333Y-54865799D02*
X186849999Y-54832466D01*
X186849999Y-54832466D02*
X186816666Y-54765799D01*
X186816666Y-54765799D02*
X186816666Y-54699132D01*
X186816666Y-54699132D02*
X186849999Y-54632466D01*
X186849999Y-54632466D02*
X186883333Y-54599132D01*
X186883333Y-54599132D02*
X186949999Y-54565799D01*
X186949999Y-54565799D02*
X187116666Y-54565799D01*
X187116666Y-54565799D02*
X187216666Y-54599132D01*
X187883333Y-55265799D02*
X187483333Y-55265799D01*
X187683333Y-55265799D02*
X187683333Y-54565799D01*
X187683333Y-54565799D02*
X187616666Y-54665799D01*
X187616666Y-54665799D02*
X187550000Y-54732466D01*
X187550000Y-54732466D02*
X187483333Y-54765799D01*
D11*
X186800000Y-55445000D02*
X187900000Y-55445000D01*
X187900000Y-54445000D02*
G75*
G02*
X187900000Y-55445000I0J-500000D01*
G01*
X187900000Y-54445000D02*
X186800000Y-54445000D01*
X186800000Y-54445000D02*
G75*
G03*
X186800000Y-55445000I0J-500000D01*
G01*
D24*
X191072856Y-55191400D02*
X191158571Y-55219971D01*
X191158571Y-55219971D02*
X191301428Y-55219971D01*
X191301428Y-55219971D02*
X191358571Y-55191400D01*
X191358571Y-55191400D02*
X191387142Y-55162828D01*
X191387142Y-55162828D02*
X191415713Y-55105685D01*
X191415713Y-55105685D02*
X191415713Y-55048542D01*
X191415713Y-55048542D02*
X191387142Y-54991400D01*
X191387142Y-54991400D02*
X191358571Y-54962828D01*
X191358571Y-54962828D02*
X191301428Y-54934257D01*
X191301428Y-54934257D02*
X191187142Y-54905685D01*
X191187142Y-54905685D02*
X191129999Y-54877114D01*
X191129999Y-54877114D02*
X191101428Y-54848542D01*
X191101428Y-54848542D02*
X191072856Y-54791400D01*
X191072856Y-54791400D02*
X191072856Y-54734257D01*
X191072856Y-54734257D02*
X191101428Y-54677114D01*
X191101428Y-54677114D02*
X191129999Y-54648542D01*
X191129999Y-54648542D02*
X191187142Y-54619971D01*
X191187142Y-54619971D02*
X191329999Y-54619971D01*
X191329999Y-54619971D02*
X191415713Y-54648542D01*
X191987142Y-55219971D02*
X191644285Y-55219971D01*
X191815714Y-55219971D02*
X191815714Y-54619971D01*
X191815714Y-54619971D02*
X191758571Y-54705685D01*
X191758571Y-54705685D02*
X191701428Y-54762828D01*
X191701428Y-54762828D02*
X191644285Y-54791400D01*
D11*
X191130000Y-55445000D02*
X191930000Y-55445000D01*
X191930000Y-54445000D02*
G75*
G02*
X191930000Y-55445000I0J-500000D01*
G01*
X191930000Y-54445000D02*
X191130000Y-54445000D01*
X191130000Y-54445000D02*
G75*
G03*
X191130000Y-55445000I0J-500000D01*
G01*
D23*
X186816666Y-46592466D02*
X186916666Y-46625799D01*
X186916666Y-46625799D02*
X187083333Y-46625799D01*
X187083333Y-46625799D02*
X187149999Y-46592466D01*
X187149999Y-46592466D02*
X187183333Y-46559132D01*
X187183333Y-46559132D02*
X187216666Y-46492466D01*
X187216666Y-46492466D02*
X187216666Y-46425799D01*
X187216666Y-46425799D02*
X187183333Y-46359132D01*
X187183333Y-46359132D02*
X187149999Y-46325799D01*
X187149999Y-46325799D02*
X187083333Y-46292466D01*
X187083333Y-46292466D02*
X186949999Y-46259132D01*
X186949999Y-46259132D02*
X186883333Y-46225799D01*
X186883333Y-46225799D02*
X186849999Y-46192466D01*
X186849999Y-46192466D02*
X186816666Y-46125799D01*
X186816666Y-46125799D02*
X186816666Y-46059132D01*
X186816666Y-46059132D02*
X186849999Y-45992466D01*
X186849999Y-45992466D02*
X186883333Y-45959132D01*
X186883333Y-45959132D02*
X186949999Y-45925799D01*
X186949999Y-45925799D02*
X187116666Y-45925799D01*
X187116666Y-45925799D02*
X187216666Y-45959132D01*
X187883333Y-46625799D02*
X187483333Y-46625799D01*
X187683333Y-46625799D02*
X187683333Y-45925799D01*
X187683333Y-45925799D02*
X187616666Y-46025799D01*
X187616666Y-46025799D02*
X187550000Y-46092466D01*
X187550000Y-46092466D02*
X187483333Y-46125799D01*
D11*
X186800000Y-46805000D02*
X187900000Y-46805000D01*
X187900000Y-45805000D02*
G75*
G02*
X187900000Y-46805000I0J-500000D01*
G01*
X187900000Y-45805000D02*
X186800000Y-45805000D01*
X186800000Y-45805000D02*
G75*
G03*
X186800000Y-46805000I0J-500000D01*
G01*
D24*
X191072856Y-46551400D02*
X191158571Y-46579971D01*
X191158571Y-46579971D02*
X191301428Y-46579971D01*
X191301428Y-46579971D02*
X191358571Y-46551400D01*
X191358571Y-46551400D02*
X191387142Y-46522828D01*
X191387142Y-46522828D02*
X191415713Y-46465685D01*
X191415713Y-46465685D02*
X191415713Y-46408542D01*
X191415713Y-46408542D02*
X191387142Y-46351400D01*
X191387142Y-46351400D02*
X191358571Y-46322828D01*
X191358571Y-46322828D02*
X191301428Y-46294257D01*
X191301428Y-46294257D02*
X191187142Y-46265685D01*
X191187142Y-46265685D02*
X191129999Y-46237114D01*
X191129999Y-46237114D02*
X191101428Y-46208542D01*
X191101428Y-46208542D02*
X191072856Y-46151400D01*
X191072856Y-46151400D02*
X191072856Y-46094257D01*
X191072856Y-46094257D02*
X191101428Y-46037114D01*
X191101428Y-46037114D02*
X191129999Y-46008542D01*
X191129999Y-46008542D02*
X191187142Y-45979971D01*
X191187142Y-45979971D02*
X191329999Y-45979971D01*
X191329999Y-45979971D02*
X191415713Y-46008542D01*
X191987142Y-46579971D02*
X191644285Y-46579971D01*
X191815714Y-46579971D02*
X191815714Y-45979971D01*
X191815714Y-45979971D02*
X191758571Y-46065685D01*
X191758571Y-46065685D02*
X191701428Y-46122828D01*
X191701428Y-46122828D02*
X191644285Y-46151400D01*
D11*
X191130000Y-46805000D02*
X191930000Y-46805000D01*
X191930000Y-45805000D02*
G75*
G02*
X191930000Y-46805000I0J-500000D01*
G01*
X191930000Y-45805000D02*
X191130000Y-45805000D01*
X191130000Y-45805000D02*
G75*
G03*
X191130000Y-46805000I0J-500000D01*
G01*
%TD*%
D15*
X178342857Y-45729142D02*
X178057143Y-45729142D01*
X178200000Y-45729142D02*
X178200000Y-45229142D01*
X178200000Y-45229142D02*
X178152381Y-45300571D01*
X178152381Y-45300571D02*
X178104762Y-45348190D01*
X178104762Y-45348190D02*
X178057143Y-45371999D01*
D11*
%TO.C,TP401*%
X178950000Y-45500000D02*
G75*
G02*
X177450000Y-45500000I-750000J0D01*
G01*
X177450000Y-45500000D02*
G75*
G02*
X178950000Y-45500000I750000J0D01*
G01*
%TD*%
D15*
X164942857Y-46129142D02*
X164657143Y-46129142D01*
X164800000Y-46129142D02*
X164800000Y-45629142D01*
X164800000Y-45629142D02*
X164752381Y-45700571D01*
X164752381Y-45700571D02*
X164704762Y-45748190D01*
X164704762Y-45748190D02*
X164657143Y-45771999D01*
D11*
%TO.C,TP403*%
X165550000Y-45900000D02*
G75*
G02*
X164050000Y-45900000I-750000J0D01*
G01*
X164050000Y-45900000D02*
G75*
G02*
X165550000Y-45900000I750000J0D01*
G01*
%TD*%
D20*
X176547885Y-71814285D02*
X176547885Y-72185714D01*
X176547885Y-72000000D02*
X175897885Y-72000000D01*
X175897885Y-72000000D02*
X175990742Y-72061904D01*
X175990742Y-72061904D02*
X176052647Y-72123809D01*
X176052647Y-72123809D02*
X176083599Y-72185714D01*
D11*
D14*
%TO.C,J404*%
D11*
X177100000Y-72725000D02*
X177080970Y-72820671D01*
X177026777Y-72901777D01*
X176945671Y-72955970D01*
X176850000Y-72975000D01*
X175650000Y-72975000D01*
X175554329Y-72955970D01*
X175473223Y-72901777D01*
X175419030Y-72820671D01*
X175400000Y-72725000D01*
X175400000Y-71275000D01*
X175419030Y-71179329D01*
X175473223Y-71098223D01*
X175554329Y-71044030D01*
X175650000Y-71025000D01*
X176850000Y-71025000D01*
X176945671Y-71044030D01*
X177026777Y-71098223D01*
X177080970Y-71179329D01*
X177100000Y-71275000D01*
X177100000Y-72725000D01*
D20*
X173459790Y-72185714D02*
X173428837Y-72154762D01*
X173428837Y-72154762D02*
X173397885Y-72092857D01*
X173397885Y-72092857D02*
X173397885Y-71938095D01*
X173397885Y-71938095D02*
X173428837Y-71876190D01*
X173428837Y-71876190D02*
X173459790Y-71845238D01*
X173459790Y-71845238D02*
X173521694Y-71814285D01*
X173521694Y-71814285D02*
X173583599Y-71814285D01*
X173583599Y-71814285D02*
X173676456Y-71845238D01*
X173676456Y-71845238D02*
X174047885Y-72216666D01*
X174047885Y-72216666D02*
X174047885Y-71814285D01*
D11*
X174600000Y-72125000D02*
X174600000Y-71875000D01*
X172900000Y-71875000D02*
G75*
G02*
X174600000Y-71875000I850000J0D01*
G01*
X172900000Y-71875000D02*
X172900000Y-72125000D01*
X172900000Y-72125000D02*
G75*
G03*
X174600000Y-72125000I850000J0D01*
G01*
D20*
X170897885Y-72216666D02*
X170897885Y-71814285D01*
X170897885Y-71814285D02*
X171145504Y-72030952D01*
X171145504Y-72030952D02*
X171145504Y-71938095D01*
X171145504Y-71938095D02*
X171176456Y-71876190D01*
X171176456Y-71876190D02*
X171207409Y-71845238D01*
X171207409Y-71845238D02*
X171269313Y-71814285D01*
X171269313Y-71814285D02*
X171424075Y-71814285D01*
X171424075Y-71814285D02*
X171485980Y-71845238D01*
X171485980Y-71845238D02*
X171516933Y-71876190D01*
X171516933Y-71876190D02*
X171547885Y-71938095D01*
X171547885Y-71938095D02*
X171547885Y-72123809D01*
X171547885Y-72123809D02*
X171516933Y-72185714D01*
X171516933Y-72185714D02*
X171485980Y-72216666D01*
D11*
X172100000Y-72125000D02*
X172100000Y-71875000D01*
X170400000Y-71875000D02*
G75*
G02*
X172100000Y-71875000I850000J0D01*
G01*
X170400000Y-71875000D02*
X170400000Y-72125000D01*
X170400000Y-72125000D02*
G75*
G03*
X172100000Y-72125000I850000J0D01*
G01*
D20*
X168614552Y-71876190D02*
X169047885Y-71876190D01*
X168366933Y-72030952D02*
X168831218Y-72185714D01*
X168831218Y-72185714D02*
X168831218Y-71783333D01*
D11*
X169600000Y-72125000D02*
X169600000Y-71875000D01*
X167900000Y-71875000D02*
G75*
G02*
X169600000Y-71875000I850000J0D01*
G01*
X167900000Y-71875000D02*
X167900000Y-72125000D01*
X167900000Y-72125000D02*
G75*
G03*
X169600000Y-72125000I850000J0D01*
G01*
D20*
X165897885Y-71845238D02*
X165897885Y-72154762D01*
X165897885Y-72154762D02*
X166207409Y-72185714D01*
X166207409Y-72185714D02*
X166176456Y-72154762D01*
X166176456Y-72154762D02*
X166145504Y-72092857D01*
X166145504Y-72092857D02*
X166145504Y-71938095D01*
X166145504Y-71938095D02*
X166176456Y-71876190D01*
X166176456Y-71876190D02*
X166207409Y-71845238D01*
X166207409Y-71845238D02*
X166269313Y-71814285D01*
X166269313Y-71814285D02*
X166424075Y-71814285D01*
X166424075Y-71814285D02*
X166485980Y-71845238D01*
X166485980Y-71845238D02*
X166516933Y-71876190D01*
X166516933Y-71876190D02*
X166547885Y-71938095D01*
X166547885Y-71938095D02*
X166547885Y-72092857D01*
X166547885Y-72092857D02*
X166516933Y-72154762D01*
X166516933Y-72154762D02*
X166485980Y-72185714D01*
D11*
X167100000Y-72125000D02*
X167100000Y-71875000D01*
X165400000Y-71875000D02*
G75*
G02*
X167100000Y-71875000I850000J0D01*
G01*
X165400000Y-71875000D02*
X165400000Y-72125000D01*
X165400000Y-72125000D02*
G75*
G03*
X167100000Y-72125000I850000J0D01*
G01*
D20*
X163397885Y-71876190D02*
X163397885Y-72000000D01*
X163397885Y-72000000D02*
X163428837Y-72061904D01*
X163428837Y-72061904D02*
X163459790Y-72092857D01*
X163459790Y-72092857D02*
X163552647Y-72154762D01*
X163552647Y-72154762D02*
X163676456Y-72185714D01*
X163676456Y-72185714D02*
X163924075Y-72185714D01*
X163924075Y-72185714D02*
X163985980Y-72154762D01*
X163985980Y-72154762D02*
X164016933Y-72123809D01*
X164016933Y-72123809D02*
X164047885Y-72061904D01*
X164047885Y-72061904D02*
X164047885Y-71938095D01*
X164047885Y-71938095D02*
X164016933Y-71876190D01*
X164016933Y-71876190D02*
X163985980Y-71845238D01*
X163985980Y-71845238D02*
X163924075Y-71814285D01*
X163924075Y-71814285D02*
X163769313Y-71814285D01*
X163769313Y-71814285D02*
X163707409Y-71845238D01*
X163707409Y-71845238D02*
X163676456Y-71876190D01*
X163676456Y-71876190D02*
X163645504Y-71938095D01*
X163645504Y-71938095D02*
X163645504Y-72061904D01*
X163645504Y-72061904D02*
X163676456Y-72123809D01*
X163676456Y-72123809D02*
X163707409Y-72154762D01*
X163707409Y-72154762D02*
X163769313Y-72185714D01*
D11*
X164600000Y-72125000D02*
X164600000Y-71875000D01*
X162900000Y-71875000D02*
G75*
G02*
X164600000Y-71875000I850000J0D01*
G01*
X162900000Y-71875000D02*
X162900000Y-72125000D01*
X162900000Y-72125000D02*
G75*
G03*
X164600000Y-72125000I850000J0D01*
G01*
%TD*%
D12*
X188609523Y-103977676D02*
X187390476Y-103977676D01*
X187999999Y-103977676D02*
X187999999Y-101844343D01*
X187999999Y-101844343D02*
X187796825Y-102149105D01*
X187796825Y-102149105D02*
X187593650Y-102352279D01*
X187593650Y-102352279D02*
X187390476Y-102453867D01*
D11*
%TO.C,H403*%
X191200000Y-103000000D02*
G75*
G02*
X184800000Y-103000000I-3200000J0D01*
G01*
X184800000Y-103000000D02*
G75*
G02*
X191200000Y-103000000I3200000J0D01*
G01*
%TD*%
D15*
X153436787Y-92040218D02*
X153151073Y-92040218D01*
X153293930Y-92040218D02*
X153293930Y-91540218D01*
X153293930Y-91540218D02*
X153246311Y-91611647D01*
X153246311Y-91611647D02*
X153198692Y-91659266D01*
X153198692Y-91659266D02*
X153151073Y-91683075D01*
D11*
%TO.C,TP115*%
X154043930Y-91811076D02*
G75*
G02*
X152543930Y-91811076I-750000J0D01*
G01*
X152543930Y-91811076D02*
G75*
G02*
X154043930Y-91811076I750000J0D01*
G01*
%TD*%
D20*
X177154973Y-103453043D02*
X177154973Y-103824472D01*
X177154973Y-103638758D02*
X176504973Y-103638758D01*
X176504973Y-103638758D02*
X176597830Y-103700662D01*
X176597830Y-103700662D02*
X176659735Y-103762567D01*
X176659735Y-103762567D02*
X176690687Y-103824472D01*
D11*
D14*
%TO.C,J409*%
D11*
X177707088Y-104363758D02*
X177688058Y-104459429D01*
X177633865Y-104540535D01*
X177552759Y-104594728D01*
X177457088Y-104613758D01*
X176257088Y-104613758D01*
X176161417Y-104594728D01*
X176080311Y-104540535D01*
X176026118Y-104459429D01*
X176007088Y-104363758D01*
X176007088Y-102913758D01*
X176026118Y-102818087D01*
X176080311Y-102736981D01*
X176161417Y-102682788D01*
X176257088Y-102663758D01*
X177457088Y-102663758D01*
X177552759Y-102682788D01*
X177633865Y-102736981D01*
X177688058Y-102818087D01*
X177707088Y-102913758D01*
X177707088Y-104363758D01*
D20*
X174066878Y-103824472D02*
X174035925Y-103793520D01*
X174035925Y-103793520D02*
X174004973Y-103731615D01*
X174004973Y-103731615D02*
X174004973Y-103576853D01*
X174004973Y-103576853D02*
X174035925Y-103514948D01*
X174035925Y-103514948D02*
X174066878Y-103483996D01*
X174066878Y-103483996D02*
X174128782Y-103453043D01*
X174128782Y-103453043D02*
X174190687Y-103453043D01*
X174190687Y-103453043D02*
X174283544Y-103483996D01*
X174283544Y-103483996D02*
X174654973Y-103855424D01*
X174654973Y-103855424D02*
X174654973Y-103453043D01*
D11*
X175207088Y-103763758D02*
X175207088Y-103513758D01*
X173507088Y-103513758D02*
G75*
G02*
X175207088Y-103513758I850000J0D01*
G01*
X173507088Y-103513758D02*
X173507088Y-103763758D01*
X173507088Y-103763758D02*
G75*
G03*
X175207088Y-103763758I850000J0D01*
G01*
D20*
X171504973Y-103855424D02*
X171504973Y-103453043D01*
X171504973Y-103453043D02*
X171752592Y-103669710D01*
X171752592Y-103669710D02*
X171752592Y-103576853D01*
X171752592Y-103576853D02*
X171783544Y-103514948D01*
X171783544Y-103514948D02*
X171814497Y-103483996D01*
X171814497Y-103483996D02*
X171876401Y-103453043D01*
X171876401Y-103453043D02*
X172031163Y-103453043D01*
X172031163Y-103453043D02*
X172093068Y-103483996D01*
X172093068Y-103483996D02*
X172124021Y-103514948D01*
X172124021Y-103514948D02*
X172154973Y-103576853D01*
X172154973Y-103576853D02*
X172154973Y-103762567D01*
X172154973Y-103762567D02*
X172124021Y-103824472D01*
X172124021Y-103824472D02*
X172093068Y-103855424D01*
D11*
X172707088Y-103763758D02*
X172707088Y-103513758D01*
X171007088Y-103513758D02*
G75*
G02*
X172707088Y-103513758I850000J0D01*
G01*
X171007088Y-103513758D02*
X171007088Y-103763758D01*
X171007088Y-103763758D02*
G75*
G03*
X172707088Y-103763758I850000J0D01*
G01*
D20*
X169221640Y-103514948D02*
X169654973Y-103514948D01*
X168974021Y-103669710D02*
X169438306Y-103824472D01*
X169438306Y-103824472D02*
X169438306Y-103422091D01*
D11*
X170207088Y-103763758D02*
X170207088Y-103513758D01*
X168507088Y-103513758D02*
G75*
G02*
X170207088Y-103513758I850000J0D01*
G01*
X168507088Y-103513758D02*
X168507088Y-103763758D01*
X168507088Y-103763758D02*
G75*
G03*
X170207088Y-103763758I850000J0D01*
G01*
D20*
X166504973Y-103483996D02*
X166504973Y-103793520D01*
X166504973Y-103793520D02*
X166814497Y-103824472D01*
X166814497Y-103824472D02*
X166783544Y-103793520D01*
X166783544Y-103793520D02*
X166752592Y-103731615D01*
X166752592Y-103731615D02*
X166752592Y-103576853D01*
X166752592Y-103576853D02*
X166783544Y-103514948D01*
X166783544Y-103514948D02*
X166814497Y-103483996D01*
X166814497Y-103483996D02*
X166876401Y-103453043D01*
X166876401Y-103453043D02*
X167031163Y-103453043D01*
X167031163Y-103453043D02*
X167093068Y-103483996D01*
X167093068Y-103483996D02*
X167124021Y-103514948D01*
X167124021Y-103514948D02*
X167154973Y-103576853D01*
X167154973Y-103576853D02*
X167154973Y-103731615D01*
X167154973Y-103731615D02*
X167124021Y-103793520D01*
X167124021Y-103793520D02*
X167093068Y-103824472D01*
D11*
X167707088Y-103763758D02*
X167707088Y-103513758D01*
X166007088Y-103513758D02*
G75*
G02*
X167707088Y-103513758I850000J0D01*
G01*
X166007088Y-103513758D02*
X166007088Y-103763758D01*
X166007088Y-103763758D02*
G75*
G03*
X167707088Y-103763758I850000J0D01*
G01*
%TD*%
D15*
X133975139Y-55263397D02*
X133689425Y-55263397D01*
X133832282Y-55263397D02*
X133832282Y-54763397D01*
X133832282Y-54763397D02*
X133784663Y-54834826D01*
X133784663Y-54834826D02*
X133737044Y-54882445D01*
X133737044Y-54882445D02*
X133689425Y-54906254D01*
D11*
%TO.C,TP504*%
X134582282Y-55034255D02*
G75*
G02*
X133082282Y-55034255I-750000J0D01*
G01*
X133082282Y-55034255D02*
G75*
G02*
X134582282Y-55034255I750000J0D01*
G01*
%TD*%
D15*
X138216787Y-81680218D02*
X137931073Y-81680218D01*
X138073930Y-81680218D02*
X138073930Y-81180218D01*
X138073930Y-81180218D02*
X138026311Y-81251647D01*
X138026311Y-81251647D02*
X137978692Y-81299266D01*
X137978692Y-81299266D02*
X137931073Y-81323075D01*
D11*
%TO.C,TP110*%
X138823930Y-81451076D02*
G75*
G02*
X137323930Y-81451076I-750000J0D01*
G01*
X137323930Y-81451076D02*
G75*
G02*
X138823930Y-81451076I750000J0D01*
G01*
%TD*%
D15*
X72892857Y-98429142D02*
X72607143Y-98429142D01*
X72750000Y-98429142D02*
X72750000Y-97929142D01*
X72750000Y-97929142D02*
X72702381Y-98000571D01*
X72702381Y-98000571D02*
X72654762Y-98048190D01*
X72654762Y-98048190D02*
X72607143Y-98071999D01*
D11*
%TO.C,TP205*%
X73500000Y-98200000D02*
G75*
G02*
X72000000Y-98200000I-750000J0D01*
G01*
X72000000Y-98200000D02*
G75*
G02*
X73500000Y-98200000I750000J0D01*
G01*
%TD*%
D15*
X101642857Y-81479142D02*
X101357143Y-81479142D01*
X101500000Y-81479142D02*
X101500000Y-80979142D01*
X101500000Y-80979142D02*
X101452381Y-81050571D01*
X101452381Y-81050571D02*
X101404762Y-81098190D01*
X101404762Y-81098190D02*
X101357143Y-81121999D01*
D11*
%TO.C,TP202*%
X102250000Y-81250000D02*
G75*
G02*
X100750000Y-81250000I-750000J0D01*
G01*
X100750000Y-81250000D02*
G75*
G02*
X102250000Y-81250000I750000J0D01*
G01*
%TD*%
D15*
X91244794Y-29291889D02*
X90959080Y-29291889D01*
X91101937Y-29291889D02*
X91101937Y-28791889D01*
X91101937Y-28791889D02*
X91054318Y-28863318D01*
X91054318Y-28863318D02*
X91006699Y-28910937D01*
X91006699Y-28910937D02*
X90959080Y-28934746D01*
D11*
%TO.C,TP301*%
X91851937Y-29062747D02*
G75*
G02*
X90351937Y-29062747I-750000J0D01*
G01*
X90351937Y-29062747D02*
G75*
G02*
X91851937Y-29062747I750000J0D01*
G01*
%TD*%
D15*
X108957857Y-55729142D02*
X108672143Y-55729142D01*
X108815000Y-55729142D02*
X108815000Y-55229142D01*
X108815000Y-55229142D02*
X108767381Y-55300571D01*
X108767381Y-55300571D02*
X108719762Y-55348190D01*
X108719762Y-55348190D02*
X108672143Y-55371999D01*
D11*
%TO.C,TP101*%
X109565000Y-55500000D02*
G75*
G02*
X108065000Y-55500000I-750000J0D01*
G01*
X108065000Y-55500000D02*
G75*
G02*
X109565000Y-55500000I750000J0D01*
G01*
%TD*%
D15*
X86842857Y-35629142D02*
X86557143Y-35629142D01*
X86700000Y-35629142D02*
X86700000Y-35129142D01*
X86700000Y-35129142D02*
X86652381Y-35200571D01*
X86652381Y-35200571D02*
X86604762Y-35248190D01*
X86604762Y-35248190D02*
X86557143Y-35271999D01*
D11*
%TO.C,TP603*%
X87450000Y-35400000D02*
G75*
G02*
X85950000Y-35400000I-750000J0D01*
G01*
X85950000Y-35400000D02*
G75*
G02*
X87450000Y-35400000I750000J0D01*
G01*
%TD*%
D20*
X161154973Y-103453043D02*
X161154973Y-103824472D01*
X161154973Y-103638758D02*
X160504973Y-103638758D01*
X160504973Y-103638758D02*
X160597830Y-103700662D01*
X160597830Y-103700662D02*
X160659735Y-103762567D01*
X160659735Y-103762567D02*
X160690687Y-103824472D01*
D11*
D14*
%TO.C,J408*%
D11*
X161707088Y-104363758D02*
X161688058Y-104459429D01*
X161633865Y-104540535D01*
X161552759Y-104594728D01*
X161457088Y-104613758D01*
X160257088Y-104613758D01*
X160161417Y-104594728D01*
X160080311Y-104540535D01*
X160026118Y-104459429D01*
X160007088Y-104363758D01*
X160007088Y-102913758D01*
X160026118Y-102818087D01*
X160080311Y-102736981D01*
X160161417Y-102682788D01*
X160257088Y-102663758D01*
X161457088Y-102663758D01*
X161552759Y-102682788D01*
X161633865Y-102736981D01*
X161688058Y-102818087D01*
X161707088Y-102913758D01*
X161707088Y-104363758D01*
D20*
X158066878Y-103824472D02*
X158035925Y-103793520D01*
X158035925Y-103793520D02*
X158004973Y-103731615D01*
X158004973Y-103731615D02*
X158004973Y-103576853D01*
X158004973Y-103576853D02*
X158035925Y-103514948D01*
X158035925Y-103514948D02*
X158066878Y-103483996D01*
X158066878Y-103483996D02*
X158128782Y-103453043D01*
X158128782Y-103453043D02*
X158190687Y-103453043D01*
X158190687Y-103453043D02*
X158283544Y-103483996D01*
X158283544Y-103483996D02*
X158654973Y-103855424D01*
X158654973Y-103855424D02*
X158654973Y-103453043D01*
D11*
X159207088Y-103763758D02*
X159207088Y-103513758D01*
X157507088Y-103513758D02*
G75*
G02*
X159207088Y-103513758I850000J0D01*
G01*
X157507088Y-103513758D02*
X157507088Y-103763758D01*
X157507088Y-103763758D02*
G75*
G03*
X159207088Y-103763758I850000J0D01*
G01*
D20*
X155504973Y-103855424D02*
X155504973Y-103453043D01*
X155504973Y-103453043D02*
X155752592Y-103669710D01*
X155752592Y-103669710D02*
X155752592Y-103576853D01*
X155752592Y-103576853D02*
X155783544Y-103514948D01*
X155783544Y-103514948D02*
X155814497Y-103483996D01*
X155814497Y-103483996D02*
X155876401Y-103453043D01*
X155876401Y-103453043D02*
X156031163Y-103453043D01*
X156031163Y-103453043D02*
X156093068Y-103483996D01*
X156093068Y-103483996D02*
X156124021Y-103514948D01*
X156124021Y-103514948D02*
X156154973Y-103576853D01*
X156154973Y-103576853D02*
X156154973Y-103762567D01*
X156154973Y-103762567D02*
X156124021Y-103824472D01*
X156124021Y-103824472D02*
X156093068Y-103855424D01*
D11*
X156707088Y-103763758D02*
X156707088Y-103513758D01*
X155007088Y-103513758D02*
G75*
G02*
X156707088Y-103513758I850000J0D01*
G01*
X155007088Y-103513758D02*
X155007088Y-103763758D01*
X155007088Y-103763758D02*
G75*
G03*
X156707088Y-103763758I850000J0D01*
G01*
D20*
X153221640Y-103514948D02*
X153654973Y-103514948D01*
X152974021Y-103669710D02*
X153438306Y-103824472D01*
X153438306Y-103824472D02*
X153438306Y-103422091D01*
D11*
X154207088Y-103763758D02*
X154207088Y-103513758D01*
X152507088Y-103513758D02*
G75*
G02*
X154207088Y-103513758I850000J0D01*
G01*
X152507088Y-103513758D02*
X152507088Y-103763758D01*
X152507088Y-103763758D02*
G75*
G03*
X154207088Y-103763758I850000J0D01*
G01*
D20*
X150504973Y-103483996D02*
X150504973Y-103793520D01*
X150504973Y-103793520D02*
X150814497Y-103824472D01*
X150814497Y-103824472D02*
X150783544Y-103793520D01*
X150783544Y-103793520D02*
X150752592Y-103731615D01*
X150752592Y-103731615D02*
X150752592Y-103576853D01*
X150752592Y-103576853D02*
X150783544Y-103514948D01*
X150783544Y-103514948D02*
X150814497Y-103483996D01*
X150814497Y-103483996D02*
X150876401Y-103453043D01*
X150876401Y-103453043D02*
X151031163Y-103453043D01*
X151031163Y-103453043D02*
X151093068Y-103483996D01*
X151093068Y-103483996D02*
X151124021Y-103514948D01*
X151124021Y-103514948D02*
X151154973Y-103576853D01*
X151154973Y-103576853D02*
X151154973Y-103731615D01*
X151154973Y-103731615D02*
X151124021Y-103793520D01*
X151124021Y-103793520D02*
X151093068Y-103824472D01*
D11*
X151707088Y-103763758D02*
X151707088Y-103513758D01*
X150007088Y-103513758D02*
G75*
G02*
X151707088Y-103513758I850000J0D01*
G01*
X150007088Y-103513758D02*
X150007088Y-103763758D01*
X150007088Y-103763758D02*
G75*
G03*
X151707088Y-103763758I850000J0D01*
G01*
D20*
X148004973Y-103514948D02*
X148004973Y-103638758D01*
X148004973Y-103638758D02*
X148035925Y-103700662D01*
X148035925Y-103700662D02*
X148066878Y-103731615D01*
X148066878Y-103731615D02*
X148159735Y-103793520D01*
X148159735Y-103793520D02*
X148283544Y-103824472D01*
X148283544Y-103824472D02*
X148531163Y-103824472D01*
X148531163Y-103824472D02*
X148593068Y-103793520D01*
X148593068Y-103793520D02*
X148624021Y-103762567D01*
X148624021Y-103762567D02*
X148654973Y-103700662D01*
X148654973Y-103700662D02*
X148654973Y-103576853D01*
X148654973Y-103576853D02*
X148624021Y-103514948D01*
X148624021Y-103514948D02*
X148593068Y-103483996D01*
X148593068Y-103483996D02*
X148531163Y-103453043D01*
X148531163Y-103453043D02*
X148376401Y-103453043D01*
X148376401Y-103453043D02*
X148314497Y-103483996D01*
X148314497Y-103483996D02*
X148283544Y-103514948D01*
X148283544Y-103514948D02*
X148252592Y-103576853D01*
X148252592Y-103576853D02*
X148252592Y-103700662D01*
X148252592Y-103700662D02*
X148283544Y-103762567D01*
X148283544Y-103762567D02*
X148314497Y-103793520D01*
X148314497Y-103793520D02*
X148376401Y-103824472D01*
D11*
X149207088Y-103763758D02*
X149207088Y-103513758D01*
X147507088Y-103513758D02*
G75*
G02*
X149207088Y-103513758I850000J0D01*
G01*
X147507088Y-103513758D02*
X147507088Y-103763758D01*
X147507088Y-103763758D02*
G75*
G03*
X149207088Y-103763758I850000J0D01*
G01*
D20*
X145504973Y-103855424D02*
X145504973Y-103422091D01*
X145504973Y-103422091D02*
X146154973Y-103700662D01*
D11*
X146707088Y-103763758D02*
X146707088Y-103513758D01*
X145007088Y-103513758D02*
G75*
G02*
X146707088Y-103513758I850000J0D01*
G01*
X145007088Y-103513758D02*
X145007088Y-103763758D01*
X145007088Y-103763758D02*
G75*
G03*
X146707088Y-103763758I850000J0D01*
G01*
D20*
X143283544Y-103700662D02*
X143252592Y-103762567D01*
X143252592Y-103762567D02*
X143221640Y-103793520D01*
X143221640Y-103793520D02*
X143159735Y-103824472D01*
X143159735Y-103824472D02*
X143128782Y-103824472D01*
X143128782Y-103824472D02*
X143066878Y-103793520D01*
X143066878Y-103793520D02*
X143035925Y-103762567D01*
X143035925Y-103762567D02*
X143004973Y-103700662D01*
X143004973Y-103700662D02*
X143004973Y-103576853D01*
X143004973Y-103576853D02*
X143035925Y-103514948D01*
X143035925Y-103514948D02*
X143066878Y-103483996D01*
X143066878Y-103483996D02*
X143128782Y-103453043D01*
X143128782Y-103453043D02*
X143159735Y-103453043D01*
X143159735Y-103453043D02*
X143221640Y-103483996D01*
X143221640Y-103483996D02*
X143252592Y-103514948D01*
X143252592Y-103514948D02*
X143283544Y-103576853D01*
X143283544Y-103576853D02*
X143283544Y-103700662D01*
X143283544Y-103700662D02*
X143314497Y-103762567D01*
X143314497Y-103762567D02*
X143345449Y-103793520D01*
X143345449Y-103793520D02*
X143407354Y-103824472D01*
X143407354Y-103824472D02*
X143531163Y-103824472D01*
X143531163Y-103824472D02*
X143593068Y-103793520D01*
X143593068Y-103793520D02*
X143624021Y-103762567D01*
X143624021Y-103762567D02*
X143654973Y-103700662D01*
X143654973Y-103700662D02*
X143654973Y-103576853D01*
X143654973Y-103576853D02*
X143624021Y-103514948D01*
X143624021Y-103514948D02*
X143593068Y-103483996D01*
X143593068Y-103483996D02*
X143531163Y-103453043D01*
X143531163Y-103453043D02*
X143407354Y-103453043D01*
X143407354Y-103453043D02*
X143345449Y-103483996D01*
X143345449Y-103483996D02*
X143314497Y-103514948D01*
X143314497Y-103514948D02*
X143283544Y-103576853D01*
D11*
X144207088Y-103763758D02*
X144207088Y-103513758D01*
X142507088Y-103513758D02*
G75*
G02*
X144207088Y-103513758I850000J0D01*
G01*
X142507088Y-103513758D02*
X142507088Y-103763758D01*
X142507088Y-103763758D02*
G75*
G03*
X144207088Y-103763758I850000J0D01*
G01*
D20*
X141154973Y-103762567D02*
X141154973Y-103638758D01*
X141154973Y-103638758D02*
X141124021Y-103576853D01*
X141124021Y-103576853D02*
X141093068Y-103545901D01*
X141093068Y-103545901D02*
X141000211Y-103483996D01*
X141000211Y-103483996D02*
X140876401Y-103453043D01*
X140876401Y-103453043D02*
X140628782Y-103453043D01*
X140628782Y-103453043D02*
X140566878Y-103483996D01*
X140566878Y-103483996D02*
X140535925Y-103514948D01*
X140535925Y-103514948D02*
X140504973Y-103576853D01*
X140504973Y-103576853D02*
X140504973Y-103700662D01*
X140504973Y-103700662D02*
X140535925Y-103762567D01*
X140535925Y-103762567D02*
X140566878Y-103793520D01*
X140566878Y-103793520D02*
X140628782Y-103824472D01*
X140628782Y-103824472D02*
X140783544Y-103824472D01*
X140783544Y-103824472D02*
X140845449Y-103793520D01*
X140845449Y-103793520D02*
X140876401Y-103762567D01*
X140876401Y-103762567D02*
X140907354Y-103700662D01*
X140907354Y-103700662D02*
X140907354Y-103576853D01*
X140907354Y-103576853D02*
X140876401Y-103514948D01*
X140876401Y-103514948D02*
X140845449Y-103483996D01*
X140845449Y-103483996D02*
X140783544Y-103453043D01*
D11*
X141707088Y-103763758D02*
X141707088Y-103513758D01*
X140007088Y-103513758D02*
G75*
G02*
X141707088Y-103513758I850000J0D01*
G01*
X140007088Y-103513758D02*
X140007088Y-103763758D01*
X140007088Y-103763758D02*
G75*
G03*
X141707088Y-103763758I850000J0D01*
G01*
%TD*%
D10*
X88461904Y-104359695D02*
X88138095Y-104359695D01*
X88299999Y-104359695D02*
X88299999Y-103793029D01*
X88299999Y-103793029D02*
X88246031Y-103873981D01*
X88246031Y-103873981D02*
X88192063Y-103927949D01*
X88192063Y-103927949D02*
X88138095Y-103954933D01*
D11*
%TO.C,J202*%
X87450000Y-103250000D02*
X87450000Y-104950000D01*
X89150000Y-104950000D01*
X89150000Y-103250000D01*
X87450000Y-103250000D01*
D10*
X85598095Y-103846997D02*
X85625079Y-103820013D01*
X85625079Y-103820013D02*
X85679047Y-103793029D01*
X85679047Y-103793029D02*
X85813968Y-103793029D01*
X85813968Y-103793029D02*
X85867936Y-103820013D01*
X85867936Y-103820013D02*
X85894920Y-103846997D01*
X85894920Y-103846997D02*
X85921904Y-103900965D01*
X85921904Y-103900965D02*
X85921904Y-103954933D01*
X85921904Y-103954933D02*
X85894920Y-104035885D01*
X85894920Y-104035885D02*
X85571111Y-104359695D01*
X85571111Y-104359695D02*
X85921904Y-104359695D01*
D11*
X86610000Y-104100000D02*
G75*
G02*
X84910000Y-104100000I-850000J0D01*
G01*
X84910000Y-104100000D02*
G75*
G02*
X86610000Y-104100000I850000J0D01*
G01*
D10*
X83031111Y-103793029D02*
X83381904Y-103793029D01*
X83381904Y-103793029D02*
X83193015Y-104008901D01*
X83193015Y-104008901D02*
X83273968Y-104008901D01*
X83273968Y-104008901D02*
X83327936Y-104035885D01*
X83327936Y-104035885D02*
X83354920Y-104062870D01*
X83354920Y-104062870D02*
X83381904Y-104116838D01*
X83381904Y-104116838D02*
X83381904Y-104251758D01*
X83381904Y-104251758D02*
X83354920Y-104305726D01*
X83354920Y-104305726D02*
X83327936Y-104332711D01*
X83327936Y-104332711D02*
X83273968Y-104359695D01*
X83273968Y-104359695D02*
X83112063Y-104359695D01*
X83112063Y-104359695D02*
X83058095Y-104332711D01*
X83058095Y-104332711D02*
X83031111Y-104305726D01*
D11*
X84070000Y-104100000D02*
G75*
G02*
X82370000Y-104100000I-850000J0D01*
G01*
X82370000Y-104100000D02*
G75*
G02*
X84070000Y-104100000I850000J0D01*
G01*
%TD*%
D15*
X159616787Y-58870218D02*
X159331073Y-58870218D01*
X159473930Y-58870218D02*
X159473930Y-58370218D01*
X159473930Y-58370218D02*
X159426311Y-58441647D01*
X159426311Y-58441647D02*
X159378692Y-58489266D01*
X159378692Y-58489266D02*
X159331073Y-58513075D01*
D11*
%TO.C,TP108*%
X160223930Y-58641076D02*
G75*
G02*
X158723930Y-58641076I-750000J0D01*
G01*
X158723930Y-58641076D02*
G75*
G02*
X160223930Y-58641076I750000J0D01*
G01*
%TD*%
D15*
X91417857Y-90804142D02*
X91132143Y-90804142D01*
X91275000Y-90804142D02*
X91275000Y-90304142D01*
X91275000Y-90304142D02*
X91227381Y-90375571D01*
X91227381Y-90375571D02*
X91179762Y-90423190D01*
X91179762Y-90423190D02*
X91132143Y-90446999D01*
D11*
%TO.C,TP201*%
X92025000Y-90575000D02*
G75*
G02*
X90525000Y-90575000I-750000J0D01*
G01*
X90525000Y-90575000D02*
G75*
G02*
X92025000Y-90575000I750000J0D01*
G01*
%TD*%
D15*
X159616787Y-61370218D02*
X159331073Y-61370218D01*
X159473930Y-61370218D02*
X159473930Y-60870218D01*
X159473930Y-60870218D02*
X159426311Y-60941647D01*
X159426311Y-60941647D02*
X159378692Y-60989266D01*
X159378692Y-60989266D02*
X159331073Y-61013075D01*
D11*
%TO.C,TP109*%
X160223930Y-61141076D02*
G75*
G02*
X158723930Y-61141076I-750000J0D01*
G01*
X158723930Y-61141076D02*
G75*
G02*
X160223930Y-61141076I750000J0D01*
G01*
%TD*%
D15*
X80842857Y-62529142D02*
X80557143Y-62529142D01*
X80700000Y-62529142D02*
X80700000Y-62029142D01*
X80700000Y-62029142D02*
X80652381Y-62100571D01*
X80652381Y-62100571D02*
X80604762Y-62148190D01*
X80604762Y-62148190D02*
X80557143Y-62171999D01*
D11*
%TO.C,TP606*%
X81450000Y-62300000D02*
G75*
G02*
X79950000Y-62300000I-750000J0D01*
G01*
X79950000Y-62300000D02*
G75*
G02*
X81450000Y-62300000I750000J0D01*
G01*
%TD*%
D15*
X99650604Y-29291889D02*
X99364890Y-29291889D01*
X99507747Y-29291889D02*
X99507747Y-28791889D01*
X99507747Y-28791889D02*
X99460128Y-28863318D01*
X99460128Y-28863318D02*
X99412509Y-28910937D01*
X99412509Y-28910937D02*
X99364890Y-28934746D01*
D11*
%TO.C,TP303*%
X100257747Y-29062747D02*
G75*
G02*
X98757747Y-29062747I-750000J0D01*
G01*
X98757747Y-29062747D02*
G75*
G02*
X100257747Y-29062747I750000J0D01*
G01*
%TD*%
D15*
X122642857Y-89329142D02*
X122357143Y-89329142D01*
X122500000Y-89329142D02*
X122500000Y-88829142D01*
X122500000Y-88829142D02*
X122452381Y-88900571D01*
X122452381Y-88900571D02*
X122404762Y-88948190D01*
X122404762Y-88948190D02*
X122357143Y-88971999D01*
D11*
%TO.C,TP207*%
X123250000Y-89100000D02*
G75*
G02*
X121750000Y-89100000I-750000J0D01*
G01*
X121750000Y-89100000D02*
G75*
G02*
X123250000Y-89100000I750000J0D01*
G01*
%TD*%
D15*
X153436787Y-94790218D02*
X153151073Y-94790218D01*
X153293930Y-94790218D02*
X153293930Y-94290218D01*
X153293930Y-94290218D02*
X153246311Y-94361647D01*
X153246311Y-94361647D02*
X153198692Y-94409266D01*
X153198692Y-94409266D02*
X153151073Y-94433075D01*
D11*
%TO.C,TP117*%
X154043930Y-94561076D02*
G75*
G02*
X152543930Y-94561076I-750000J0D01*
G01*
X152543930Y-94561076D02*
G75*
G02*
X154043930Y-94561076I750000J0D01*
G01*
%TD*%
D15*
X121892857Y-72979142D02*
X121607143Y-72979142D01*
X121750000Y-72979142D02*
X121750000Y-72479142D01*
X121750000Y-72479142D02*
X121702381Y-72550571D01*
X121702381Y-72550571D02*
X121654762Y-72598190D01*
X121654762Y-72598190D02*
X121607143Y-72621999D01*
D11*
%TO.C,TP503*%
X122500000Y-72750000D02*
G75*
G02*
X121000000Y-72750000I-750000J0D01*
G01*
X121000000Y-72750000D02*
G75*
G02*
X122500000Y-72750000I750000J0D01*
G01*
%TD*%
D20*
X176547885Y-80064285D02*
X176547885Y-80435714D01*
X176547885Y-80250000D02*
X175897885Y-80250000D01*
X175897885Y-80250000D02*
X175990742Y-80311904D01*
X175990742Y-80311904D02*
X176052647Y-80373809D01*
X176052647Y-80373809D02*
X176083599Y-80435714D01*
D11*
D14*
%TO.C,J406*%
D11*
X177100000Y-80975000D02*
X177080970Y-81070671D01*
X177026777Y-81151777D01*
X176945671Y-81205970D01*
X176850000Y-81225000D01*
X175650000Y-81225000D01*
X175554329Y-81205970D01*
X175473223Y-81151777D01*
X175419030Y-81070671D01*
X175400000Y-80975000D01*
X175400000Y-79525000D01*
X175419030Y-79429329D01*
X175473223Y-79348223D01*
X175554329Y-79294030D01*
X175650000Y-79275000D01*
X176850000Y-79275000D01*
X176945671Y-79294030D01*
X177026777Y-79348223D01*
X177080970Y-79429329D01*
X177100000Y-79525000D01*
X177100000Y-80975000D01*
D20*
X173459790Y-80435714D02*
X173428837Y-80404762D01*
X173428837Y-80404762D02*
X173397885Y-80342857D01*
X173397885Y-80342857D02*
X173397885Y-80188095D01*
X173397885Y-80188095D02*
X173428837Y-80126190D01*
X173428837Y-80126190D02*
X173459790Y-80095238D01*
X173459790Y-80095238D02*
X173521694Y-80064285D01*
X173521694Y-80064285D02*
X173583599Y-80064285D01*
X173583599Y-80064285D02*
X173676456Y-80095238D01*
X173676456Y-80095238D02*
X174047885Y-80466666D01*
X174047885Y-80466666D02*
X174047885Y-80064285D01*
D11*
X174600000Y-80375000D02*
X174600000Y-80125000D01*
X172900000Y-80125000D02*
G75*
G02*
X174600000Y-80125000I850000J0D01*
G01*
X172900000Y-80125000D02*
X172900000Y-80375000D01*
X172900000Y-80375000D02*
G75*
G03*
X174600000Y-80375000I850000J0D01*
G01*
D20*
X170897885Y-80466666D02*
X170897885Y-80064285D01*
X170897885Y-80064285D02*
X171145504Y-80280952D01*
X171145504Y-80280952D02*
X171145504Y-80188095D01*
X171145504Y-80188095D02*
X171176456Y-80126190D01*
X171176456Y-80126190D02*
X171207409Y-80095238D01*
X171207409Y-80095238D02*
X171269313Y-80064285D01*
X171269313Y-80064285D02*
X171424075Y-80064285D01*
X171424075Y-80064285D02*
X171485980Y-80095238D01*
X171485980Y-80095238D02*
X171516933Y-80126190D01*
X171516933Y-80126190D02*
X171547885Y-80188095D01*
X171547885Y-80188095D02*
X171547885Y-80373809D01*
X171547885Y-80373809D02*
X171516933Y-80435714D01*
X171516933Y-80435714D02*
X171485980Y-80466666D01*
D11*
X172100000Y-80375000D02*
X172100000Y-80125000D01*
X170400000Y-80125000D02*
G75*
G02*
X172100000Y-80125000I850000J0D01*
G01*
X170400000Y-80125000D02*
X170400000Y-80375000D01*
X170400000Y-80375000D02*
G75*
G03*
X172100000Y-80375000I850000J0D01*
G01*
D20*
X168614552Y-80126190D02*
X169047885Y-80126190D01*
X168366933Y-80280952D02*
X168831218Y-80435714D01*
X168831218Y-80435714D02*
X168831218Y-80033333D01*
D11*
X169600000Y-80375000D02*
X169600000Y-80125000D01*
X167900000Y-80125000D02*
G75*
G02*
X169600000Y-80125000I850000J0D01*
G01*
X167900000Y-80125000D02*
X167900000Y-80375000D01*
X167900000Y-80375000D02*
G75*
G03*
X169600000Y-80375000I850000J0D01*
G01*
D20*
X165897885Y-80095238D02*
X165897885Y-80404762D01*
X165897885Y-80404762D02*
X166207409Y-80435714D01*
X166207409Y-80435714D02*
X166176456Y-80404762D01*
X166176456Y-80404762D02*
X166145504Y-80342857D01*
X166145504Y-80342857D02*
X166145504Y-80188095D01*
X166145504Y-80188095D02*
X166176456Y-80126190D01*
X166176456Y-80126190D02*
X166207409Y-80095238D01*
X166207409Y-80095238D02*
X166269313Y-80064285D01*
X166269313Y-80064285D02*
X166424075Y-80064285D01*
X166424075Y-80064285D02*
X166485980Y-80095238D01*
X166485980Y-80095238D02*
X166516933Y-80126190D01*
X166516933Y-80126190D02*
X166547885Y-80188095D01*
X166547885Y-80188095D02*
X166547885Y-80342857D01*
X166547885Y-80342857D02*
X166516933Y-80404762D01*
X166516933Y-80404762D02*
X166485980Y-80435714D01*
D11*
X167100000Y-80375000D02*
X167100000Y-80125000D01*
X165400000Y-80125000D02*
G75*
G02*
X167100000Y-80125000I850000J0D01*
G01*
X165400000Y-80125000D02*
X165400000Y-80375000D01*
X165400000Y-80375000D02*
G75*
G03*
X167100000Y-80375000I850000J0D01*
G01*
D20*
X163397885Y-80126190D02*
X163397885Y-80250000D01*
X163397885Y-80250000D02*
X163428837Y-80311904D01*
X163428837Y-80311904D02*
X163459790Y-80342857D01*
X163459790Y-80342857D02*
X163552647Y-80404762D01*
X163552647Y-80404762D02*
X163676456Y-80435714D01*
X163676456Y-80435714D02*
X163924075Y-80435714D01*
X163924075Y-80435714D02*
X163985980Y-80404762D01*
X163985980Y-80404762D02*
X164016933Y-80373809D01*
X164016933Y-80373809D02*
X164047885Y-80311904D01*
X164047885Y-80311904D02*
X164047885Y-80188095D01*
X164047885Y-80188095D02*
X164016933Y-80126190D01*
X164016933Y-80126190D02*
X163985980Y-80095238D01*
X163985980Y-80095238D02*
X163924075Y-80064285D01*
X163924075Y-80064285D02*
X163769313Y-80064285D01*
X163769313Y-80064285D02*
X163707409Y-80095238D01*
X163707409Y-80095238D02*
X163676456Y-80126190D01*
X163676456Y-80126190D02*
X163645504Y-80188095D01*
X163645504Y-80188095D02*
X163645504Y-80311904D01*
X163645504Y-80311904D02*
X163676456Y-80373809D01*
X163676456Y-80373809D02*
X163707409Y-80404762D01*
X163707409Y-80404762D02*
X163769313Y-80435714D01*
D11*
X164600000Y-80375000D02*
X164600000Y-80125000D01*
X162900000Y-80125000D02*
G75*
G02*
X164600000Y-80125000I850000J0D01*
G01*
X162900000Y-80125000D02*
X162900000Y-80375000D01*
X162900000Y-80375000D02*
G75*
G03*
X164600000Y-80375000I850000J0D01*
G01*
%TD*%
D15*
X67397857Y-60479142D02*
X67112143Y-60479142D01*
X67255000Y-60479142D02*
X67255000Y-59979142D01*
X67255000Y-59979142D02*
X67207381Y-60050571D01*
X67207381Y-60050571D02*
X67159762Y-60098190D01*
X67159762Y-60098190D02*
X67112143Y-60121999D01*
D11*
%TO.C,TP604*%
X68005000Y-60250000D02*
G75*
G02*
X66505000Y-60250000I-750000J0D01*
G01*
X66505000Y-60250000D02*
G75*
G02*
X68005000Y-60250000I750000J0D01*
G01*
%TD*%
D15*
X119892857Y-39229142D02*
X119607143Y-39229142D01*
X119750000Y-39229142D02*
X119750000Y-38729142D01*
X119750000Y-38729142D02*
X119702381Y-38800571D01*
X119702381Y-38800571D02*
X119654762Y-38848190D01*
X119654762Y-38848190D02*
X119607143Y-38871999D01*
D11*
%TO.C,TP104*%
X120500000Y-39000000D02*
G75*
G02*
X119000000Y-39000000I-750000J0D01*
G01*
X119000000Y-39000000D02*
G75*
G02*
X120500000Y-39000000I750000J0D01*
G01*
%TD*%
D15*
X80842857Y-65329142D02*
X80557143Y-65329142D01*
X80700000Y-65329142D02*
X80700000Y-64829142D01*
X80700000Y-64829142D02*
X80652381Y-64900571D01*
X80652381Y-64900571D02*
X80604762Y-64948190D01*
X80604762Y-64948190D02*
X80557143Y-64971999D01*
D11*
%TO.C,TP605*%
X81450000Y-65100000D02*
G75*
G02*
X79950000Y-65100000I-750000J0D01*
G01*
X79950000Y-65100000D02*
G75*
G02*
X81450000Y-65100000I750000J0D01*
G01*
%TD*%
D25*
X183728439Y-38416090D02*
X183728439Y-39292280D01*
X183728439Y-38854185D02*
X182195106Y-38854185D01*
X182195106Y-38854185D02*
X182414154Y-39000217D01*
X182414154Y-39000217D02*
X182560186Y-39146248D01*
X182560186Y-39146248D02*
X182633202Y-39292280D01*
D11*
%TO.C,J403*%
X182025735Y-36554186D02*
X182025735Y-41154186D01*
X184025735Y-41154186D01*
X184025735Y-36554186D01*
X182025735Y-36554186D01*
D26*
X188700668Y-39254185D02*
X188634001Y-39187518D01*
X188634001Y-39187518D02*
X188567334Y-39054185D01*
X188567334Y-39054185D02*
X188567334Y-38720852D01*
X188567334Y-38720852D02*
X188634001Y-38587518D01*
X188634001Y-38587518D02*
X188700668Y-38520852D01*
X188700668Y-38520852D02*
X188834001Y-38454185D01*
X188834001Y-38454185D02*
X188967334Y-38454185D01*
X188967334Y-38454185D02*
X189167334Y-38520852D01*
X189167334Y-38520852D02*
X189967334Y-39320852D01*
X189967334Y-39320852D02*
X189967334Y-38454185D01*
D11*
X190325735Y-39954186D02*
X190325735Y-37754186D01*
X188325735Y-37754186D02*
G75*
G02*
X190325735Y-37754186I1000000J0D01*
G01*
X188325735Y-37754186D02*
X188325735Y-39954186D01*
X188325735Y-39954186D02*
G75*
G03*
X190325735Y-39954186I1000000J0D01*
G01*
D26*
X185459069Y-33295785D02*
X186325735Y-33295785D01*
X186325735Y-33295785D02*
X185859069Y-33829119D01*
X185859069Y-33829119D02*
X186059069Y-33829119D01*
X186059069Y-33829119D02*
X186192402Y-33895785D01*
X186192402Y-33895785D02*
X186259069Y-33962452D01*
X186259069Y-33962452D02*
X186325735Y-34095785D01*
X186325735Y-34095785D02*
X186325735Y-34429119D01*
X186325735Y-34429119D02*
X186259069Y-34562452D01*
X186259069Y-34562452D02*
X186192402Y-34629119D01*
X186192402Y-34629119D02*
X186059069Y-34695785D01*
X186059069Y-34695785D02*
X185659069Y-34695785D01*
X185659069Y-34695785D02*
X185525735Y-34629119D01*
X185525735Y-34629119D02*
X185459069Y-34562452D01*
D11*
X184825735Y-35054186D02*
X187025735Y-35054186D01*
X187025735Y-33054186D02*
G75*
G02*
X187025735Y-35054186I0J-1000000D01*
G01*
X187025735Y-33054186D02*
X184825735Y-33054186D01*
X184825735Y-33054186D02*
G75*
G03*
X184825735Y-35054186I0J-1000000D01*
G01*
%TD*%
D15*
X64142857Y-30029142D02*
X63857143Y-30029142D01*
X64000000Y-30029142D02*
X64000000Y-29529142D01*
X64000000Y-29529142D02*
X63952381Y-29600571D01*
X63952381Y-29600571D02*
X63904762Y-29648190D01*
X63904762Y-29648190D02*
X63857143Y-29671999D01*
D11*
%TO.C,TP607*%
X64750000Y-29800000D02*
G75*
G02*
X63250000Y-29800000I-750000J0D01*
G01*
X63250000Y-29800000D02*
G75*
G02*
X64750000Y-29800000I750000J0D01*
G01*
%TD*%
D15*
X133975139Y-72263397D02*
X133689425Y-72263397D01*
X133832282Y-72263397D02*
X133832282Y-71763397D01*
X133832282Y-71763397D02*
X133784663Y-71834826D01*
X133784663Y-71834826D02*
X133737044Y-71882445D01*
X133737044Y-71882445D02*
X133689425Y-71906254D01*
D11*
%TO.C,TP501*%
X134582282Y-72034255D02*
G75*
G02*
X133082282Y-72034255I-750000J0D01*
G01*
X133082282Y-72034255D02*
G75*
G02*
X134582282Y-72034255I750000J0D01*
G01*
%TD*%
D15*
X121892857Y-55729142D02*
X121607143Y-55729142D01*
X121750000Y-55729142D02*
X121750000Y-55229142D01*
X121750000Y-55229142D02*
X121702381Y-55300571D01*
X121702381Y-55300571D02*
X121654762Y-55348190D01*
X121654762Y-55348190D02*
X121607143Y-55371999D01*
D11*
%TO.C,TP506*%
X122500000Y-55500000D02*
G75*
G02*
X121000000Y-55500000I-750000J0D01*
G01*
X121000000Y-55500000D02*
G75*
G02*
X122500000Y-55500000I750000J0D01*
G01*
%TD*%
D22*
X109774413Y-35085480D02*
X109241080Y-35085480D01*
X109507747Y-35085480D02*
X109507747Y-34152147D01*
X109507747Y-34152147D02*
X109418858Y-34285480D01*
X109418858Y-34285480D02*
X109329969Y-34374369D01*
X109329969Y-34374369D02*
X109241080Y-34418814D01*
D11*
D14*
%TO.C,J301*%
D11*
X108107747Y-33507748D02*
X108126777Y-33412077D01*
X108180971Y-33330971D01*
X108262077Y-33276777D01*
X108357749Y-33257748D01*
X110657746Y-33257747D01*
X110753417Y-33276777D01*
X110834523Y-33330971D01*
X110888717Y-33412077D01*
X110907746Y-33507749D01*
X110907747Y-35807746D01*
X110888717Y-35903417D01*
X110834523Y-35984523D01*
X110753417Y-36038717D01*
X110657745Y-36057746D01*
X108357748Y-36057747D01*
X108262077Y-36038717D01*
X108180971Y-35984523D01*
X108126777Y-35903417D01*
X108107748Y-35807745D01*
X108107747Y-33507748D01*
D22*
X114241080Y-34241036D02*
X114285525Y-34196591D01*
X114285525Y-34196591D02*
X114374414Y-34152147D01*
X114374414Y-34152147D02*
X114596636Y-34152147D01*
X114596636Y-34152147D02*
X114685525Y-34196591D01*
X114685525Y-34196591D02*
X114729969Y-34241036D01*
X114729969Y-34241036D02*
X114774413Y-34329925D01*
X114774413Y-34329925D02*
X114774413Y-34418814D01*
X114774413Y-34418814D02*
X114729969Y-34552147D01*
X114729969Y-34552147D02*
X114196636Y-35085480D01*
X114196636Y-35085480D02*
X114774413Y-35085480D01*
D11*
X115907747Y-34657747D02*
G75*
G02*
X113107747Y-34657747I-1400000J0D01*
G01*
X113107747Y-34657747D02*
G75*
G02*
X115907747Y-34657747I1400000J0D01*
G01*
%TD*%
D15*
X138242857Y-91829142D02*
X137957143Y-91829142D01*
X138100000Y-91829142D02*
X138100000Y-91329142D01*
X138100000Y-91329142D02*
X138052381Y-91400571D01*
X138052381Y-91400571D02*
X138004762Y-91448190D01*
X138004762Y-91448190D02*
X137957143Y-91471999D01*
D11*
%TO.C,TP116*%
X138850000Y-91600000D02*
G75*
G02*
X137350000Y-91600000I-750000J0D01*
G01*
X137350000Y-91600000D02*
G75*
G02*
X138850000Y-91600000I750000J0D01*
G01*
%TD*%
D15*
X96848667Y-29291889D02*
X96562953Y-29291889D01*
X96705810Y-29291889D02*
X96705810Y-28791889D01*
X96705810Y-28791889D02*
X96658191Y-28863318D01*
X96658191Y-28863318D02*
X96610572Y-28910937D01*
X96610572Y-28910937D02*
X96562953Y-28934746D01*
D11*
%TO.C,TP304*%
X97455810Y-29062747D02*
G75*
G02*
X95955810Y-29062747I-750000J0D01*
G01*
X95955810Y-29062747D02*
G75*
G02*
X97455810Y-29062747I750000J0D01*
G01*
%TD*%
D15*
X134542857Y-27729142D02*
X134257143Y-27729142D01*
X134400000Y-27729142D02*
X134400000Y-27229142D01*
X134400000Y-27229142D02*
X134352381Y-27300571D01*
X134352381Y-27300571D02*
X134304762Y-27348190D01*
X134304762Y-27348190D02*
X134257143Y-27371999D01*
D11*
%TO.C,TP402*%
X135150000Y-27500000D02*
G75*
G02*
X133650000Y-27500000I-750000J0D01*
G01*
X133650000Y-27500000D02*
G75*
G02*
X135150000Y-27500000I750000J0D01*
G01*
%TD*%
D19*
X158491914Y-34246997D02*
X158015724Y-34246997D01*
X158253819Y-34246997D02*
X158253819Y-33413664D01*
X158253819Y-33413664D02*
X158174454Y-33532712D01*
X158174454Y-33532712D02*
X158095089Y-33612077D01*
X158095089Y-33612077D02*
X158015724Y-33651759D01*
D11*
D14*
%TO.C,J405*%
D11*
X157003819Y-33270093D02*
X157023230Y-33172509D01*
X157078507Y-33089781D01*
X157161235Y-33034504D01*
X157258819Y-33015093D01*
X159248819Y-33015093D01*
X159346403Y-33034504D01*
X159429131Y-33089781D01*
X159484408Y-33172509D01*
X159503819Y-33270093D01*
X159503819Y-34460093D01*
X159484408Y-34557677D01*
X159429131Y-34640405D01*
X159346403Y-34695682D01*
X159248819Y-34715093D01*
X157258819Y-34715093D01*
X157161235Y-34695682D01*
X157078507Y-34640405D01*
X157023230Y-34557677D01*
X157003819Y-34460093D01*
X157003819Y-33270093D01*
D19*
X173255724Y-33493029D02*
X173295406Y-33453347D01*
X173295406Y-33453347D02*
X173374771Y-33413664D01*
X173374771Y-33413664D02*
X173573184Y-33413664D01*
X173573184Y-33413664D02*
X173652549Y-33453347D01*
X173652549Y-33453347D02*
X173692231Y-33493029D01*
X173692231Y-33493029D02*
X173731914Y-33572394D01*
X173731914Y-33572394D02*
X173731914Y-33651759D01*
X173731914Y-33651759D02*
X173692231Y-33770807D01*
X173692231Y-33770807D02*
X173216041Y-34246997D01*
X173216041Y-34246997D02*
X173731914Y-34246997D01*
D11*
D14*
D11*
X172243819Y-33270093D02*
X172263230Y-33172509D01*
X172318507Y-33089781D01*
X172401235Y-33034504D01*
X172498819Y-33015093D01*
X174488819Y-33015093D01*
X174586403Y-33034504D01*
X174669131Y-33089781D01*
X174724408Y-33172509D01*
X174743819Y-33270093D01*
X174743819Y-34460093D01*
X174724408Y-34557677D01*
X174669131Y-34640405D01*
X174586403Y-34695682D01*
X174488819Y-34715093D01*
X172498819Y-34715093D01*
X172401235Y-34695682D01*
X172318507Y-34640405D01*
X172263230Y-34557677D01*
X172243819Y-34460093D01*
X172243819Y-33270093D01*
D19*
X157976041Y-42033664D02*
X158491914Y-42033664D01*
X158491914Y-42033664D02*
X158214136Y-42351124D01*
X158214136Y-42351124D02*
X158333184Y-42351124D01*
X158333184Y-42351124D02*
X158412549Y-42390807D01*
X158412549Y-42390807D02*
X158452231Y-42430489D01*
X158452231Y-42430489D02*
X158491914Y-42509854D01*
X158491914Y-42509854D02*
X158491914Y-42708267D01*
X158491914Y-42708267D02*
X158452231Y-42787632D01*
X158452231Y-42787632D02*
X158412549Y-42827315D01*
X158412549Y-42827315D02*
X158333184Y-42866997D01*
X158333184Y-42866997D02*
X158095089Y-42866997D01*
X158095089Y-42866997D02*
X158015724Y-42827315D01*
X158015724Y-42827315D02*
X157976041Y-42787632D01*
D11*
D14*
D11*
X157003819Y-41890093D02*
X157023230Y-41792509D01*
X157078507Y-41709781D01*
X157161235Y-41654504D01*
X157258819Y-41635093D01*
X159248819Y-41635093D01*
X159346403Y-41654504D01*
X159429131Y-41709781D01*
X159484408Y-41792509D01*
X159503819Y-41890093D01*
X159503819Y-43080093D01*
X159484408Y-43177677D01*
X159429131Y-43260405D01*
X159346403Y-43315682D01*
X159248819Y-43335093D01*
X157258819Y-43335093D01*
X157161235Y-43315682D01*
X157078507Y-43260405D01*
X157023230Y-43177677D01*
X157003819Y-43080093D01*
X157003819Y-41890093D01*
D19*
X173652549Y-42311442D02*
X173652549Y-42866997D01*
X173454136Y-41993982D02*
X173255724Y-42589219D01*
X173255724Y-42589219D02*
X173771596Y-42589219D01*
D11*
D14*
D11*
X172243819Y-41890093D02*
X172263230Y-41792509D01*
X172318507Y-41709781D01*
X172401235Y-41654504D01*
X172498819Y-41635093D01*
X174488819Y-41635093D01*
X174586403Y-41654504D01*
X174669131Y-41709781D01*
X174724408Y-41792509D01*
X174743819Y-41890093D01*
X174743819Y-43080093D01*
X174724408Y-43177677D01*
X174669131Y-43260405D01*
X174586403Y-43315682D01*
X174488819Y-43335093D01*
X172498819Y-43335093D01*
X172401235Y-43315682D01*
X172318507Y-43260405D01*
X172263230Y-43177677D01*
X172243819Y-43080093D01*
X172243819Y-41890093D01*
%TD*%
D10*
X75186904Y-82509695D02*
X74863095Y-82509695D01*
X75024999Y-82509695D02*
X75024999Y-81943029D01*
X75024999Y-81943029D02*
X74971031Y-82023981D01*
X74971031Y-82023981D02*
X74917063Y-82077949D01*
X74917063Y-82077949D02*
X74863095Y-82104933D01*
D11*
%TO.C,JP102*%
X74175000Y-81400000D02*
X74175000Y-83100000D01*
X75875000Y-83100000D01*
X75875000Y-81400000D01*
X74175000Y-81400000D01*
D10*
X72323095Y-81996997D02*
X72350079Y-81970013D01*
X72350079Y-81970013D02*
X72404047Y-81943029D01*
X72404047Y-81943029D02*
X72538968Y-81943029D01*
X72538968Y-81943029D02*
X72592936Y-81970013D01*
X72592936Y-81970013D02*
X72619920Y-81996997D01*
X72619920Y-81996997D02*
X72646904Y-82050965D01*
X72646904Y-82050965D02*
X72646904Y-82104933D01*
X72646904Y-82104933D02*
X72619920Y-82185885D01*
X72619920Y-82185885D02*
X72296111Y-82509695D01*
X72296111Y-82509695D02*
X72646904Y-82509695D01*
D11*
X73335000Y-82250000D02*
G75*
G02*
X71635000Y-82250000I-850000J0D01*
G01*
X71635000Y-82250000D02*
G75*
G02*
X73335000Y-82250000I850000J0D01*
G01*
%TD*%
D12*
X58609523Y-103977676D02*
X57390476Y-103977676D01*
X57999999Y-103977676D02*
X57999999Y-101844343D01*
X57999999Y-101844343D02*
X57796825Y-102149105D01*
X57796825Y-102149105D02*
X57593650Y-102352279D01*
X57593650Y-102352279D02*
X57390476Y-102453867D01*
D11*
%TO.C,H404*%
X61200000Y-103000000D02*
G75*
G02*
X54800000Y-103000000I-3200000J0D01*
G01*
X54800000Y-103000000D02*
G75*
G02*
X61200000Y-103000000I3200000J0D01*
G01*
%TD*%
D15*
X138216787Y-53780218D02*
X137931073Y-53780218D01*
X138073930Y-53780218D02*
X138073930Y-53280218D01*
X138073930Y-53280218D02*
X138026311Y-53351647D01*
X138026311Y-53351647D02*
X137978692Y-53399266D01*
X137978692Y-53399266D02*
X137931073Y-53423075D01*
D11*
%TO.C,TP105*%
X138823930Y-53551076D02*
G75*
G02*
X137323930Y-53551076I-750000J0D01*
G01*
X137323930Y-53551076D02*
G75*
G02*
X138823930Y-53551076I750000J0D01*
G01*
%TD*%
D19*
X121988095Y-61381904D02*
X121511905Y-61381904D01*
X121750000Y-61381904D02*
X121750000Y-60548571D01*
X121750000Y-60548571D02*
X121670635Y-60667619D01*
X121670635Y-60667619D02*
X121591270Y-60746984D01*
X121591270Y-60746984D02*
X121511905Y-60786666D01*
D11*
%TO.C,RL101*%
X120500000Y-59750000D02*
X120500000Y-62250000D01*
X123000000Y-62250000D01*
X123000000Y-59750000D01*
X120500000Y-59750000D01*
D19*
X106511905Y-60627936D02*
X106551587Y-60588254D01*
X106551587Y-60588254D02*
X106630952Y-60548571D01*
X106630952Y-60548571D02*
X106829365Y-60548571D01*
X106829365Y-60548571D02*
X106908730Y-60588254D01*
X106908730Y-60588254D02*
X106948412Y-60627936D01*
X106948412Y-60627936D02*
X106988095Y-60707301D01*
X106988095Y-60707301D02*
X106988095Y-60786666D01*
X106988095Y-60786666D02*
X106948412Y-60905714D01*
X106948412Y-60905714D02*
X106472222Y-61381904D01*
X106472222Y-61381904D02*
X106988095Y-61381904D01*
D11*
X106750000Y-59750000D02*
X106750000Y-59750000D01*
X106750000Y-62250000D02*
G75*
G02*
X106750000Y-59750000I0J1250000D01*
G01*
X106750000Y-62250000D02*
X106750000Y-62250000D01*
X106750000Y-62250000D02*
G75*
G03*
X106750000Y-59750000I0J1250000D01*
G01*
D19*
X101472222Y-60548571D02*
X101988095Y-60548571D01*
X101988095Y-60548571D02*
X101710317Y-60866031D01*
X101710317Y-60866031D02*
X101829365Y-60866031D01*
X101829365Y-60866031D02*
X101908730Y-60905714D01*
X101908730Y-60905714D02*
X101948412Y-60945396D01*
X101948412Y-60945396D02*
X101988095Y-61024761D01*
X101988095Y-61024761D02*
X101988095Y-61223174D01*
X101988095Y-61223174D02*
X101948412Y-61302539D01*
X101948412Y-61302539D02*
X101908730Y-61342222D01*
X101908730Y-61342222D02*
X101829365Y-61381904D01*
X101829365Y-61381904D02*
X101591270Y-61381904D01*
X101591270Y-61381904D02*
X101511905Y-61342222D01*
X101511905Y-61342222D02*
X101472222Y-61302539D01*
D11*
X101750000Y-59750000D02*
X101750000Y-59750000D01*
X101750000Y-62250000D02*
G75*
G02*
X101750000Y-59750000I0J1250000D01*
G01*
X101750000Y-62250000D02*
X101750000Y-62250000D01*
X101750000Y-62250000D02*
G75*
G03*
X101750000Y-59750000I0J1250000D01*
G01*
D19*
X96908730Y-60826349D02*
X96908730Y-61381904D01*
X96710317Y-60508889D02*
X96511905Y-61104126D01*
X96511905Y-61104126D02*
X97027777Y-61104126D01*
D11*
X96750000Y-59750000D02*
X96750000Y-59750000D01*
X96750000Y-62250000D02*
G75*
G02*
X96750000Y-59750000I0J1250000D01*
G01*
X96750000Y-62250000D02*
X96750000Y-62250000D01*
X96750000Y-62250000D02*
G75*
G03*
X96750000Y-59750000I0J1250000D01*
G01*
D19*
X96948412Y-68048571D02*
X96551587Y-68048571D01*
X96551587Y-68048571D02*
X96511905Y-68445396D01*
X96511905Y-68445396D02*
X96551587Y-68405714D01*
X96551587Y-68405714D02*
X96630952Y-68366031D01*
X96630952Y-68366031D02*
X96829365Y-68366031D01*
X96829365Y-68366031D02*
X96908730Y-68405714D01*
X96908730Y-68405714D02*
X96948412Y-68445396D01*
X96948412Y-68445396D02*
X96988095Y-68524761D01*
X96988095Y-68524761D02*
X96988095Y-68723174D01*
X96988095Y-68723174D02*
X96948412Y-68802539D01*
X96948412Y-68802539D02*
X96908730Y-68842222D01*
X96908730Y-68842222D02*
X96829365Y-68881904D01*
X96829365Y-68881904D02*
X96630952Y-68881904D01*
X96630952Y-68881904D02*
X96551587Y-68842222D01*
X96551587Y-68842222D02*
X96511905Y-68802539D01*
D11*
X96750000Y-67250000D02*
X96750000Y-67250000D01*
X96750000Y-69750000D02*
G75*
G02*
X96750000Y-67250000I0J1250000D01*
G01*
X96750000Y-69750000D02*
X96750000Y-69750000D01*
X96750000Y-69750000D02*
G75*
G03*
X96750000Y-67250000I0J1250000D01*
G01*
D19*
X101908730Y-68048571D02*
X101750000Y-68048571D01*
X101750000Y-68048571D02*
X101670635Y-68088254D01*
X101670635Y-68088254D02*
X101630952Y-68127936D01*
X101630952Y-68127936D02*
X101551587Y-68246984D01*
X101551587Y-68246984D02*
X101511905Y-68405714D01*
X101511905Y-68405714D02*
X101511905Y-68723174D01*
X101511905Y-68723174D02*
X101551587Y-68802539D01*
X101551587Y-68802539D02*
X101591270Y-68842222D01*
X101591270Y-68842222D02*
X101670635Y-68881904D01*
X101670635Y-68881904D02*
X101829365Y-68881904D01*
X101829365Y-68881904D02*
X101908730Y-68842222D01*
X101908730Y-68842222D02*
X101948412Y-68802539D01*
X101948412Y-68802539D02*
X101988095Y-68723174D01*
X101988095Y-68723174D02*
X101988095Y-68524761D01*
X101988095Y-68524761D02*
X101948412Y-68445396D01*
X101948412Y-68445396D02*
X101908730Y-68405714D01*
X101908730Y-68405714D02*
X101829365Y-68366031D01*
X101829365Y-68366031D02*
X101670635Y-68366031D01*
X101670635Y-68366031D02*
X101591270Y-68405714D01*
X101591270Y-68405714D02*
X101551587Y-68445396D01*
X101551587Y-68445396D02*
X101511905Y-68524761D01*
D11*
X101750000Y-67250000D02*
X101750000Y-67250000D01*
X101750000Y-69750000D02*
G75*
G02*
X101750000Y-67250000I0J1250000D01*
G01*
X101750000Y-69750000D02*
X101750000Y-69750000D01*
X101750000Y-69750000D02*
G75*
G03*
X101750000Y-67250000I0J1250000D01*
G01*
D19*
X106472222Y-68048571D02*
X107027777Y-68048571D01*
X107027777Y-68048571D02*
X106670635Y-68881904D01*
D11*
X106750000Y-67250000D02*
X106750000Y-67250000D01*
X106750000Y-69750000D02*
G75*
G02*
X106750000Y-67250000I0J1250000D01*
G01*
X106750000Y-69750000D02*
X106750000Y-69750000D01*
X106750000Y-69750000D02*
G75*
G03*
X106750000Y-67250000I0J1250000D01*
G01*
D19*
X121670635Y-68405714D02*
X121591270Y-68366031D01*
X121591270Y-68366031D02*
X121551587Y-68326349D01*
X121551587Y-68326349D02*
X121511905Y-68246984D01*
X121511905Y-68246984D02*
X121511905Y-68207301D01*
X121511905Y-68207301D02*
X121551587Y-68127936D01*
X121551587Y-68127936D02*
X121591270Y-68088254D01*
X121591270Y-68088254D02*
X121670635Y-68048571D01*
X121670635Y-68048571D02*
X121829365Y-68048571D01*
X121829365Y-68048571D02*
X121908730Y-68088254D01*
X121908730Y-68088254D02*
X121948412Y-68127936D01*
X121948412Y-68127936D02*
X121988095Y-68207301D01*
X121988095Y-68207301D02*
X121988095Y-68246984D01*
X121988095Y-68246984D02*
X121948412Y-68326349D01*
X121948412Y-68326349D02*
X121908730Y-68366031D01*
X121908730Y-68366031D02*
X121829365Y-68405714D01*
X121829365Y-68405714D02*
X121670635Y-68405714D01*
X121670635Y-68405714D02*
X121591270Y-68445396D01*
X121591270Y-68445396D02*
X121551587Y-68485079D01*
X121551587Y-68485079D02*
X121511905Y-68564444D01*
X121511905Y-68564444D02*
X121511905Y-68723174D01*
X121511905Y-68723174D02*
X121551587Y-68802539D01*
X121551587Y-68802539D02*
X121591270Y-68842222D01*
X121591270Y-68842222D02*
X121670635Y-68881904D01*
X121670635Y-68881904D02*
X121829365Y-68881904D01*
X121829365Y-68881904D02*
X121908730Y-68842222D01*
X121908730Y-68842222D02*
X121948412Y-68802539D01*
X121948412Y-68802539D02*
X121988095Y-68723174D01*
X121988095Y-68723174D02*
X121988095Y-68564444D01*
X121988095Y-68564444D02*
X121948412Y-68485079D01*
X121948412Y-68485079D02*
X121908730Y-68445396D01*
X121908730Y-68445396D02*
X121829365Y-68405714D01*
D11*
X121750000Y-67250000D02*
X121750000Y-67250000D01*
X121750000Y-69750000D02*
G75*
G02*
X121750000Y-67250000I0J1250000D01*
G01*
X121750000Y-69750000D02*
X121750000Y-69750000D01*
X121750000Y-69750000D02*
G75*
G03*
X121750000Y-67250000I0J1250000D01*
G01*
%TD*%
D15*
X159616787Y-56120218D02*
X159331073Y-56120218D01*
X159473930Y-56120218D02*
X159473930Y-55620218D01*
X159473930Y-55620218D02*
X159426311Y-55691647D01*
X159426311Y-55691647D02*
X159378692Y-55739266D01*
X159378692Y-55739266D02*
X159331073Y-55763075D01*
D11*
%TO.C,TP106*%
X160223930Y-55891076D02*
G75*
G02*
X158723930Y-55891076I-750000J0D01*
G01*
X158723930Y-55891076D02*
G75*
G02*
X160223930Y-55891076I750000J0D01*
G01*
%TD*%
D27*
X71502143Y-56609977D02*
X71227857Y-56609977D01*
X71365000Y-56609977D02*
X71365000Y-56129977D01*
X71365000Y-56129977D02*
X71319286Y-56198548D01*
X71319286Y-56198548D02*
X71273571Y-56244262D01*
X71273571Y-56244262D02*
X71227857Y-56267120D01*
D11*
%TO.C,RV601*%
X72085000Y-56390000D02*
G75*
G02*
X70645000Y-56390000I-720000J0D01*
G01*
X70645000Y-56390000D02*
G75*
G02*
X72085000Y-56390000I720000J0D01*
G01*
D27*
X73767857Y-56175691D02*
X73790714Y-56152834D01*
X73790714Y-56152834D02*
X73836429Y-56129977D01*
X73836429Y-56129977D02*
X73950714Y-56129977D01*
X73950714Y-56129977D02*
X73996429Y-56152834D01*
X73996429Y-56152834D02*
X74019286Y-56175691D01*
X74019286Y-56175691D02*
X74042143Y-56221405D01*
X74042143Y-56221405D02*
X74042143Y-56267120D01*
X74042143Y-56267120D02*
X74019286Y-56335691D01*
X74019286Y-56335691D02*
X73745000Y-56609977D01*
X73745000Y-56609977D02*
X74042143Y-56609977D01*
D11*
X74625000Y-56390000D02*
G75*
G02*
X73185000Y-56390000I-720000J0D01*
G01*
X73185000Y-56390000D02*
G75*
G02*
X74625000Y-56390000I720000J0D01*
G01*
D27*
X76285000Y-56129977D02*
X76582143Y-56129977D01*
X76582143Y-56129977D02*
X76422143Y-56312834D01*
X76422143Y-56312834D02*
X76490714Y-56312834D01*
X76490714Y-56312834D02*
X76536429Y-56335691D01*
X76536429Y-56335691D02*
X76559286Y-56358548D01*
X76559286Y-56358548D02*
X76582143Y-56404262D01*
X76582143Y-56404262D02*
X76582143Y-56518548D01*
X76582143Y-56518548D02*
X76559286Y-56564262D01*
X76559286Y-56564262D02*
X76536429Y-56587120D01*
X76536429Y-56587120D02*
X76490714Y-56609977D01*
X76490714Y-56609977D02*
X76353571Y-56609977D01*
X76353571Y-56609977D02*
X76307857Y-56587120D01*
X76307857Y-56587120D02*
X76285000Y-56564262D01*
D11*
X77165000Y-56390000D02*
G75*
G02*
X75725000Y-56390000I-720000J0D01*
G01*
X75725000Y-56390000D02*
G75*
G02*
X77165000Y-56390000I720000J0D01*
G01*
%TD*%
D10*
X183911904Y-78119695D02*
X183588095Y-78119695D01*
X183749999Y-78119695D02*
X183749999Y-77553029D01*
X183749999Y-77553029D02*
X183696031Y-77633981D01*
X183696031Y-77633981D02*
X183642063Y-77687949D01*
X183642063Y-77687949D02*
X183588095Y-77714933D01*
D11*
%TO.C,J411*%
X182900000Y-77010000D02*
X182900000Y-78710000D01*
X184600000Y-78710000D01*
X184600000Y-77010000D01*
X182900000Y-77010000D01*
D10*
X183588095Y-80146997D02*
X183615079Y-80120013D01*
X183615079Y-80120013D02*
X183669047Y-80093029D01*
X183669047Y-80093029D02*
X183803968Y-80093029D01*
X183803968Y-80093029D02*
X183857936Y-80120013D01*
X183857936Y-80120013D02*
X183884920Y-80146997D01*
X183884920Y-80146997D02*
X183911904Y-80200965D01*
X183911904Y-80200965D02*
X183911904Y-80254933D01*
X183911904Y-80254933D02*
X183884920Y-80335885D01*
X183884920Y-80335885D02*
X183561111Y-80659695D01*
X183561111Y-80659695D02*
X183911904Y-80659695D01*
D11*
X184600000Y-80400000D02*
G75*
G02*
X182900000Y-80400000I-850000J0D01*
G01*
X182900000Y-80400000D02*
G75*
G02*
X184600000Y-80400000I850000J0D01*
G01*
D10*
X183561111Y-82633029D02*
X183911904Y-82633029D01*
X183911904Y-82633029D02*
X183723015Y-82848901D01*
X183723015Y-82848901D02*
X183803968Y-82848901D01*
X183803968Y-82848901D02*
X183857936Y-82875885D01*
X183857936Y-82875885D02*
X183884920Y-82902870D01*
X183884920Y-82902870D02*
X183911904Y-82956838D01*
X183911904Y-82956838D02*
X183911904Y-83091758D01*
X183911904Y-83091758D02*
X183884920Y-83145726D01*
X183884920Y-83145726D02*
X183857936Y-83172711D01*
X183857936Y-83172711D02*
X183803968Y-83199695D01*
X183803968Y-83199695D02*
X183642063Y-83199695D01*
X183642063Y-83199695D02*
X183588095Y-83172711D01*
X183588095Y-83172711D02*
X183561111Y-83145726D01*
D11*
X184600000Y-82940000D02*
G75*
G02*
X182900000Y-82940000I-850000J0D01*
G01*
X182900000Y-82940000D02*
G75*
G02*
X184600000Y-82940000I850000J0D01*
G01*
D10*
X183857936Y-85361917D02*
X183857936Y-85739695D01*
X183723015Y-85146045D02*
X183588095Y-85550806D01*
X183588095Y-85550806D02*
X183938888Y-85550806D01*
D11*
X184600000Y-85480000D02*
G75*
G02*
X182900000Y-85480000I-850000J0D01*
G01*
X182900000Y-85480000D02*
G75*
G02*
X184600000Y-85480000I850000J0D01*
G01*
D10*
X183884920Y-87713029D02*
X183615079Y-87713029D01*
X183615079Y-87713029D02*
X183588095Y-87982870D01*
X183588095Y-87982870D02*
X183615079Y-87955885D01*
X183615079Y-87955885D02*
X183669047Y-87928901D01*
X183669047Y-87928901D02*
X183803968Y-87928901D01*
X183803968Y-87928901D02*
X183857936Y-87955885D01*
X183857936Y-87955885D02*
X183884920Y-87982870D01*
X183884920Y-87982870D02*
X183911904Y-88036838D01*
X183911904Y-88036838D02*
X183911904Y-88171758D01*
X183911904Y-88171758D02*
X183884920Y-88225726D01*
X183884920Y-88225726D02*
X183857936Y-88252711D01*
X183857936Y-88252711D02*
X183803968Y-88279695D01*
X183803968Y-88279695D02*
X183669047Y-88279695D01*
X183669047Y-88279695D02*
X183615079Y-88252711D01*
X183615079Y-88252711D02*
X183588095Y-88225726D01*
D11*
X184600000Y-88020000D02*
G75*
G02*
X182900000Y-88020000I-850000J0D01*
G01*
X182900000Y-88020000D02*
G75*
G02*
X184600000Y-88020000I850000J0D01*
G01*
D10*
X183857936Y-90253029D02*
X183749999Y-90253029D01*
X183749999Y-90253029D02*
X183696031Y-90280013D01*
X183696031Y-90280013D02*
X183669047Y-90306997D01*
X183669047Y-90306997D02*
X183615079Y-90387949D01*
X183615079Y-90387949D02*
X183588095Y-90495885D01*
X183588095Y-90495885D02*
X183588095Y-90711758D01*
X183588095Y-90711758D02*
X183615079Y-90765726D01*
X183615079Y-90765726D02*
X183642063Y-90792711D01*
X183642063Y-90792711D02*
X183696031Y-90819695D01*
X183696031Y-90819695D02*
X183803968Y-90819695D01*
X183803968Y-90819695D02*
X183857936Y-90792711D01*
X183857936Y-90792711D02*
X183884920Y-90765726D01*
X183884920Y-90765726D02*
X183911904Y-90711758D01*
X183911904Y-90711758D02*
X183911904Y-90576838D01*
X183911904Y-90576838D02*
X183884920Y-90522870D01*
X183884920Y-90522870D02*
X183857936Y-90495885D01*
X183857936Y-90495885D02*
X183803968Y-90468901D01*
X183803968Y-90468901D02*
X183696031Y-90468901D01*
X183696031Y-90468901D02*
X183642063Y-90495885D01*
X183642063Y-90495885D02*
X183615079Y-90522870D01*
X183615079Y-90522870D02*
X183588095Y-90576838D01*
D11*
X184600000Y-90560000D02*
G75*
G02*
X182900000Y-90560000I-850000J0D01*
G01*
X182900000Y-90560000D02*
G75*
G02*
X184600000Y-90560000I850000J0D01*
G01*
D10*
X183561111Y-92793029D02*
X183938888Y-92793029D01*
X183938888Y-92793029D02*
X183696031Y-93359695D01*
D11*
X184600000Y-93100000D02*
G75*
G02*
X182900000Y-93100000I-850000J0D01*
G01*
X182900000Y-93100000D02*
G75*
G02*
X184600000Y-93100000I850000J0D01*
G01*
D10*
X183696031Y-95575885D02*
X183642063Y-95548901D01*
X183642063Y-95548901D02*
X183615079Y-95521917D01*
X183615079Y-95521917D02*
X183588095Y-95467949D01*
X183588095Y-95467949D02*
X183588095Y-95440965D01*
X183588095Y-95440965D02*
X183615079Y-95386997D01*
X183615079Y-95386997D02*
X183642063Y-95360013D01*
X183642063Y-95360013D02*
X183696031Y-95333029D01*
X183696031Y-95333029D02*
X183803968Y-95333029D01*
X183803968Y-95333029D02*
X183857936Y-95360013D01*
X183857936Y-95360013D02*
X183884920Y-95386997D01*
X183884920Y-95386997D02*
X183911904Y-95440965D01*
X183911904Y-95440965D02*
X183911904Y-95467949D01*
X183911904Y-95467949D02*
X183884920Y-95521917D01*
X183884920Y-95521917D02*
X183857936Y-95548901D01*
X183857936Y-95548901D02*
X183803968Y-95575885D01*
X183803968Y-95575885D02*
X183696031Y-95575885D01*
X183696031Y-95575885D02*
X183642063Y-95602870D01*
X183642063Y-95602870D02*
X183615079Y-95629854D01*
X183615079Y-95629854D02*
X183588095Y-95683822D01*
X183588095Y-95683822D02*
X183588095Y-95791758D01*
X183588095Y-95791758D02*
X183615079Y-95845726D01*
X183615079Y-95845726D02*
X183642063Y-95872711D01*
X183642063Y-95872711D02*
X183696031Y-95899695D01*
X183696031Y-95899695D02*
X183803968Y-95899695D01*
X183803968Y-95899695D02*
X183857936Y-95872711D01*
X183857936Y-95872711D02*
X183884920Y-95845726D01*
X183884920Y-95845726D02*
X183911904Y-95791758D01*
X183911904Y-95791758D02*
X183911904Y-95683822D01*
X183911904Y-95683822D02*
X183884920Y-95629854D01*
X183884920Y-95629854D02*
X183857936Y-95602870D01*
X183857936Y-95602870D02*
X183803968Y-95575885D01*
D11*
X184600000Y-95640000D02*
G75*
G02*
X182900000Y-95640000I-850000J0D01*
G01*
X182900000Y-95640000D02*
G75*
G02*
X184600000Y-95640000I850000J0D01*
G01*
%TD*%
D15*
X138216787Y-56480218D02*
X137931073Y-56480218D01*
X138073930Y-56480218D02*
X138073930Y-55980218D01*
X138073930Y-55980218D02*
X138026311Y-56051647D01*
X138026311Y-56051647D02*
X137978692Y-56099266D01*
X137978692Y-56099266D02*
X137931073Y-56123075D01*
D11*
%TO.C,TP107*%
X138823930Y-56251076D02*
G75*
G02*
X137323930Y-56251076I-750000J0D01*
G01*
X137323930Y-56251076D02*
G75*
G02*
X138823930Y-56251076I750000J0D01*
G01*
%TD*%
D15*
X104892857Y-72979142D02*
X104607143Y-72979142D01*
X104750000Y-72979142D02*
X104750000Y-72479142D01*
X104750000Y-72479142D02*
X104702381Y-72550571D01*
X104702381Y-72550571D02*
X104654762Y-72598190D01*
X104654762Y-72598190D02*
X104607143Y-72621999D01*
D11*
%TO.C,TP102*%
X105500000Y-72750000D02*
G75*
G02*
X104000000Y-72750000I-750000J0D01*
G01*
X104000000Y-72750000D02*
G75*
G02*
X105500000Y-72750000I750000J0D01*
G01*
%TD*%
D15*
X64042857Y-73829142D02*
X63757143Y-73829142D01*
X63900000Y-73829142D02*
X63900000Y-73329142D01*
X63900000Y-73329142D02*
X63852381Y-73400571D01*
X63852381Y-73400571D02*
X63804762Y-73448190D01*
X63804762Y-73448190D02*
X63757143Y-73471999D01*
D11*
%TO.C,TP608*%
X64650000Y-73600000D02*
G75*
G02*
X63150000Y-73600000I-750000J0D01*
G01*
X63150000Y-73600000D02*
G75*
G02*
X64650000Y-73600000I750000J0D01*
G01*
%TD*%
D28*
X53000000Y-103000000D02*
X53000000Y-28000000D01*
X53000000Y-28000000D02*
G75*
G02*
X58000000Y-23000000I5000000J0D01*
G01*
X58000000Y-108000000D02*
G75*
G02*
X53000000Y-103000000I0J5000000D01*
G01*
X188000000Y-108000000D02*
X58000000Y-108000000D01*
X193000000Y-28000000D02*
X193000000Y-103000000D01*
X58000000Y-23000000D02*
X188000000Y-23000000D01*
X188000000Y-23000000D02*
G75*
G02*
X193000000Y-28000000I0J-5000000D01*
G01*
X193000000Y-103000000D02*
G75*
G02*
X188000000Y-108000000I-5000000J0D01*
G01*
M02*
